M48
;GenerationSoftware,Autodesk,EAGLE,9.6.2*%
;CreationDate,2021-07-06T15:11:31Z*%
FMAT,2
ICI,OFF
METRIC,TZ,000.000
T5C0.300
T4C0.350
T3C0.600
T2C1.016
T1C3.000
%
G90
M71
T1
X33100Y4800
X4300Y15300
T2
X40640Y13835
X40640Y8755
X40640Y6215
X40640Y3675
X45720Y16375
X45720Y13835
X45720Y11295
X45720Y8755
X45720Y6215
X45720Y3675
X31750Y16375
X31750Y13835
X31750Y11295
X34290Y16375
X34290Y13835
X40640Y16375
X34290Y11295
X40640Y11295
T3
X17780Y17010
X16510Y17010
X15240Y17010
T4
X4445Y6350
X19685Y5715
X19685Y5715
X19685Y5715
X24765Y4445
T5
X18733Y7620
X17145Y5080
X26035Y3492
X26987Y8255
X12382Y10795
X19050Y11112
X17145Y6985
X26352Y13017
X26670Y4445
M30