G04 EAGLE Gerber RS-274X export*
G75*
%MOMM*%
%FSLAX34Y34*%
%LPD*%
%INTop Copper*%
%IPPOS*%
%AMOC8*
5,1,8,0,0,1.08239X$1,22.5*%
G01*
%ADD10C,1.108000*%
%ADD11C,1.828800*%
%ADD12C,5.842000*%
%ADD13C,1.828800*%
%ADD14P,1.979475X8X292.500000*%
%ADD15R,0.500000X2.200000*%
%ADD16R,0.700000X0.600000*%
%ADD17R,0.900000X0.700000*%
%ADD18R,1.300000X1.550000*%
%ADD19R,0.911800X0.611800*%
%ADD20C,0.254000*%
%ADD21C,0.452400*%
%ADD22C,0.502400*%

G36*
X138736Y2002D02*
X138736Y2002D01*
X138745Y2001D01*
X138939Y2022D01*
X139128Y2041D01*
X139136Y2043D01*
X139145Y2044D01*
X139329Y2102D01*
X139513Y2159D01*
X139521Y2163D01*
X139529Y2166D01*
X139697Y2258D01*
X139867Y2351D01*
X139874Y2356D01*
X139881Y2361D01*
X140029Y2485D01*
X140176Y2608D01*
X140182Y2615D01*
X140188Y2621D01*
X140308Y2773D01*
X140428Y2922D01*
X140433Y2930D01*
X140438Y2937D01*
X140526Y3110D01*
X140614Y3279D01*
X140616Y3288D01*
X140620Y3296D01*
X140672Y3482D01*
X140725Y3666D01*
X140726Y3675D01*
X140728Y3684D01*
X140743Y3877D01*
X140758Y4068D01*
X140757Y4076D01*
X140758Y4085D01*
X140734Y4278D01*
X140711Y4467D01*
X140709Y4476D01*
X140707Y4485D01*
X140646Y4668D01*
X140586Y4850D01*
X140582Y4858D01*
X140579Y4866D01*
X140483Y5033D01*
X140389Y5201D01*
X140383Y5208D01*
X140378Y5215D01*
X140164Y5468D01*
X131623Y14009D01*
X129539Y16093D01*
X129539Y55136D01*
X129537Y55163D01*
X129539Y55190D01*
X129517Y55363D01*
X129499Y55537D01*
X129492Y55562D01*
X129488Y55589D01*
X129433Y55755D01*
X129381Y55922D01*
X129368Y55945D01*
X129360Y55971D01*
X129273Y56122D01*
X129189Y56276D01*
X129172Y56296D01*
X129159Y56320D01*
X128944Y56573D01*
X119442Y66075D01*
X119421Y66092D01*
X119403Y66113D01*
X119265Y66220D01*
X119130Y66330D01*
X119106Y66343D01*
X119085Y66359D01*
X118928Y66437D01*
X118774Y66519D01*
X118749Y66527D01*
X118725Y66539D01*
X118555Y66584D01*
X118388Y66634D01*
X118362Y66636D01*
X118336Y66643D01*
X118005Y66670D01*
X109215Y66670D01*
X108568Y67317D01*
X108561Y67322D01*
X108556Y67329D01*
X108406Y67450D01*
X108257Y67572D01*
X108249Y67576D01*
X108242Y67581D01*
X108072Y67670D01*
X107901Y67760D01*
X107892Y67763D01*
X107885Y67767D01*
X107700Y67820D01*
X107515Y67875D01*
X107506Y67876D01*
X107498Y67878D01*
X107307Y67894D01*
X107114Y67912D01*
X107105Y67911D01*
X107096Y67911D01*
X106907Y67889D01*
X106714Y67868D01*
X106705Y67865D01*
X106697Y67864D01*
X106515Y67805D01*
X106330Y67747D01*
X106322Y67742D01*
X106314Y67740D01*
X106147Y67645D01*
X105978Y67552D01*
X105971Y67546D01*
X105963Y67542D01*
X105818Y67416D01*
X105671Y67291D01*
X105665Y67284D01*
X105658Y67278D01*
X105542Y67128D01*
X105421Y66975D01*
X105417Y66967D01*
X105412Y66960D01*
X105327Y66790D01*
X105239Y66616D01*
X105236Y66608D01*
X105232Y66600D01*
X105183Y66414D01*
X105131Y66229D01*
X105130Y66220D01*
X105128Y66211D01*
X105101Y65880D01*
X105101Y65165D01*
X104928Y64519D01*
X104593Y63940D01*
X104426Y63773D01*
X104409Y63752D01*
X104388Y63734D01*
X104281Y63596D01*
X104171Y63461D01*
X104158Y63437D01*
X104142Y63416D01*
X104064Y63259D01*
X103982Y63105D01*
X103974Y63080D01*
X103962Y63056D01*
X103917Y62886D01*
X103867Y62719D01*
X103865Y62693D01*
X103858Y62667D01*
X103831Y62336D01*
X103831Y60572D01*
X103833Y60554D01*
X103831Y60536D01*
X103852Y60354D01*
X103871Y60171D01*
X103876Y60154D01*
X103878Y60137D01*
X103935Y59962D01*
X103989Y59786D01*
X103997Y59771D01*
X104003Y59754D01*
X104093Y59594D01*
X104181Y59432D01*
X104192Y59419D01*
X104201Y59403D01*
X104321Y59264D01*
X104438Y59123D01*
X104452Y59112D01*
X104464Y59098D01*
X104609Y58986D01*
X104752Y58871D01*
X104768Y58863D01*
X104782Y58852D01*
X104947Y58770D01*
X105109Y58685D01*
X105126Y58680D01*
X105142Y58672D01*
X105321Y58625D01*
X105496Y58574D01*
X105514Y58572D01*
X105531Y58568D01*
X105862Y58541D01*
X106584Y58541D01*
X106611Y58543D01*
X106638Y58541D01*
X106811Y58563D01*
X106985Y58581D01*
X107010Y58588D01*
X107037Y58592D01*
X107203Y58647D01*
X107370Y58699D01*
X107393Y58712D01*
X107419Y58720D01*
X107570Y58807D01*
X107724Y58891D01*
X107744Y58908D01*
X107768Y58921D01*
X108021Y59136D01*
X109215Y60330D01*
X119385Y60330D01*
X120130Y59585D01*
X120130Y52415D01*
X119385Y51670D01*
X109215Y51670D01*
X108021Y52864D01*
X108000Y52881D01*
X107982Y52902D01*
X107844Y53009D01*
X107709Y53119D01*
X107685Y53132D01*
X107664Y53148D01*
X107507Y53226D01*
X107353Y53308D01*
X107328Y53316D01*
X107304Y53328D01*
X107134Y53373D01*
X106967Y53423D01*
X106941Y53425D01*
X106915Y53432D01*
X106584Y53459D01*
X100508Y53459D01*
X100333Y53634D01*
X100312Y53651D01*
X100294Y53672D01*
X100157Y53778D01*
X100021Y53889D01*
X99997Y53902D01*
X99976Y53918D01*
X99820Y53996D01*
X99665Y54078D01*
X99640Y54086D01*
X99616Y54098D01*
X99447Y54143D01*
X99279Y54193D01*
X99253Y54195D01*
X99227Y54202D01*
X98896Y54229D01*
X95034Y54229D01*
X94289Y54974D01*
X94289Y62336D01*
X94287Y62363D01*
X94289Y62390D01*
X94267Y62563D01*
X94249Y62737D01*
X94242Y62762D01*
X94238Y62789D01*
X94183Y62955D01*
X94131Y63122D01*
X94118Y63145D01*
X94110Y63171D01*
X94023Y63322D01*
X93939Y63476D01*
X93922Y63496D01*
X93909Y63520D01*
X93694Y63773D01*
X93527Y63940D01*
X93192Y64519D01*
X93019Y65165D01*
X93019Y66469D01*
X99060Y66469D01*
X99077Y66470D01*
X99095Y66469D01*
X99278Y66490D01*
X99460Y66508D01*
X99477Y66514D01*
X99495Y66516D01*
X99670Y66573D01*
X99845Y66627D01*
X99861Y66635D01*
X99878Y66641D01*
X100038Y66731D01*
X100199Y66818D01*
X100213Y66830D01*
X100228Y66839D01*
X100368Y66959D01*
X100508Y67076D01*
X100509Y67076D01*
X100509Y67077D01*
X100520Y67090D01*
X100533Y67102D01*
X100534Y67102D01*
X100646Y67247D01*
X100761Y67390D01*
X100770Y67406D01*
X100780Y67420D01*
X100862Y67585D01*
X100947Y67748D01*
X100952Y67765D01*
X100960Y67781D01*
X101008Y67959D01*
X101058Y68135D01*
X101060Y68152D01*
X101064Y68170D01*
X101091Y68500D01*
X101091Y74041D01*
X102895Y74041D01*
X103541Y73868D01*
X104120Y73533D01*
X104593Y73060D01*
X104680Y72910D01*
X104723Y72850D01*
X104758Y72786D01*
X104840Y72687D01*
X104915Y72583D01*
X104968Y72533D01*
X105015Y72477D01*
X105115Y72396D01*
X105209Y72308D01*
X105272Y72270D01*
X105329Y72224D01*
X105443Y72165D01*
X105553Y72098D01*
X105621Y72072D01*
X105686Y72039D01*
X105810Y72003D01*
X105930Y71959D01*
X106003Y71948D01*
X106073Y71927D01*
X106201Y71917D01*
X106328Y71897D01*
X106401Y71900D01*
X106475Y71894D01*
X106602Y71909D01*
X106731Y71915D01*
X106802Y71933D01*
X106874Y71941D01*
X106997Y71981D01*
X107121Y72012D01*
X107188Y72043D01*
X107257Y72066D01*
X107369Y72129D01*
X107485Y72184D01*
X107544Y72228D01*
X107608Y72264D01*
X107705Y72348D01*
X107808Y72425D01*
X107857Y72479D01*
X107913Y72527D01*
X107991Y72629D01*
X108077Y72724D01*
X108114Y72787D01*
X108159Y72845D01*
X108217Y72960D01*
X108282Y73071D01*
X108306Y73140D01*
X108339Y73206D01*
X108372Y73330D01*
X108414Y73451D01*
X108424Y73524D01*
X108443Y73595D01*
X108457Y73764D01*
X108469Y73850D01*
X108467Y73883D01*
X108470Y73925D01*
X108470Y74585D01*
X109215Y75330D01*
X119385Y75330D01*
X120130Y74585D01*
X120130Y73415D01*
X120132Y73388D01*
X120130Y73361D01*
X120152Y73188D01*
X120170Y73014D01*
X120177Y72989D01*
X120181Y72962D01*
X120236Y72796D01*
X120288Y72629D01*
X120301Y72606D01*
X120309Y72580D01*
X120396Y72429D01*
X120480Y72275D01*
X120497Y72255D01*
X120510Y72231D01*
X120725Y71978D01*
X131219Y61484D01*
X131233Y61473D01*
X131244Y61460D01*
X131388Y61346D01*
X131530Y61229D01*
X131546Y61221D01*
X131560Y61210D01*
X131724Y61126D01*
X131886Y61041D01*
X131903Y61036D01*
X131919Y61028D01*
X132096Y60978D01*
X132272Y60926D01*
X132290Y60924D01*
X132307Y60920D01*
X132490Y60906D01*
X132673Y60890D01*
X132691Y60892D01*
X132708Y60890D01*
X132890Y60913D01*
X133073Y60933D01*
X133090Y60938D01*
X133108Y60941D01*
X133281Y60999D01*
X133457Y61054D01*
X133473Y61063D01*
X133489Y61069D01*
X133649Y61161D01*
X133809Y61249D01*
X133823Y61261D01*
X133838Y61270D01*
X134091Y61484D01*
X150639Y78032D01*
X150644Y78039D01*
X150651Y78044D01*
X150771Y78194D01*
X150894Y78343D01*
X150898Y78351D01*
X150903Y78358D01*
X150992Y78529D01*
X151082Y78699D01*
X151085Y78707D01*
X151089Y78715D01*
X151142Y78901D01*
X151197Y79085D01*
X151198Y79094D01*
X151200Y79102D01*
X151216Y79294D01*
X151233Y79486D01*
X151232Y79495D01*
X151233Y79504D01*
X151211Y79691D01*
X151190Y79886D01*
X151187Y79895D01*
X151186Y79903D01*
X151127Y80085D01*
X151069Y80270D01*
X151064Y80278D01*
X151061Y80286D01*
X150966Y80455D01*
X150874Y80622D01*
X150868Y80629D01*
X150864Y80637D01*
X150738Y80783D01*
X150613Y80929D01*
X150606Y80935D01*
X150600Y80942D01*
X150449Y81059D01*
X150297Y81179D01*
X150289Y81183D01*
X150282Y81188D01*
X150110Y81274D01*
X149938Y81361D01*
X149930Y81364D01*
X149922Y81368D01*
X149735Y81418D01*
X149550Y81469D01*
X149542Y81470D01*
X149533Y81472D01*
X149202Y81499D01*
X148181Y81499D01*
X148181Y95040D01*
X148181Y108581D01*
X148985Y108581D01*
X149631Y108408D01*
X150210Y108073D01*
X150683Y107600D01*
X151018Y107021D01*
X151086Y106765D01*
X151134Y106637D01*
X151175Y106506D01*
X151205Y106449D01*
X151228Y106389D01*
X151301Y106272D01*
X151367Y106152D01*
X151408Y106102D01*
X151442Y106048D01*
X151537Y105948D01*
X151624Y105842D01*
X151674Y105802D01*
X151719Y105755D01*
X151831Y105676D01*
X151938Y105590D01*
X151995Y105560D01*
X152048Y105523D01*
X152174Y105468D01*
X152295Y105404D01*
X152357Y105387D01*
X152416Y105361D01*
X152550Y105331D01*
X152682Y105293D01*
X152747Y105288D01*
X152809Y105274D01*
X152946Y105271D01*
X153084Y105260D01*
X153148Y105268D01*
X153212Y105266D01*
X153347Y105291D01*
X153483Y105307D01*
X153545Y105327D01*
X153608Y105339D01*
X153735Y105389D01*
X153866Y105432D01*
X153922Y105464D01*
X153982Y105487D01*
X154097Y105562D01*
X154217Y105630D01*
X154266Y105672D01*
X154319Y105707D01*
X154417Y105803D01*
X154522Y105893D01*
X154561Y105944D01*
X154607Y105989D01*
X154684Y106103D01*
X154768Y106211D01*
X154797Y106269D01*
X154830Y106317D01*
X155824Y107311D01*
X161876Y107311D01*
X162621Y106566D01*
X162621Y83514D01*
X161886Y82779D01*
X161869Y82758D01*
X161848Y82740D01*
X161741Y82602D01*
X161631Y82467D01*
X161618Y82443D01*
X161602Y82422D01*
X161524Y82266D01*
X161442Y82111D01*
X161434Y82086D01*
X161422Y82062D01*
X161377Y81893D01*
X161327Y81726D01*
X161325Y81699D01*
X161318Y81673D01*
X161291Y81342D01*
X161291Y80772D01*
X161293Y80754D01*
X161291Y80736D01*
X161312Y80554D01*
X161331Y80371D01*
X161336Y80354D01*
X161338Y80337D01*
X161395Y80162D01*
X161449Y79986D01*
X161457Y79971D01*
X161463Y79954D01*
X161553Y79794D01*
X161641Y79632D01*
X161652Y79619D01*
X161661Y79603D01*
X161781Y79464D01*
X161898Y79323D01*
X161912Y79312D01*
X161924Y79298D01*
X162069Y79186D01*
X162212Y79071D01*
X162228Y79063D01*
X162242Y79052D01*
X162407Y78970D01*
X162569Y78885D01*
X162586Y78880D01*
X162602Y78872D01*
X162781Y78825D01*
X162956Y78774D01*
X162974Y78772D01*
X162991Y78768D01*
X163322Y78741D01*
X167648Y78741D01*
X167657Y78742D01*
X167666Y78741D01*
X167858Y78762D01*
X168049Y78781D01*
X168058Y78783D01*
X168066Y78784D01*
X168249Y78842D01*
X168434Y78899D01*
X168442Y78903D01*
X168450Y78906D01*
X168619Y78999D01*
X168788Y79091D01*
X168795Y79096D01*
X168803Y79101D01*
X168950Y79226D01*
X169097Y79348D01*
X169103Y79355D01*
X169110Y79361D01*
X169229Y79513D01*
X169349Y79662D01*
X169354Y79670D01*
X169359Y79677D01*
X169447Y79849D01*
X169535Y80019D01*
X169537Y80028D01*
X169542Y80036D01*
X169593Y80221D01*
X169646Y80406D01*
X169647Y80415D01*
X169650Y80424D01*
X169664Y80616D01*
X169679Y80808D01*
X169678Y80816D01*
X169679Y80825D01*
X169655Y81018D01*
X169632Y81207D01*
X169630Y81216D01*
X169628Y81225D01*
X169567Y81407D01*
X169508Y81590D01*
X169503Y81598D01*
X169500Y81606D01*
X169405Y81772D01*
X169310Y81941D01*
X169304Y81948D01*
X169299Y81955D01*
X169085Y82208D01*
X167779Y83514D01*
X167779Y107186D01*
X167777Y107213D01*
X167779Y107240D01*
X167757Y107413D01*
X167739Y107587D01*
X167732Y107612D01*
X167728Y107639D01*
X167673Y107805D01*
X167621Y107972D01*
X167608Y107995D01*
X167600Y108021D01*
X167513Y108172D01*
X167429Y108326D01*
X167412Y108346D01*
X167399Y108370D01*
X167184Y108623D01*
X161468Y114339D01*
X161447Y114356D01*
X161429Y114377D01*
X161291Y114484D01*
X161156Y114594D01*
X161132Y114607D01*
X161111Y114623D01*
X160954Y114701D01*
X160800Y114783D01*
X160775Y114791D01*
X160751Y114803D01*
X160581Y114848D01*
X160414Y114898D01*
X160388Y114900D01*
X160362Y114907D01*
X160031Y114934D01*
X128397Y114934D01*
X128379Y114932D01*
X128361Y114934D01*
X128179Y114913D01*
X127996Y114894D01*
X127979Y114889D01*
X127962Y114887D01*
X127787Y114830D01*
X127611Y114776D01*
X127596Y114768D01*
X127579Y114762D01*
X127419Y114672D01*
X127257Y114584D01*
X127244Y114573D01*
X127228Y114564D01*
X127089Y114444D01*
X126948Y114327D01*
X126937Y114313D01*
X126923Y114301D01*
X126811Y114156D01*
X126696Y114013D01*
X126688Y113997D01*
X126677Y113983D01*
X126595Y113818D01*
X126510Y113656D01*
X126505Y113639D01*
X126497Y113623D01*
X126450Y113444D01*
X126399Y113269D01*
X126397Y113251D01*
X126393Y113234D01*
X126366Y112903D01*
X126366Y111247D01*
X126368Y111220D01*
X126366Y111193D01*
X126388Y111019D01*
X126406Y110846D01*
X126413Y110821D01*
X126417Y110794D01*
X126472Y110628D01*
X126524Y110461D01*
X126537Y110438D01*
X126545Y110412D01*
X126632Y110261D01*
X126716Y110107D01*
X126733Y110087D01*
X126746Y110063D01*
X126961Y109810D01*
X127358Y109413D01*
X127358Y106487D01*
X125288Y104417D01*
X122362Y104417D01*
X120292Y106487D01*
X120292Y109413D01*
X120689Y109810D01*
X120706Y109831D01*
X120727Y109849D01*
X120834Y109986D01*
X120944Y110122D01*
X120957Y110146D01*
X120973Y110167D01*
X121051Y110324D01*
X121133Y110478D01*
X121141Y110503D01*
X121153Y110527D01*
X121198Y110696D01*
X121248Y110863D01*
X121250Y110890D01*
X121257Y110916D01*
X121284Y111247D01*
X121284Y112903D01*
X121282Y112921D01*
X121284Y112939D01*
X121263Y113121D01*
X121244Y113304D01*
X121239Y113321D01*
X121237Y113338D01*
X121180Y113513D01*
X121126Y113689D01*
X121118Y113704D01*
X121112Y113721D01*
X121022Y113881D01*
X120934Y114043D01*
X120923Y114056D01*
X120914Y114072D01*
X120794Y114211D01*
X120677Y114352D01*
X120663Y114363D01*
X120651Y114377D01*
X120506Y114489D01*
X120363Y114604D01*
X120347Y114612D01*
X120333Y114623D01*
X120168Y114705D01*
X120006Y114790D01*
X119989Y114795D01*
X119973Y114803D01*
X119794Y114850D01*
X119619Y114901D01*
X119601Y114903D01*
X119584Y114907D01*
X119253Y114934D01*
X109370Y114934D01*
X109247Y114922D01*
X109123Y114919D01*
X109047Y114902D01*
X108970Y114894D01*
X108851Y114858D01*
X108730Y114831D01*
X108647Y114795D01*
X108585Y114776D01*
X108521Y114742D01*
X108425Y114701D01*
X82987Y101324D01*
X82892Y101261D01*
X82802Y101213D01*
X82784Y101197D01*
X82750Y101177D01*
X82695Y101131D01*
X82651Y101102D01*
X82594Y101045D01*
X82497Y100963D01*
X82235Y100701D01*
X82196Y100697D01*
X82072Y100694D01*
X81996Y100677D01*
X81919Y100669D01*
X81800Y100633D01*
X81679Y100606D01*
X81596Y100570D01*
X81534Y100551D01*
X81470Y100517D01*
X81451Y100509D01*
X81099Y100618D01*
X80963Y100646D01*
X80827Y100682D01*
X80757Y100688D01*
X80705Y100699D01*
X80624Y100699D01*
X80497Y100709D01*
X76752Y100709D01*
X76734Y100707D01*
X76716Y100709D01*
X76534Y100688D01*
X76351Y100669D01*
X76334Y100664D01*
X76317Y100662D01*
X76142Y100605D01*
X75966Y100551D01*
X75951Y100543D01*
X75934Y100537D01*
X75774Y100447D01*
X75612Y100359D01*
X75599Y100348D01*
X75583Y100339D01*
X75444Y100219D01*
X75303Y100102D01*
X75292Y100088D01*
X75278Y100076D01*
X75166Y99931D01*
X75051Y99788D01*
X75043Y99772D01*
X75032Y99758D01*
X74950Y99593D01*
X74865Y99431D01*
X74860Y99414D01*
X74852Y99398D01*
X74805Y99219D01*
X74754Y99044D01*
X74752Y99026D01*
X74748Y99009D01*
X74721Y98678D01*
X74721Y94974D01*
X73976Y94229D01*
X59924Y94229D01*
X59179Y94974D01*
X59179Y111526D01*
X59924Y112271D01*
X73976Y112271D01*
X74721Y111526D01*
X74721Y107822D01*
X74723Y107804D01*
X74721Y107786D01*
X74742Y107604D01*
X74761Y107421D01*
X74766Y107404D01*
X74768Y107387D01*
X74825Y107212D01*
X74879Y107036D01*
X74887Y107021D01*
X74893Y107004D01*
X74983Y106844D01*
X75071Y106682D01*
X75082Y106669D01*
X75091Y106653D01*
X75212Y106513D01*
X75328Y106373D01*
X75342Y106362D01*
X75354Y106348D01*
X75499Y106236D01*
X75642Y106121D01*
X75658Y106113D01*
X75672Y106102D01*
X75837Y106020D01*
X75999Y105935D01*
X76016Y105930D01*
X76032Y105922D01*
X76211Y105875D01*
X76386Y105824D01*
X76404Y105822D01*
X76421Y105818D01*
X76752Y105791D01*
X80062Y105791D01*
X80185Y105803D01*
X80309Y105806D01*
X80385Y105823D01*
X80462Y105831D01*
X80581Y105867D01*
X80702Y105894D01*
X80785Y105930D01*
X80847Y105949D01*
X80911Y105983D01*
X81007Y106024D01*
X106445Y119401D01*
X106561Y119478D01*
X106683Y119548D01*
X106737Y119594D01*
X106781Y119623D01*
X106838Y119680D01*
X106936Y119762D01*
X107197Y120024D01*
X107236Y120028D01*
X107360Y120031D01*
X107436Y120048D01*
X107513Y120056D01*
X107632Y120092D01*
X107753Y120119D01*
X107836Y120155D01*
X107898Y120174D01*
X107962Y120208D01*
X107981Y120216D01*
X108333Y120107D01*
X108469Y120079D01*
X108605Y120043D01*
X108675Y120037D01*
X108727Y120026D01*
X108808Y120026D01*
X108935Y120016D01*
X162977Y120016D01*
X173991Y109002D01*
X173991Y108738D01*
X173993Y108711D01*
X173991Y108684D01*
X174013Y108510D01*
X174031Y108337D01*
X174038Y108312D01*
X174042Y108285D01*
X174098Y108119D01*
X174149Y107952D01*
X174162Y107929D01*
X174170Y107903D01*
X174257Y107752D01*
X174341Y107598D01*
X174358Y107578D01*
X174371Y107554D01*
X174586Y107301D01*
X175321Y106566D01*
X175321Y83514D01*
X174015Y82208D01*
X174010Y82201D01*
X174003Y82196D01*
X173883Y82046D01*
X173760Y81897D01*
X173756Y81889D01*
X173751Y81882D01*
X173662Y81712D01*
X173572Y81541D01*
X173569Y81532D01*
X173565Y81525D01*
X173512Y81340D01*
X173457Y81155D01*
X173456Y81146D01*
X173454Y81138D01*
X173438Y80946D01*
X173420Y80754D01*
X173421Y80745D01*
X173421Y80736D01*
X173443Y80547D01*
X173464Y80354D01*
X173467Y80345D01*
X173468Y80337D01*
X173527Y80155D01*
X173585Y79970D01*
X173590Y79962D01*
X173592Y79954D01*
X173687Y79787D01*
X173780Y79618D01*
X173786Y79611D01*
X173790Y79603D01*
X173916Y79458D01*
X174041Y79311D01*
X174048Y79305D01*
X174054Y79298D01*
X174204Y79182D01*
X174357Y79061D01*
X174365Y79057D01*
X174372Y79052D01*
X174543Y78966D01*
X174716Y78879D01*
X174724Y78876D01*
X174732Y78872D01*
X174919Y78822D01*
X175103Y78771D01*
X175112Y78770D01*
X175121Y78768D01*
X175452Y78741D01*
X180248Y78741D01*
X180257Y78742D01*
X180266Y78741D01*
X180458Y78762D01*
X180649Y78781D01*
X180658Y78783D01*
X180666Y78784D01*
X180849Y78842D01*
X181034Y78899D01*
X181042Y78903D01*
X181050Y78906D01*
X181219Y78999D01*
X181388Y79091D01*
X181395Y79096D01*
X181403Y79101D01*
X181550Y79226D01*
X181697Y79348D01*
X181703Y79355D01*
X181710Y79361D01*
X181829Y79513D01*
X181949Y79662D01*
X181954Y79670D01*
X181959Y79677D01*
X182047Y79849D01*
X182135Y80019D01*
X182137Y80028D01*
X182142Y80036D01*
X182193Y80221D01*
X182246Y80406D01*
X182247Y80415D01*
X182250Y80424D01*
X182264Y80616D01*
X182279Y80808D01*
X182278Y80816D01*
X182279Y80825D01*
X182255Y81018D01*
X182232Y81207D01*
X182230Y81216D01*
X182228Y81225D01*
X182167Y81407D01*
X182108Y81590D01*
X182103Y81598D01*
X182100Y81606D01*
X182005Y81772D01*
X181910Y81941D01*
X181904Y81948D01*
X181899Y81955D01*
X181685Y82208D01*
X180379Y83514D01*
X180379Y106566D01*
X181124Y107311D01*
X182251Y107311D01*
X182278Y107313D01*
X182305Y107311D01*
X182478Y107333D01*
X182652Y107351D01*
X182677Y107358D01*
X182704Y107362D01*
X182870Y107417D01*
X183037Y107469D01*
X183060Y107482D01*
X183086Y107490D01*
X183237Y107577D01*
X183391Y107661D01*
X183411Y107678D01*
X183435Y107691D01*
X183688Y107906D01*
X186372Y110590D01*
X186389Y110611D01*
X186410Y110629D01*
X186517Y110767D01*
X186627Y110902D01*
X186640Y110926D01*
X186656Y110947D01*
X186734Y111104D01*
X186816Y111258D01*
X186824Y111283D01*
X186836Y111307D01*
X186881Y111477D01*
X186931Y111644D01*
X186933Y111670D01*
X186940Y111696D01*
X186967Y112027D01*
X186967Y112588D01*
X189037Y114658D01*
X191963Y114658D01*
X193382Y113239D01*
X193389Y113234D01*
X193394Y113227D01*
X193544Y113106D01*
X193693Y112984D01*
X193701Y112980D01*
X193708Y112974D01*
X193878Y112886D01*
X194049Y112796D01*
X194058Y112793D01*
X194065Y112789D01*
X194250Y112736D01*
X194435Y112681D01*
X194444Y112680D01*
X194452Y112678D01*
X194643Y112662D01*
X194836Y112644D01*
X194845Y112645D01*
X194854Y112645D01*
X195043Y112667D01*
X195236Y112688D01*
X195245Y112691D01*
X195253Y112692D01*
X195435Y112751D01*
X195620Y112809D01*
X195628Y112814D01*
X195636Y112816D01*
X195803Y112911D01*
X195972Y113004D01*
X195979Y113010D01*
X195987Y113014D01*
X196132Y113139D01*
X196279Y113265D01*
X196285Y113272D01*
X196292Y113277D01*
X196408Y113428D01*
X196529Y113581D01*
X196533Y113589D01*
X196538Y113596D01*
X196623Y113766D01*
X196711Y113940D01*
X196714Y113948D01*
X196718Y113956D01*
X196768Y114142D01*
X196819Y114327D01*
X196820Y114336D01*
X196822Y114345D01*
X196849Y114676D01*
X196849Y144791D01*
X196847Y144818D01*
X196849Y144845D01*
X196827Y145018D01*
X196809Y145192D01*
X196802Y145217D01*
X196798Y145244D01*
X196743Y145410D01*
X196691Y145577D01*
X196678Y145600D01*
X196670Y145626D01*
X196583Y145777D01*
X196499Y145931D01*
X196482Y145951D01*
X196469Y145975D01*
X196254Y146228D01*
X184059Y158423D01*
X184041Y158437D01*
X184027Y158454D01*
X183886Y158565D01*
X183747Y158678D01*
X183727Y158689D01*
X183710Y158703D01*
X183549Y158783D01*
X183391Y158867D01*
X183370Y158873D01*
X183350Y158883D01*
X183177Y158931D01*
X183005Y158982D01*
X182983Y158984D01*
X182962Y158990D01*
X182784Y159002D01*
X182604Y159018D01*
X182582Y159016D01*
X182560Y159017D01*
X182383Y158994D01*
X182204Y158975D01*
X182183Y158968D01*
X182161Y158965D01*
X181845Y158864D01*
X179155Y157749D01*
X176445Y157749D01*
X173942Y158786D01*
X173784Y158944D01*
X173771Y158955D01*
X173759Y158969D01*
X173615Y159083D01*
X173473Y159199D01*
X173457Y159207D01*
X173443Y159218D01*
X173279Y159302D01*
X173117Y159388D01*
X173100Y159393D01*
X173084Y159401D01*
X172907Y159450D01*
X172731Y159502D01*
X172713Y159504D01*
X172696Y159509D01*
X172513Y159522D01*
X172330Y159539D01*
X172312Y159537D01*
X172295Y159538D01*
X172113Y159515D01*
X171930Y159495D01*
X171913Y159490D01*
X171895Y159488D01*
X171722Y159429D01*
X171546Y159374D01*
X171530Y159365D01*
X171514Y159359D01*
X171354Y159268D01*
X171194Y159179D01*
X171180Y159167D01*
X171165Y159159D01*
X170912Y158944D01*
X170251Y158283D01*
X168928Y157399D01*
X167457Y156790D01*
X167131Y156725D01*
X167131Y170100D01*
X167131Y183475D01*
X167457Y183410D01*
X168928Y182801D01*
X170251Y181917D01*
X170912Y181256D01*
X170925Y181245D01*
X170937Y181231D01*
X171081Y181118D01*
X171223Y181001D01*
X171239Y180993D01*
X171253Y180982D01*
X171416Y180899D01*
X171579Y180812D01*
X171596Y180807D01*
X171612Y180799D01*
X171789Y180750D01*
X171965Y180698D01*
X171983Y180696D01*
X172000Y180691D01*
X172183Y180678D01*
X172366Y180661D01*
X172384Y180663D01*
X172401Y180662D01*
X172584Y180685D01*
X172766Y180705D01*
X172783Y180710D01*
X172801Y180712D01*
X172975Y180771D01*
X173150Y180826D01*
X173166Y180835D01*
X173182Y180841D01*
X173342Y180932D01*
X173502Y181021D01*
X173516Y181032D01*
X173531Y181041D01*
X173784Y181256D01*
X173942Y181414D01*
X176445Y182451D01*
X179155Y182451D01*
X181658Y181414D01*
X183574Y179498D01*
X184611Y176995D01*
X184611Y165899D01*
X184613Y165872D01*
X184611Y165845D01*
X184633Y165671D01*
X184651Y165498D01*
X184658Y165473D01*
X184662Y165446D01*
X184718Y165280D01*
X184769Y165113D01*
X184782Y165090D01*
X184790Y165064D01*
X184877Y164913D01*
X184961Y164759D01*
X184978Y164739D01*
X184991Y164715D01*
X185206Y164462D01*
X199847Y149821D01*
X201931Y147737D01*
X201931Y94604D01*
X201933Y94577D01*
X201931Y94550D01*
X201953Y94377D01*
X201971Y94203D01*
X201978Y94178D01*
X201982Y94151D01*
X202037Y93985D01*
X202089Y93818D01*
X202102Y93795D01*
X202110Y93769D01*
X202197Y93618D01*
X202281Y93464D01*
X202298Y93444D01*
X202311Y93420D01*
X202526Y93167D01*
X210007Y85686D01*
X210028Y85669D01*
X210046Y85648D01*
X210184Y85541D01*
X210319Y85431D01*
X210343Y85418D01*
X210364Y85402D01*
X210521Y85324D01*
X210675Y85242D01*
X210700Y85234D01*
X210724Y85222D01*
X210894Y85177D01*
X211061Y85127D01*
X211087Y85125D01*
X211113Y85118D01*
X211444Y85091D01*
X255052Y85091D01*
X262891Y77252D01*
X262891Y74802D01*
X262893Y74784D01*
X262891Y74766D01*
X262912Y74584D01*
X262931Y74401D01*
X262936Y74384D01*
X262938Y74367D01*
X262995Y74192D01*
X263049Y74016D01*
X263057Y74001D01*
X263063Y73984D01*
X263153Y73824D01*
X263241Y73662D01*
X263252Y73649D01*
X263261Y73633D01*
X263381Y73494D01*
X263498Y73353D01*
X263512Y73342D01*
X263524Y73328D01*
X263669Y73216D01*
X263812Y73101D01*
X263828Y73093D01*
X263842Y73082D01*
X264007Y73000D01*
X264169Y72915D01*
X264186Y72910D01*
X264202Y72902D01*
X264260Y72887D01*
X265264Y71883D01*
X265278Y71872D01*
X265289Y71858D01*
X265433Y71744D01*
X265575Y71628D01*
X265591Y71620D01*
X265605Y71609D01*
X265769Y71526D01*
X265931Y71440D01*
X265948Y71435D01*
X265964Y71427D01*
X266141Y71377D01*
X266317Y71325D01*
X266335Y71323D01*
X266352Y71319D01*
X266535Y71305D01*
X266718Y71289D01*
X266736Y71290D01*
X266753Y71289D01*
X266935Y71312D01*
X267118Y71332D01*
X267135Y71337D01*
X267153Y71340D01*
X267327Y71398D01*
X267502Y71453D01*
X267518Y71462D01*
X267534Y71468D01*
X267693Y71559D01*
X267854Y71648D01*
X267868Y71660D01*
X267883Y71669D01*
X268136Y71883D01*
X269145Y72893D01*
X269264Y72929D01*
X269279Y72937D01*
X269296Y72943D01*
X269456Y73033D01*
X269618Y73121D01*
X269631Y73132D01*
X269647Y73141D01*
X269786Y73261D01*
X269927Y73378D01*
X269938Y73392D01*
X269952Y73404D01*
X270064Y73549D01*
X270179Y73692D01*
X270187Y73708D01*
X270198Y73722D01*
X270280Y73887D01*
X270365Y74049D01*
X270370Y74066D01*
X270378Y74082D01*
X270425Y74261D01*
X270476Y74436D01*
X270478Y74454D01*
X270482Y74471D01*
X270509Y74802D01*
X270509Y76986D01*
X270507Y77004D01*
X270509Y77022D01*
X270488Y77203D01*
X270469Y77387D01*
X270464Y77404D01*
X270462Y77421D01*
X270405Y77596D01*
X270351Y77772D01*
X270343Y77787D01*
X270337Y77804D01*
X270247Y77964D01*
X270159Y78126D01*
X270148Y78139D01*
X270139Y78155D01*
X270019Y78294D01*
X269902Y78435D01*
X269888Y78446D01*
X269876Y78460D01*
X269731Y78572D01*
X269588Y78687D01*
X269572Y78695D01*
X269558Y78706D01*
X269393Y78788D01*
X269231Y78873D01*
X269214Y78878D01*
X269198Y78886D01*
X269019Y78933D01*
X268844Y78984D01*
X268826Y78986D01*
X268809Y78990D01*
X268478Y79017D01*
X268412Y79017D01*
X266342Y81087D01*
X266342Y84013D01*
X268412Y86083D01*
X271338Y86083D01*
X273408Y84013D01*
X273408Y83452D01*
X273410Y83425D01*
X273408Y83398D01*
X273430Y83225D01*
X273448Y83051D01*
X273455Y83026D01*
X273459Y82999D01*
X273515Y82833D01*
X273566Y82666D01*
X273578Y82643D01*
X273587Y82617D01*
X273674Y82466D01*
X273758Y82312D01*
X273775Y82292D01*
X273788Y82269D01*
X274003Y82015D01*
X275932Y80086D01*
X275939Y80081D01*
X275944Y80074D01*
X276095Y79953D01*
X276243Y79831D01*
X276251Y79827D01*
X276258Y79822D01*
X276428Y79733D01*
X276599Y79643D01*
X276608Y79640D01*
X276615Y79636D01*
X276800Y79583D01*
X276985Y79528D01*
X276994Y79527D01*
X277002Y79525D01*
X277193Y79509D01*
X277386Y79492D01*
X277395Y79493D01*
X277404Y79492D01*
X277593Y79514D01*
X277786Y79535D01*
X277795Y79538D01*
X277803Y79539D01*
X277985Y79598D01*
X278170Y79656D01*
X278178Y79661D01*
X278186Y79664D01*
X278353Y79758D01*
X278522Y79851D01*
X278529Y79857D01*
X278537Y79861D01*
X278682Y79986D01*
X278829Y80112D01*
X278835Y80119D01*
X278842Y80125D01*
X278958Y80275D01*
X279079Y80428D01*
X279083Y80436D01*
X279088Y80443D01*
X279174Y80614D01*
X279261Y80787D01*
X279264Y80795D01*
X279268Y80803D01*
X279317Y80987D01*
X279369Y81174D01*
X279370Y81183D01*
X279372Y81192D01*
X279399Y81523D01*
X279399Y109866D01*
X279397Y109893D01*
X279399Y109920D01*
X279377Y110093D01*
X279359Y110267D01*
X279352Y110292D01*
X279348Y110319D01*
X279293Y110485D01*
X279241Y110652D01*
X279228Y110675D01*
X279220Y110701D01*
X279133Y110852D01*
X279049Y111006D01*
X279032Y111026D01*
X279019Y111050D01*
X278804Y111303D01*
X264060Y126047D01*
X264039Y126064D01*
X264021Y126085D01*
X263883Y126192D01*
X263748Y126302D01*
X263724Y126315D01*
X263703Y126331D01*
X263546Y126409D01*
X263392Y126491D01*
X263367Y126499D01*
X263343Y126511D01*
X263173Y126556D01*
X263006Y126606D01*
X262980Y126608D01*
X262954Y126615D01*
X262623Y126642D01*
X262062Y126642D01*
X259992Y128712D01*
X259992Y131638D01*
X262062Y133708D01*
X264988Y133708D01*
X267058Y131638D01*
X267058Y131077D01*
X267060Y131050D01*
X267058Y131023D01*
X267080Y130850D01*
X267098Y130676D01*
X267105Y130651D01*
X267109Y130624D01*
X267164Y130458D01*
X267216Y130291D01*
X267229Y130268D01*
X267237Y130242D01*
X267324Y130091D01*
X267408Y129937D01*
X267425Y129917D01*
X267438Y129893D01*
X267653Y129640D01*
X281012Y116281D01*
X281019Y116276D01*
X281024Y116269D01*
X281174Y116149D01*
X281323Y116026D01*
X281331Y116022D01*
X281338Y116017D01*
X281508Y115928D01*
X281679Y115838D01*
X281688Y115835D01*
X281695Y115831D01*
X281880Y115778D01*
X282065Y115723D01*
X282074Y115722D01*
X282082Y115720D01*
X282274Y115704D01*
X282466Y115687D01*
X282475Y115688D01*
X282484Y115687D01*
X282673Y115709D01*
X282866Y115730D01*
X282875Y115733D01*
X282883Y115734D01*
X283065Y115793D01*
X283250Y115851D01*
X283258Y115856D01*
X283266Y115859D01*
X283435Y115954D01*
X283602Y116046D01*
X283609Y116052D01*
X283617Y116056D01*
X283762Y116182D01*
X283909Y116307D01*
X283915Y116314D01*
X283922Y116320D01*
X284038Y116470D01*
X284159Y116623D01*
X284163Y116631D01*
X284168Y116638D01*
X284254Y116810D01*
X284341Y116982D01*
X284344Y116990D01*
X284348Y116998D01*
X284398Y117185D01*
X284449Y117370D01*
X284450Y117378D01*
X284452Y117387D01*
X284479Y117718D01*
X284479Y121067D01*
X304303Y140891D01*
X305054Y140891D01*
X305072Y140893D01*
X305090Y140891D01*
X305272Y140912D01*
X305455Y140931D01*
X305472Y140936D01*
X305489Y140938D01*
X305664Y140995D01*
X305840Y141049D01*
X305855Y141057D01*
X305872Y141063D01*
X306032Y141153D01*
X306194Y141241D01*
X306207Y141252D01*
X306223Y141261D01*
X306362Y141381D01*
X306503Y141498D01*
X306514Y141512D01*
X306528Y141524D01*
X306640Y141669D01*
X306755Y141812D01*
X306763Y141828D01*
X306774Y141842D01*
X306856Y142007D01*
X306941Y142169D01*
X306946Y142186D01*
X306954Y142202D01*
X307001Y142381D01*
X307052Y142556D01*
X307054Y142574D01*
X307058Y142591D01*
X307062Y142641D01*
X313186Y148765D01*
X321814Y148765D01*
X327915Y142664D01*
X327915Y134036D01*
X321814Y127935D01*
X313186Y127935D01*
X307296Y133825D01*
X307282Y133837D01*
X307271Y133850D01*
X307127Y133964D01*
X306985Y134080D01*
X306969Y134089D01*
X306955Y134100D01*
X306791Y134183D01*
X306629Y134269D01*
X306612Y134274D01*
X306596Y134282D01*
X306419Y134332D01*
X306243Y134384D01*
X306225Y134385D01*
X306208Y134390D01*
X306025Y134404D01*
X305842Y134420D01*
X305824Y134418D01*
X305806Y134420D01*
X305625Y134397D01*
X305442Y134377D01*
X305425Y134371D01*
X305407Y134369D01*
X305233Y134311D01*
X305058Y134255D01*
X305042Y134247D01*
X305025Y134241D01*
X304866Y134149D01*
X304706Y134060D01*
X304692Y134049D01*
X304676Y134040D01*
X304423Y133825D01*
X290156Y119558D01*
X290139Y119537D01*
X290118Y119519D01*
X290011Y119381D01*
X289901Y119246D01*
X289888Y119222D01*
X289872Y119201D01*
X289794Y119044D01*
X289712Y118890D01*
X289704Y118865D01*
X289692Y118841D01*
X289647Y118671D01*
X289597Y118504D01*
X289595Y118478D01*
X289588Y118452D01*
X289561Y118121D01*
X289561Y55463D01*
X266482Y32384D01*
X263647Y32384D01*
X263620Y32382D01*
X263593Y32384D01*
X263419Y32362D01*
X263246Y32344D01*
X263221Y32337D01*
X263194Y32333D01*
X263028Y32278D01*
X262861Y32226D01*
X262838Y32213D01*
X262812Y32205D01*
X262661Y32118D01*
X262507Y32034D01*
X262487Y32017D01*
X262463Y32004D01*
X262210Y31789D01*
X261813Y31392D01*
X258887Y31392D01*
X256817Y33462D01*
X256817Y36388D01*
X258887Y38458D01*
X261813Y38458D01*
X262155Y38116D01*
X262169Y38105D01*
X262180Y38091D01*
X262324Y37977D01*
X262467Y37861D01*
X262482Y37853D01*
X262496Y37842D01*
X262660Y37758D01*
X262822Y37672D01*
X262839Y37667D01*
X262855Y37659D01*
X263032Y37610D01*
X263208Y37557D01*
X263226Y37556D01*
X263243Y37551D01*
X263425Y37538D01*
X263609Y37521D01*
X263627Y37523D01*
X263644Y37522D01*
X263826Y37545D01*
X264009Y37564D01*
X264026Y37570D01*
X264044Y37572D01*
X264218Y37630D01*
X264393Y37686D01*
X264409Y37694D01*
X264425Y37700D01*
X264585Y37792D01*
X264746Y37881D01*
X264759Y37892D01*
X264774Y37901D01*
X265027Y38116D01*
X265096Y38184D01*
X265108Y38198D01*
X265122Y38210D01*
X265235Y38354D01*
X265351Y38496D01*
X265360Y38512D01*
X265371Y38526D01*
X265454Y38690D01*
X265540Y38852D01*
X265545Y38869D01*
X265553Y38885D01*
X265603Y39062D01*
X265655Y39237D01*
X265657Y39255D01*
X265661Y39273D01*
X265675Y39456D01*
X265691Y39638D01*
X265690Y39656D01*
X265691Y39674D01*
X265668Y39856D01*
X265648Y40039D01*
X265643Y40056D01*
X265640Y40074D01*
X265582Y40248D01*
X265527Y40423D01*
X265518Y40438D01*
X265512Y40455D01*
X265421Y40615D01*
X265332Y40775D01*
X265320Y40789D01*
X265311Y40804D01*
X265097Y41057D01*
X263167Y42987D01*
X263167Y43548D01*
X263165Y43575D01*
X263167Y43602D01*
X263145Y43775D01*
X263127Y43949D01*
X263120Y43974D01*
X263116Y44001D01*
X263061Y44167D01*
X263009Y44334D01*
X262996Y44357D01*
X262988Y44383D01*
X262901Y44534D01*
X262817Y44688D01*
X262800Y44708D01*
X262787Y44732D01*
X262572Y44985D01*
X257809Y49748D01*
X257809Y52198D01*
X257807Y52216D01*
X257809Y52234D01*
X257788Y52416D01*
X257769Y52599D01*
X257764Y52616D01*
X257762Y52633D01*
X257705Y52808D01*
X257651Y52984D01*
X257643Y52999D01*
X257637Y53016D01*
X257547Y53176D01*
X257459Y53338D01*
X257448Y53351D01*
X257439Y53367D01*
X257319Y53506D01*
X257202Y53647D01*
X257188Y53658D01*
X257176Y53672D01*
X257031Y53784D01*
X256888Y53899D01*
X256872Y53907D01*
X256858Y53918D01*
X256693Y54000D01*
X256531Y54085D01*
X256514Y54090D01*
X256498Y54098D01*
X256440Y54113D01*
X256310Y54243D01*
X256247Y54295D01*
X256190Y54354D01*
X256091Y54422D01*
X255999Y54498D01*
X255926Y54536D01*
X255859Y54583D01*
X255749Y54630D01*
X255643Y54686D01*
X255564Y54710D01*
X255489Y54742D01*
X255372Y54767D01*
X255257Y54801D01*
X255175Y54808D01*
X255095Y54825D01*
X254975Y54827D01*
X254856Y54837D01*
X254774Y54829D01*
X254692Y54829D01*
X254575Y54807D01*
X254456Y54794D01*
X254378Y54769D01*
X254297Y54754D01*
X254186Y54709D01*
X254072Y54673D01*
X254000Y54633D01*
X253924Y54602D01*
X253824Y54536D01*
X253720Y54478D01*
X253657Y54425D01*
X253589Y54379D01*
X253504Y54295D01*
X253413Y54217D01*
X253362Y54153D01*
X253304Y54095D01*
X253227Y53984D01*
X252710Y53467D01*
X252131Y53132D01*
X251485Y52959D01*
X249681Y52959D01*
X249681Y58500D01*
X249680Y58517D01*
X249681Y58535D01*
X249660Y58718D01*
X249641Y58900D01*
X249636Y58917D01*
X249634Y58935D01*
X249577Y59110D01*
X249523Y59285D01*
X249515Y59301D01*
X249509Y59318D01*
X249419Y59478D01*
X249332Y59639D01*
X249320Y59653D01*
X249311Y59668D01*
X249191Y59808D01*
X249074Y59948D01*
X249060Y59960D01*
X249048Y59973D01*
X248903Y60086D01*
X248760Y60201D01*
X248744Y60209D01*
X248730Y60220D01*
X248565Y60302D01*
X248403Y60386D01*
X248386Y60391D01*
X248370Y60399D01*
X248192Y60447D01*
X248016Y60498D01*
X247998Y60499D01*
X247981Y60504D01*
X247650Y60531D01*
X247632Y60529D01*
X247615Y60531D01*
X247614Y60531D01*
X247432Y60509D01*
X247249Y60491D01*
X247232Y60486D01*
X247214Y60484D01*
X247040Y60427D01*
X246864Y60373D01*
X246849Y60364D01*
X246832Y60359D01*
X246671Y60268D01*
X246510Y60181D01*
X246497Y60170D01*
X246481Y60161D01*
X246342Y60041D01*
X246201Y59923D01*
X246190Y59909D01*
X246176Y59898D01*
X246064Y59753D01*
X245949Y59610D01*
X245940Y59594D01*
X245930Y59580D01*
X245848Y59415D01*
X245763Y59252D01*
X245758Y59235D01*
X245750Y59219D01*
X245702Y59041D01*
X245652Y58865D01*
X245650Y58848D01*
X245646Y58830D01*
X245619Y58500D01*
X245619Y52959D01*
X243815Y52959D01*
X243169Y53132D01*
X242590Y53467D01*
X242099Y53958D01*
X242097Y53961D01*
X242020Y54052D01*
X241950Y54149D01*
X241890Y54205D01*
X241837Y54268D01*
X241743Y54342D01*
X241656Y54423D01*
X241586Y54466D01*
X241521Y54517D01*
X241414Y54571D01*
X241313Y54634D01*
X241235Y54662D01*
X241162Y54699D01*
X241047Y54732D01*
X240935Y54773D01*
X240853Y54785D01*
X240774Y54807D01*
X240655Y54816D01*
X240537Y54834D01*
X240455Y54831D01*
X240373Y54837D01*
X240254Y54822D01*
X240135Y54817D01*
X240055Y54797D01*
X239973Y54786D01*
X239860Y54748D01*
X239744Y54720D01*
X239669Y54684D01*
X239591Y54658D01*
X239488Y54599D01*
X239380Y54547D01*
X239314Y54498D01*
X239243Y54457D01*
X239126Y54359D01*
X239057Y54307D01*
X239030Y54277D01*
X238990Y54243D01*
X238855Y54107D01*
X238736Y54071D01*
X238721Y54063D01*
X238704Y54057D01*
X238544Y53967D01*
X238382Y53879D01*
X238369Y53868D01*
X238353Y53859D01*
X238214Y53739D01*
X238073Y53622D01*
X238062Y53608D01*
X238048Y53596D01*
X237936Y53451D01*
X237821Y53308D01*
X237813Y53292D01*
X237802Y53278D01*
X237719Y53112D01*
X237635Y52951D01*
X237630Y52934D01*
X237622Y52918D01*
X237575Y52739D01*
X237524Y52564D01*
X237522Y52546D01*
X237518Y52529D01*
X237491Y52198D01*
X237491Y35778D01*
X213956Y12243D01*
X212801Y11088D01*
X212796Y11081D01*
X212789Y11076D01*
X212668Y10926D01*
X212546Y10777D01*
X212542Y10769D01*
X212537Y10762D01*
X212448Y10592D01*
X212358Y10421D01*
X212355Y10412D01*
X212351Y10405D01*
X212298Y10220D01*
X212243Y10035D01*
X212242Y10026D01*
X212240Y10018D01*
X212224Y9827D01*
X212207Y9634D01*
X212208Y9625D01*
X212207Y9616D01*
X212229Y9427D01*
X212250Y9234D01*
X212253Y9225D01*
X212254Y9217D01*
X212313Y9035D01*
X212371Y8850D01*
X212376Y8842D01*
X212379Y8834D01*
X212473Y8667D01*
X212566Y8498D01*
X212572Y8491D01*
X212576Y8483D01*
X212702Y8338D01*
X212827Y8191D01*
X212834Y8185D01*
X212840Y8178D01*
X212990Y8062D01*
X213143Y7941D01*
X213151Y7937D01*
X213158Y7932D01*
X213328Y7847D01*
X213502Y7759D01*
X213510Y7756D01*
X213518Y7752D01*
X213704Y7703D01*
X213889Y7651D01*
X213898Y7650D01*
X213907Y7648D01*
X214238Y7621D01*
X372836Y7621D01*
X372863Y7623D01*
X372890Y7621D01*
X373063Y7643D01*
X373237Y7661D01*
X373262Y7668D01*
X373289Y7672D01*
X373455Y7727D01*
X373622Y7779D01*
X373645Y7792D01*
X373671Y7800D01*
X373822Y7887D01*
X373976Y7971D01*
X373996Y7988D01*
X374020Y8001D01*
X374273Y8216D01*
X391231Y25174D01*
X391242Y25188D01*
X391256Y25199D01*
X391370Y25343D01*
X391486Y25485D01*
X391494Y25501D01*
X391505Y25515D01*
X391589Y25680D01*
X391674Y25841D01*
X391680Y25858D01*
X391688Y25874D01*
X391737Y26052D01*
X391789Y26227D01*
X391791Y26245D01*
X391796Y26262D01*
X391809Y26444D01*
X391826Y26628D01*
X391824Y26646D01*
X391825Y26664D01*
X391802Y26845D01*
X391782Y27028D01*
X391777Y27045D01*
X391775Y27063D01*
X391716Y27237D01*
X391661Y27412D01*
X391652Y27428D01*
X391646Y27445D01*
X391555Y27604D01*
X391466Y27764D01*
X391454Y27778D01*
X391445Y27794D01*
X391231Y28047D01*
X388427Y30851D01*
X386841Y34678D01*
X386841Y38822D01*
X388427Y42649D01*
X391357Y45579D01*
X395184Y47165D01*
X417616Y47165D01*
X421443Y45579D01*
X424373Y42649D01*
X424686Y41895D01*
X424696Y41875D01*
X424703Y41854D01*
X424791Y41698D01*
X424876Y41540D01*
X424890Y41523D01*
X424901Y41503D01*
X425018Y41367D01*
X425132Y41229D01*
X425150Y41215D01*
X425164Y41198D01*
X425305Y41089D01*
X425445Y40976D01*
X425465Y40965D01*
X425482Y40952D01*
X425643Y40872D01*
X425802Y40789D01*
X425823Y40782D01*
X425843Y40772D01*
X426016Y40726D01*
X426188Y40676D01*
X426210Y40674D01*
X426232Y40668D01*
X426562Y40641D01*
X437038Y40641D01*
X437060Y40643D01*
X437082Y40641D01*
X437260Y40663D01*
X437438Y40681D01*
X437460Y40687D01*
X437482Y40690D01*
X437651Y40746D01*
X437823Y40799D01*
X437843Y40809D01*
X437864Y40816D01*
X438019Y40905D01*
X438177Y40991D01*
X438194Y41005D01*
X438214Y41016D01*
X438349Y41134D01*
X438486Y41248D01*
X438500Y41266D01*
X438517Y41280D01*
X438627Y41423D01*
X438739Y41562D01*
X438749Y41582D01*
X438763Y41600D01*
X438914Y41895D01*
X439227Y42649D01*
X442157Y45579D01*
X445984Y47165D01*
X468416Y47165D01*
X472243Y45579D01*
X475173Y42649D01*
X476759Y38822D01*
X476759Y34678D01*
X475173Y30851D01*
X472243Y27921D01*
X468416Y26335D01*
X445984Y26335D01*
X442157Y27921D01*
X439227Y30851D01*
X437796Y34305D01*
X437785Y34325D01*
X437778Y34346D01*
X437690Y34502D01*
X437606Y34660D01*
X437591Y34677D01*
X437580Y34697D01*
X437464Y34832D01*
X437349Y34971D01*
X437332Y34985D01*
X437317Y35002D01*
X437176Y35111D01*
X437037Y35224D01*
X437017Y35235D01*
X436999Y35248D01*
X436838Y35328D01*
X436680Y35411D01*
X436659Y35418D01*
X436639Y35428D01*
X436465Y35474D01*
X436294Y35524D01*
X436271Y35526D01*
X436250Y35532D01*
X435919Y35559D01*
X427681Y35559D01*
X427659Y35557D01*
X427636Y35559D01*
X427459Y35537D01*
X427280Y35519D01*
X427259Y35513D01*
X427237Y35510D01*
X427067Y35454D01*
X426895Y35401D01*
X426876Y35391D01*
X426855Y35384D01*
X426699Y35295D01*
X426541Y35209D01*
X426524Y35195D01*
X426505Y35184D01*
X426369Y35066D01*
X426232Y34952D01*
X426218Y34934D01*
X426201Y34920D01*
X426092Y34778D01*
X425980Y34638D01*
X425969Y34618D01*
X425956Y34600D01*
X425804Y34305D01*
X424373Y30851D01*
X421443Y27921D01*
X417616Y26335D01*
X400420Y26335D01*
X400393Y26333D01*
X400366Y26335D01*
X400193Y26313D01*
X400019Y26295D01*
X399994Y26288D01*
X399967Y26284D01*
X399801Y26229D01*
X399634Y26177D01*
X399611Y26164D01*
X399585Y26156D01*
X399434Y26069D01*
X399280Y25985D01*
X399260Y25968D01*
X399236Y25955D01*
X398983Y25740D01*
X378711Y5468D01*
X378706Y5461D01*
X378699Y5456D01*
X378579Y5306D01*
X378456Y5157D01*
X378452Y5149D01*
X378447Y5142D01*
X378358Y4971D01*
X378268Y4801D01*
X378265Y4793D01*
X378261Y4785D01*
X378208Y4599D01*
X378153Y4415D01*
X378152Y4406D01*
X378150Y4398D01*
X378134Y4206D01*
X378117Y4014D01*
X378118Y4005D01*
X378117Y3996D01*
X378139Y3807D01*
X378160Y3614D01*
X378163Y3605D01*
X378164Y3597D01*
X378223Y3414D01*
X378281Y3230D01*
X378286Y3222D01*
X378289Y3214D01*
X378384Y3045D01*
X378476Y2878D01*
X378482Y2871D01*
X378486Y2863D01*
X378612Y2717D01*
X378737Y2571D01*
X378744Y2565D01*
X378750Y2558D01*
X378901Y2441D01*
X379053Y2321D01*
X379061Y2317D01*
X379068Y2312D01*
X379240Y2226D01*
X379412Y2139D01*
X379420Y2136D01*
X379428Y2132D01*
X379615Y2082D01*
X379800Y2031D01*
X379808Y2030D01*
X379817Y2028D01*
X380148Y2001D01*
X477252Y2001D01*
X477279Y2003D01*
X477306Y2001D01*
X477479Y2023D01*
X477653Y2041D01*
X477678Y2048D01*
X477705Y2052D01*
X477871Y2107D01*
X478038Y2159D01*
X478061Y2172D01*
X478087Y2180D01*
X478238Y2267D01*
X478392Y2351D01*
X478412Y2368D01*
X478436Y2381D01*
X478689Y2596D01*
X478856Y2763D01*
X480000Y2763D01*
X480066Y2769D01*
X480159Y2769D01*
X482538Y2956D01*
X482610Y2969D01*
X482684Y2973D01*
X482848Y3012D01*
X482934Y3027D01*
X482965Y3040D01*
X483006Y3049D01*
X487531Y4519D01*
X487671Y4581D01*
X487814Y4636D01*
X487861Y4664D01*
X487900Y4681D01*
X487970Y4731D01*
X488097Y4808D01*
X491946Y7604D01*
X492060Y7706D01*
X492179Y7802D01*
X492215Y7844D01*
X492247Y7872D01*
X492299Y7941D01*
X492396Y8054D01*
X495192Y11903D01*
X495269Y12035D01*
X495353Y12163D01*
X495374Y12214D01*
X495395Y12250D01*
X495423Y12332D01*
X495481Y12469D01*
X496951Y16994D01*
X496966Y17065D01*
X496991Y17134D01*
X497018Y17302D01*
X497036Y17387D01*
X497037Y17420D01*
X497044Y17462D01*
X497231Y19841D01*
X497230Y19907D01*
X497237Y20000D01*
X497237Y21144D01*
X497404Y21311D01*
X497421Y21332D01*
X497442Y21350D01*
X497549Y21488D01*
X497659Y21623D01*
X497672Y21647D01*
X497688Y21668D01*
X497766Y21825D01*
X497848Y21979D01*
X497856Y22004D01*
X497868Y22028D01*
X497913Y22198D01*
X497963Y22365D01*
X497965Y22391D01*
X497972Y22417D01*
X497999Y22748D01*
X497999Y177252D01*
X497997Y177279D01*
X497999Y177306D01*
X497977Y177479D01*
X497959Y177653D01*
X497952Y177678D01*
X497948Y177705D01*
X497893Y177871D01*
X497841Y178038D01*
X497828Y178061D01*
X497820Y178087D01*
X497733Y178238D01*
X497649Y178392D01*
X497632Y178412D01*
X497619Y178436D01*
X497404Y178689D01*
X497237Y178856D01*
X497237Y180000D01*
X497231Y180066D01*
X497231Y180159D01*
X497044Y182538D01*
X497031Y182610D01*
X497027Y182684D01*
X496988Y182848D01*
X496973Y182934D01*
X496960Y182965D01*
X496951Y183006D01*
X495481Y187531D01*
X495439Y187625D01*
X495417Y187693D01*
X495397Y187729D01*
X495364Y187814D01*
X495336Y187861D01*
X495319Y187900D01*
X495269Y187970D01*
X495192Y188097D01*
X492396Y191946D01*
X492294Y192060D01*
X492198Y192179D01*
X492156Y192215D01*
X492128Y192247D01*
X492059Y192299D01*
X491946Y192396D01*
X488097Y195192D01*
X487965Y195269D01*
X487837Y195353D01*
X487786Y195374D01*
X487750Y195395D01*
X487668Y195423D01*
X487531Y195481D01*
X483006Y196951D01*
X482935Y196966D01*
X482866Y196991D01*
X482698Y197018D01*
X482613Y197036D01*
X482580Y197037D01*
X482538Y197044D01*
X480159Y197231D01*
X480093Y197230D01*
X480000Y197237D01*
X478856Y197237D01*
X478689Y197404D01*
X478668Y197421D01*
X478650Y197442D01*
X478512Y197549D01*
X478377Y197659D01*
X478353Y197672D01*
X478332Y197688D01*
X478175Y197766D01*
X478021Y197848D01*
X477996Y197856D01*
X477972Y197868D01*
X477802Y197913D01*
X477635Y197963D01*
X477609Y197965D01*
X477583Y197972D01*
X477252Y197999D01*
X22748Y197999D01*
X22721Y197997D01*
X22694Y197999D01*
X22521Y197977D01*
X22347Y197959D01*
X22322Y197952D01*
X22295Y197948D01*
X22129Y197893D01*
X21962Y197841D01*
X21939Y197828D01*
X21913Y197820D01*
X21762Y197733D01*
X21608Y197649D01*
X21588Y197632D01*
X21564Y197619D01*
X21311Y197404D01*
X21144Y197237D01*
X20000Y197237D01*
X19934Y197231D01*
X19841Y197231D01*
X17462Y197044D01*
X17390Y197031D01*
X17316Y197027D01*
X17168Y196992D01*
X17163Y196991D01*
X17153Y196988D01*
X17152Y196988D01*
X17066Y196973D01*
X17035Y196960D01*
X16994Y196951D01*
X12469Y195481D01*
X12329Y195419D01*
X12186Y195364D01*
X12139Y195336D01*
X12100Y195319D01*
X12030Y195269D01*
X11903Y195192D01*
X8054Y192396D01*
X7940Y192294D01*
X7821Y192198D01*
X7785Y192156D01*
X7753Y192128D01*
X7701Y192059D01*
X7604Y191946D01*
X4808Y188097D01*
X4746Y187991D01*
X4741Y187985D01*
X4730Y187965D01*
X4647Y187837D01*
X4626Y187786D01*
X4605Y187750D01*
X4577Y187670D01*
X4555Y187628D01*
X4546Y187594D01*
X4519Y187531D01*
X3049Y183006D01*
X3034Y182935D01*
X3009Y182866D01*
X2982Y182698D01*
X2964Y182613D01*
X2963Y182580D01*
X2956Y182538D01*
X2769Y180159D01*
X2770Y180093D01*
X2763Y180000D01*
X2763Y178856D01*
X2596Y178689D01*
X2579Y178668D01*
X2558Y178650D01*
X2451Y178512D01*
X2341Y178377D01*
X2328Y178353D01*
X2312Y178332D01*
X2234Y178175D01*
X2152Y178021D01*
X2144Y177996D01*
X2132Y177972D01*
X2087Y177802D01*
X2037Y177635D01*
X2035Y177609D01*
X2028Y177583D01*
X2001Y177252D01*
X2001Y22748D01*
X2003Y22721D01*
X2001Y22694D01*
X2023Y22521D01*
X2041Y22347D01*
X2048Y22322D01*
X2052Y22295D01*
X2107Y22129D01*
X2159Y21962D01*
X2172Y21939D01*
X2180Y21913D01*
X2267Y21762D01*
X2351Y21608D01*
X2368Y21588D01*
X2381Y21564D01*
X2596Y21311D01*
X2763Y21144D01*
X2763Y20000D01*
X2769Y19934D01*
X2769Y19841D01*
X2956Y17462D01*
X2969Y17390D01*
X2973Y17316D01*
X3012Y17152D01*
X3027Y17066D01*
X3040Y17035D01*
X3049Y16994D01*
X4519Y12469D01*
X4581Y12329D01*
X4636Y12186D01*
X4664Y12139D01*
X4681Y12100D01*
X4731Y12030D01*
X4808Y11903D01*
X7604Y8054D01*
X7706Y7940D01*
X7802Y7821D01*
X7844Y7785D01*
X7872Y7753D01*
X7941Y7701D01*
X8054Y7604D01*
X11903Y4808D01*
X12035Y4731D01*
X12163Y4647D01*
X12214Y4626D01*
X12250Y4605D01*
X12332Y4577D01*
X12469Y4519D01*
X16994Y3049D01*
X17065Y3034D01*
X17134Y3009D01*
X17302Y2982D01*
X17387Y2964D01*
X17420Y2963D01*
X17462Y2956D01*
X19841Y2769D01*
X19907Y2770D01*
X20000Y2763D01*
X21144Y2763D01*
X21311Y2596D01*
X21318Y2590D01*
X21319Y2589D01*
X21328Y2582D01*
X21332Y2579D01*
X21350Y2558D01*
X21488Y2451D01*
X21623Y2341D01*
X21647Y2328D01*
X21668Y2312D01*
X21825Y2234D01*
X21979Y2152D01*
X22004Y2144D01*
X22028Y2132D01*
X22198Y2087D01*
X22365Y2037D01*
X22391Y2035D01*
X22417Y2028D01*
X22748Y2001D01*
X138727Y2001D01*
X138736Y2002D01*
G37*
%LPC*%
G36*
X457058Y140856D02*
X457058Y140856D01*
X457040Y140858D01*
X457023Y140862D01*
X456692Y140889D01*
X436628Y140889D01*
X436659Y141086D01*
X437227Y142836D01*
X438062Y144474D01*
X439143Y145962D01*
X440444Y147263D01*
X441932Y148344D01*
X443570Y149179D01*
X445310Y149744D01*
X445392Y149780D01*
X445476Y149806D01*
X445576Y149860D01*
X445679Y149906D01*
X445752Y149957D01*
X445830Y149999D01*
X445916Y150072D01*
X446009Y150137D01*
X446070Y150201D01*
X446138Y150259D01*
X446208Y150347D01*
X446286Y150429D01*
X446334Y150504D01*
X446389Y150573D01*
X446440Y150674D01*
X446501Y150770D01*
X446532Y150853D01*
X446573Y150931D01*
X446603Y151040D01*
X446644Y151146D01*
X446658Y151234D01*
X446682Y151319D01*
X446691Y151431D01*
X446710Y151543D01*
X446707Y151632D01*
X446714Y151720D01*
X446700Y151832D01*
X446696Y151945D01*
X446676Y152032D01*
X446665Y152120D01*
X446629Y152227D01*
X446603Y152337D01*
X446566Y152418D01*
X446538Y152502D01*
X446482Y152600D01*
X446435Y152703D01*
X446383Y152775D01*
X446339Y152852D01*
X446265Y152937D01*
X446198Y153028D01*
X446133Y153088D01*
X446074Y153155D01*
X445985Y153224D01*
X445902Y153301D01*
X445826Y153347D01*
X445755Y153401D01*
X445630Y153465D01*
X445557Y153509D01*
X445514Y153525D01*
X445460Y153552D01*
X442157Y154921D01*
X439227Y157851D01*
X437796Y161305D01*
X437785Y161325D01*
X437778Y161346D01*
X437690Y161502D01*
X437606Y161660D01*
X437591Y161677D01*
X437580Y161697D01*
X437464Y161832D01*
X437349Y161971D01*
X437332Y161985D01*
X437317Y162002D01*
X437176Y162111D01*
X437037Y162224D01*
X437017Y162235D01*
X436999Y162248D01*
X436838Y162328D01*
X436680Y162411D01*
X436659Y162418D01*
X436639Y162428D01*
X436465Y162474D01*
X436294Y162524D01*
X436271Y162526D01*
X436250Y162532D01*
X435919Y162559D01*
X427681Y162559D01*
X427659Y162557D01*
X427636Y162559D01*
X427459Y162537D01*
X427280Y162519D01*
X427259Y162513D01*
X427237Y162510D01*
X427067Y162454D01*
X426895Y162401D01*
X426876Y162391D01*
X426855Y162384D01*
X426699Y162295D01*
X426541Y162209D01*
X426524Y162195D01*
X426505Y162184D01*
X426369Y162066D01*
X426232Y161952D01*
X426218Y161934D01*
X426201Y161920D01*
X426092Y161778D01*
X425980Y161638D01*
X425969Y161618D01*
X425956Y161600D01*
X425804Y161305D01*
X424373Y157851D01*
X421443Y154921D01*
X418140Y153552D01*
X418062Y153511D01*
X417979Y153478D01*
X417885Y153416D01*
X417785Y153362D01*
X417717Y153306D01*
X417642Y153257D01*
X417562Y153178D01*
X417475Y153106D01*
X417419Y153037D01*
X417355Y152975D01*
X417292Y152881D01*
X417221Y152793D01*
X417180Y152715D01*
X417130Y152641D01*
X417086Y152537D01*
X417034Y152437D01*
X417009Y152352D01*
X416975Y152270D01*
X416953Y152159D01*
X416921Y152050D01*
X416913Y151962D01*
X416896Y151875D01*
X416896Y151762D01*
X416886Y151649D01*
X416896Y151561D01*
X416896Y151472D01*
X416919Y151361D01*
X416931Y151249D01*
X416958Y151165D01*
X416976Y151078D01*
X417020Y150973D01*
X417054Y150866D01*
X417098Y150788D01*
X417132Y150706D01*
X417196Y150613D01*
X417251Y150514D01*
X417309Y150447D01*
X417358Y150373D01*
X417439Y150294D01*
X417513Y150208D01*
X417583Y150154D01*
X417646Y150092D01*
X417741Y150030D01*
X417830Y149960D01*
X417909Y149920D01*
X417983Y149872D01*
X418114Y149817D01*
X418189Y149779D01*
X418234Y149767D01*
X418290Y149744D01*
X420030Y149179D01*
X421668Y148344D01*
X423156Y147263D01*
X424457Y145962D01*
X425538Y144474D01*
X426373Y142836D01*
X426941Y141086D01*
X426972Y140889D01*
X406908Y140889D01*
X406890Y140887D01*
X406873Y140889D01*
X406690Y140868D01*
X406508Y140849D01*
X406491Y140844D01*
X406473Y140842D01*
X406395Y140817D01*
X406258Y140856D01*
X406240Y140858D01*
X406223Y140862D01*
X405892Y140889D01*
X385828Y140889D01*
X385859Y141086D01*
X386427Y142836D01*
X387262Y144474D01*
X388343Y145962D01*
X389644Y147263D01*
X391132Y148344D01*
X392770Y149179D01*
X394510Y149744D01*
X394592Y149780D01*
X394676Y149806D01*
X394776Y149860D01*
X394879Y149906D01*
X394952Y149957D01*
X395030Y149999D01*
X395116Y150072D01*
X395209Y150137D01*
X395270Y150201D01*
X395338Y150259D01*
X395408Y150347D01*
X395486Y150429D01*
X395534Y150504D01*
X395589Y150573D01*
X395640Y150674D01*
X395701Y150770D01*
X395732Y150853D01*
X395773Y150931D01*
X395803Y151040D01*
X395844Y151146D01*
X395858Y151234D01*
X395882Y151319D01*
X395891Y151431D01*
X395910Y151543D01*
X395907Y151632D01*
X395914Y151720D01*
X395900Y151832D01*
X395896Y151945D01*
X395876Y152032D01*
X395865Y152120D01*
X395829Y152227D01*
X395803Y152337D01*
X395766Y152418D01*
X395738Y152502D01*
X395682Y152600D01*
X395635Y152703D01*
X395583Y152775D01*
X395539Y152852D01*
X395465Y152937D01*
X395398Y153028D01*
X395333Y153088D01*
X395274Y153155D01*
X395185Y153224D01*
X395102Y153301D01*
X395026Y153347D01*
X394955Y153401D01*
X394830Y153465D01*
X394757Y153509D01*
X394714Y153525D01*
X394660Y153552D01*
X391357Y154921D01*
X388427Y157851D01*
X386996Y161305D01*
X386985Y161325D01*
X386978Y161346D01*
X386890Y161502D01*
X386806Y161660D01*
X386791Y161677D01*
X386780Y161697D01*
X386664Y161832D01*
X386549Y161971D01*
X386532Y161985D01*
X386517Y162002D01*
X386376Y162111D01*
X386237Y162224D01*
X386217Y162235D01*
X386199Y162248D01*
X386038Y162328D01*
X385880Y162411D01*
X385859Y162418D01*
X385839Y162428D01*
X385665Y162474D01*
X385494Y162524D01*
X385471Y162526D01*
X385450Y162532D01*
X385119Y162559D01*
X355346Y162559D01*
X355328Y162557D01*
X355310Y162559D01*
X355128Y162538D01*
X354945Y162519D01*
X354928Y162514D01*
X354911Y162512D01*
X354736Y162455D01*
X354560Y162401D01*
X354545Y162393D01*
X354528Y162387D01*
X354368Y162297D01*
X354206Y162209D01*
X354193Y162198D01*
X354177Y162189D01*
X354038Y162069D01*
X353897Y161952D01*
X353886Y161938D01*
X353872Y161926D01*
X353760Y161781D01*
X353645Y161638D01*
X353637Y161622D01*
X353626Y161608D01*
X353544Y161443D01*
X353459Y161281D01*
X353454Y161264D01*
X353446Y161248D01*
X353399Y161069D01*
X353348Y160894D01*
X353346Y160876D01*
X353342Y160859D01*
X353315Y160528D01*
X353315Y159436D01*
X347214Y153335D01*
X338586Y153335D01*
X332485Y159436D01*
X332485Y168064D01*
X338586Y174165D01*
X347214Y174165D01*
X353143Y168236D01*
X353164Y168219D01*
X353181Y168198D01*
X353319Y168091D01*
X353454Y167981D01*
X353478Y167968D01*
X353499Y167952D01*
X353656Y167874D01*
X353810Y167792D01*
X353836Y167784D01*
X353860Y167772D01*
X354029Y167727D01*
X354196Y167677D01*
X354223Y167675D01*
X354249Y167668D01*
X354579Y167641D01*
X386238Y167641D01*
X386260Y167643D01*
X386282Y167641D01*
X386460Y167663D01*
X386638Y167681D01*
X386660Y167687D01*
X386682Y167690D01*
X386851Y167746D01*
X387023Y167799D01*
X387043Y167809D01*
X387064Y167816D01*
X387219Y167905D01*
X387377Y167991D01*
X387394Y168005D01*
X387414Y168016D01*
X387549Y168134D01*
X387686Y168248D01*
X387700Y168266D01*
X387717Y168280D01*
X387827Y168423D01*
X387939Y168562D01*
X387949Y168582D01*
X387963Y168600D01*
X388114Y168895D01*
X388427Y169649D01*
X391357Y172579D01*
X395184Y174165D01*
X417616Y174165D01*
X421443Y172579D01*
X424373Y169649D01*
X424686Y168895D01*
X424696Y168875D01*
X424703Y168854D01*
X424791Y168698D01*
X424876Y168540D01*
X424890Y168523D01*
X424901Y168503D01*
X425018Y168367D01*
X425132Y168229D01*
X425150Y168215D01*
X425164Y168198D01*
X425305Y168089D01*
X425445Y167976D01*
X425465Y167965D01*
X425482Y167952D01*
X425643Y167872D01*
X425802Y167789D01*
X425823Y167782D01*
X425843Y167772D01*
X426016Y167726D01*
X426188Y167676D01*
X426210Y167674D01*
X426232Y167668D01*
X426562Y167641D01*
X437038Y167641D01*
X437060Y167643D01*
X437082Y167641D01*
X437260Y167663D01*
X437438Y167681D01*
X437460Y167687D01*
X437482Y167690D01*
X437651Y167746D01*
X437823Y167799D01*
X437843Y167809D01*
X437864Y167816D01*
X438019Y167905D01*
X438177Y167991D01*
X438194Y168005D01*
X438214Y168016D01*
X438349Y168134D01*
X438486Y168248D01*
X438500Y168266D01*
X438517Y168280D01*
X438627Y168423D01*
X438739Y168562D01*
X438749Y168582D01*
X438763Y168600D01*
X438914Y168895D01*
X439227Y169649D01*
X442157Y172579D01*
X445984Y174165D01*
X468416Y174165D01*
X472243Y172579D01*
X475173Y169649D01*
X476759Y165822D01*
X476759Y161678D01*
X475173Y157851D01*
X472243Y154921D01*
X468940Y153552D01*
X468862Y153511D01*
X468779Y153478D01*
X468685Y153416D01*
X468585Y153362D01*
X468517Y153306D01*
X468442Y153257D01*
X468362Y153178D01*
X468275Y153106D01*
X468219Y153037D01*
X468155Y152975D01*
X468092Y152881D01*
X468021Y152793D01*
X467980Y152715D01*
X467930Y152641D01*
X467886Y152537D01*
X467834Y152437D01*
X467809Y152352D01*
X467775Y152270D01*
X467753Y152159D01*
X467721Y152050D01*
X467713Y151962D01*
X467696Y151875D01*
X467696Y151762D01*
X467686Y151649D01*
X467696Y151561D01*
X467696Y151472D01*
X467719Y151361D01*
X467731Y151249D01*
X467758Y151165D01*
X467776Y151078D01*
X467820Y150973D01*
X467854Y150866D01*
X467898Y150788D01*
X467932Y150706D01*
X467996Y150613D01*
X468051Y150514D01*
X468109Y150447D01*
X468158Y150373D01*
X468239Y150294D01*
X468313Y150208D01*
X468383Y150154D01*
X468446Y150092D01*
X468541Y150030D01*
X468630Y149960D01*
X468709Y149920D01*
X468783Y149872D01*
X468914Y149817D01*
X468989Y149779D01*
X469034Y149767D01*
X469090Y149744D01*
X470830Y149179D01*
X472468Y148344D01*
X473956Y147263D01*
X475257Y145962D01*
X476338Y144474D01*
X477173Y142836D01*
X477741Y141086D01*
X477772Y140889D01*
X457708Y140889D01*
X457690Y140887D01*
X457673Y140889D01*
X457490Y140868D01*
X457308Y140849D01*
X457291Y140844D01*
X457273Y140842D01*
X457195Y140817D01*
X457058Y140856D01*
G37*
%LPD*%
G36*
X208953Y15243D02*
X208953Y15243D01*
X208980Y15241D01*
X209153Y15263D01*
X209327Y15281D01*
X209352Y15288D01*
X209379Y15292D01*
X209545Y15347D01*
X209712Y15399D01*
X209735Y15412D01*
X209761Y15420D01*
X209912Y15507D01*
X210066Y15591D01*
X210086Y15608D01*
X210110Y15621D01*
X210363Y15836D01*
X231814Y37287D01*
X231831Y37308D01*
X231852Y37326D01*
X231959Y37464D01*
X232069Y37599D01*
X232082Y37623D01*
X232098Y37644D01*
X232176Y37801D01*
X232258Y37955D01*
X232266Y37980D01*
X232278Y38004D01*
X232323Y38174D01*
X232373Y38341D01*
X232375Y38367D01*
X232382Y38393D01*
X232409Y38724D01*
X232409Y49392D01*
X232408Y49401D01*
X232409Y49410D01*
X232388Y49602D01*
X232369Y49793D01*
X232367Y49801D01*
X232366Y49810D01*
X232308Y49994D01*
X232251Y50178D01*
X232247Y50186D01*
X232244Y50194D01*
X232151Y50362D01*
X232059Y50532D01*
X232054Y50539D01*
X232049Y50547D01*
X231924Y50694D01*
X231802Y50841D01*
X231795Y50847D01*
X231789Y50854D01*
X231637Y50974D01*
X231488Y51093D01*
X231480Y51098D01*
X231473Y51103D01*
X231300Y51191D01*
X231131Y51279D01*
X231122Y51281D01*
X231114Y51285D01*
X230929Y51337D01*
X230744Y51390D01*
X230735Y51391D01*
X230726Y51393D01*
X230534Y51408D01*
X230342Y51423D01*
X230334Y51422D01*
X230325Y51423D01*
X230133Y51399D01*
X229943Y51376D01*
X229934Y51374D01*
X229925Y51372D01*
X229743Y51311D01*
X229560Y51251D01*
X229552Y51247D01*
X229544Y51244D01*
X229376Y51148D01*
X229209Y51054D01*
X229202Y51048D01*
X229195Y51043D01*
X228942Y50829D01*
X228310Y50197D01*
X227731Y49862D01*
X227085Y49689D01*
X224281Y49689D01*
X224281Y55730D01*
X224280Y55747D01*
X224281Y55765D01*
X224260Y55948D01*
X224241Y56130D01*
X224236Y56147D01*
X224234Y56165D01*
X224177Y56340D01*
X224123Y56515D01*
X224115Y56531D01*
X224109Y56548D01*
X224019Y56708D01*
X223932Y56869D01*
X223920Y56883D01*
X223911Y56898D01*
X223791Y57038D01*
X223674Y57178D01*
X223674Y57179D01*
X223673Y57179D01*
X223660Y57190D01*
X223648Y57203D01*
X223648Y57204D01*
X223503Y57316D01*
X223360Y57431D01*
X223344Y57440D01*
X223330Y57450D01*
X223165Y57532D01*
X223002Y57617D01*
X222985Y57622D01*
X222969Y57630D01*
X222791Y57678D01*
X222615Y57728D01*
X222598Y57730D01*
X222580Y57734D01*
X222250Y57761D01*
X209550Y57761D01*
X202509Y57761D01*
X202509Y59565D01*
X202682Y60211D01*
X203017Y60790D01*
X203490Y61263D01*
X203562Y61305D01*
X203629Y61353D01*
X203701Y61392D01*
X203792Y61470D01*
X203889Y61540D01*
X203945Y61600D01*
X204008Y61653D01*
X204082Y61747D01*
X204163Y61834D01*
X204206Y61904D01*
X204257Y61969D01*
X204311Y62075D01*
X204374Y62177D01*
X204402Y62255D01*
X204440Y62328D01*
X204472Y62443D01*
X204513Y62555D01*
X204526Y62637D01*
X204548Y62716D01*
X204556Y62835D01*
X204575Y62953D01*
X204571Y63035D01*
X204577Y63117D01*
X204562Y63236D01*
X204557Y63355D01*
X204537Y63435D01*
X204527Y63517D01*
X204489Y63630D01*
X204460Y63746D01*
X204425Y63820D01*
X204398Y63898D01*
X204339Y64002D01*
X204288Y64110D01*
X204238Y64176D01*
X204197Y64247D01*
X204099Y64364D01*
X204047Y64433D01*
X204017Y64460D01*
X203983Y64500D01*
X203779Y64704D01*
X203779Y70822D01*
X203778Y70831D01*
X203779Y70840D01*
X203758Y71031D01*
X203739Y71223D01*
X203737Y71231D01*
X203736Y71240D01*
X203678Y71424D01*
X203621Y71608D01*
X203617Y71616D01*
X203614Y71624D01*
X203521Y71793D01*
X203429Y71962D01*
X203424Y71969D01*
X203419Y71977D01*
X203294Y72124D01*
X203172Y72271D01*
X203165Y72277D01*
X203159Y72284D01*
X203008Y72403D01*
X202858Y72523D01*
X202850Y72528D01*
X202843Y72533D01*
X202670Y72621D01*
X202501Y72709D01*
X202492Y72711D01*
X202484Y72715D01*
X202298Y72767D01*
X202114Y72820D01*
X202105Y72821D01*
X202096Y72823D01*
X201904Y72838D01*
X201712Y72853D01*
X201704Y72852D01*
X201695Y72853D01*
X201503Y72829D01*
X201313Y72806D01*
X201304Y72804D01*
X201295Y72802D01*
X201114Y72741D01*
X200930Y72681D01*
X200922Y72677D01*
X200914Y72674D01*
X200748Y72579D01*
X200579Y72484D01*
X200572Y72478D01*
X200565Y72473D01*
X200312Y72259D01*
X199848Y71795D01*
X199847Y71794D01*
X187286Y59233D01*
X187269Y59212D01*
X187248Y59194D01*
X187141Y59056D01*
X187031Y58921D01*
X187018Y58897D01*
X187002Y58876D01*
X186924Y58719D01*
X186842Y58565D01*
X186834Y58540D01*
X186822Y58516D01*
X186777Y58346D01*
X186727Y58179D01*
X186725Y58153D01*
X186718Y58127D01*
X186691Y57796D01*
X186691Y45558D01*
X186693Y45531D01*
X186691Y45504D01*
X186713Y45331D01*
X186731Y45157D01*
X186738Y45132D01*
X186742Y45105D01*
X186797Y44939D01*
X186849Y44772D01*
X186862Y44749D01*
X186870Y44723D01*
X186957Y44572D01*
X187041Y44418D01*
X187058Y44398D01*
X187071Y44374D01*
X187286Y44121D01*
X187921Y43486D01*
X187921Y20434D01*
X187176Y19689D01*
X181124Y19689D01*
X180379Y20434D01*
X180379Y43486D01*
X181014Y44121D01*
X181031Y44142D01*
X181052Y44160D01*
X181159Y44298D01*
X181269Y44433D01*
X181282Y44457D01*
X181298Y44478D01*
X181376Y44635D01*
X181458Y44789D01*
X181466Y44814D01*
X181478Y44838D01*
X181523Y45008D01*
X181573Y45175D01*
X181575Y45201D01*
X181582Y45227D01*
X181609Y45558D01*
X181609Y60742D01*
X190067Y69200D01*
X190072Y69207D01*
X190079Y69212D01*
X190199Y69362D01*
X190322Y69511D01*
X190326Y69519D01*
X190331Y69526D01*
X190420Y69696D01*
X190510Y69867D01*
X190513Y69876D01*
X190517Y69883D01*
X190570Y70068D01*
X190625Y70253D01*
X190626Y70262D01*
X190628Y70270D01*
X190644Y70459D01*
X190661Y70654D01*
X190660Y70663D01*
X190661Y70672D01*
X190639Y70860D01*
X190618Y71054D01*
X190615Y71063D01*
X190614Y71071D01*
X190555Y71252D01*
X190497Y71438D01*
X190492Y71446D01*
X190489Y71454D01*
X190394Y71623D01*
X190302Y71790D01*
X190296Y71797D01*
X190292Y71805D01*
X190166Y71951D01*
X190041Y72097D01*
X190034Y72103D01*
X190028Y72110D01*
X189878Y72227D01*
X189725Y72347D01*
X189717Y72351D01*
X189710Y72356D01*
X189538Y72442D01*
X189366Y72529D01*
X189358Y72532D01*
X189350Y72536D01*
X189163Y72586D01*
X188978Y72637D01*
X188970Y72638D01*
X188961Y72640D01*
X188630Y72667D01*
X185862Y72667D01*
X185465Y73064D01*
X185444Y73081D01*
X185426Y73102D01*
X185289Y73209D01*
X185153Y73319D01*
X185129Y73332D01*
X185108Y73348D01*
X184951Y73426D01*
X184797Y73508D01*
X184772Y73516D01*
X184748Y73528D01*
X184578Y73573D01*
X184412Y73623D01*
X184385Y73625D01*
X184359Y73632D01*
X184028Y73659D01*
X177014Y73659D01*
X176996Y73657D01*
X176978Y73659D01*
X176796Y73638D01*
X176613Y73619D01*
X176596Y73614D01*
X176579Y73612D01*
X176404Y73555D01*
X176228Y73501D01*
X176213Y73493D01*
X176196Y73487D01*
X176036Y73397D01*
X175874Y73309D01*
X175861Y73298D01*
X175845Y73289D01*
X175706Y73169D01*
X175565Y73052D01*
X175554Y73038D01*
X175540Y73026D01*
X175428Y72881D01*
X175313Y72738D01*
X175305Y72722D01*
X175294Y72708D01*
X175212Y72543D01*
X175127Y72381D01*
X175122Y72364D01*
X175114Y72348D01*
X175067Y72169D01*
X175016Y71994D01*
X175014Y71976D01*
X175010Y71959D01*
X174983Y71628D01*
X174983Y68387D01*
X172913Y66317D01*
X172352Y66317D01*
X172325Y66315D01*
X172298Y66317D01*
X172125Y66295D01*
X171951Y66277D01*
X171926Y66270D01*
X171899Y66266D01*
X171733Y66211D01*
X171566Y66159D01*
X171543Y66146D01*
X171517Y66138D01*
X171366Y66051D01*
X171212Y65967D01*
X171192Y65950D01*
X171168Y65937D01*
X170915Y65722D01*
X161886Y56693D01*
X161869Y56672D01*
X161848Y56654D01*
X161741Y56516D01*
X161631Y56381D01*
X161618Y56357D01*
X161602Y56336D01*
X161524Y56179D01*
X161442Y56025D01*
X161434Y56000D01*
X161422Y55976D01*
X161377Y55806D01*
X161327Y55639D01*
X161325Y55613D01*
X161318Y55587D01*
X161291Y55256D01*
X161291Y45558D01*
X161293Y45531D01*
X161291Y45504D01*
X161313Y45331D01*
X161331Y45157D01*
X161338Y45132D01*
X161342Y45105D01*
X161397Y44939D01*
X161449Y44772D01*
X161462Y44749D01*
X161470Y44723D01*
X161557Y44572D01*
X161641Y44418D01*
X161658Y44398D01*
X161671Y44374D01*
X161886Y44121D01*
X162521Y43486D01*
X162521Y19714D01*
X162523Y19687D01*
X162521Y19660D01*
X162543Y19487D01*
X162561Y19313D01*
X162568Y19288D01*
X162572Y19261D01*
X162627Y19095D01*
X162679Y18928D01*
X162692Y18905D01*
X162700Y18879D01*
X162787Y18728D01*
X162871Y18574D01*
X162888Y18554D01*
X162901Y18530D01*
X163116Y18277D01*
X165557Y15836D01*
X165578Y15819D01*
X165596Y15798D01*
X165734Y15691D01*
X165869Y15581D01*
X165893Y15568D01*
X165914Y15552D01*
X166071Y15474D01*
X166225Y15392D01*
X166250Y15384D01*
X166274Y15372D01*
X166444Y15327D01*
X166611Y15277D01*
X166637Y15275D01*
X166663Y15268D01*
X166994Y15241D01*
X208926Y15241D01*
X208953Y15243D01*
G37*
%LPC*%
G36*
X395184Y102535D02*
X395184Y102535D01*
X391357Y104121D01*
X388427Y107051D01*
X386841Y110878D01*
X386841Y115022D01*
X388427Y118849D01*
X391357Y121779D01*
X394660Y123148D01*
X394738Y123189D01*
X394821Y123222D01*
X394915Y123284D01*
X395015Y123338D01*
X395083Y123394D01*
X395158Y123443D01*
X395238Y123522D01*
X395325Y123594D01*
X395381Y123663D01*
X395445Y123725D01*
X395508Y123819D01*
X395579Y123907D01*
X395620Y123985D01*
X395670Y124059D01*
X395714Y124163D01*
X395766Y124263D01*
X395791Y124348D01*
X395825Y124430D01*
X395847Y124541D01*
X395879Y124650D01*
X395887Y124738D01*
X395904Y124825D01*
X395904Y124938D01*
X395914Y125051D01*
X395904Y125139D01*
X395904Y125228D01*
X395881Y125339D01*
X395869Y125451D01*
X395842Y125535D01*
X395824Y125622D01*
X395780Y125727D01*
X395746Y125834D01*
X395702Y125912D01*
X395668Y125994D01*
X395604Y126087D01*
X395549Y126186D01*
X395491Y126253D01*
X395442Y126327D01*
X395361Y126406D01*
X395287Y126492D01*
X395217Y126546D01*
X395154Y126608D01*
X395059Y126670D01*
X394970Y126740D01*
X394891Y126780D01*
X394817Y126828D01*
X394686Y126883D01*
X394611Y126921D01*
X394566Y126933D01*
X394510Y126956D01*
X392770Y127521D01*
X391132Y128356D01*
X389644Y129437D01*
X388343Y130738D01*
X387262Y132226D01*
X386427Y133864D01*
X385859Y135614D01*
X385828Y135811D01*
X405892Y135811D01*
X405910Y135812D01*
X405927Y135811D01*
X406110Y135832D01*
X406292Y135851D01*
X406309Y135856D01*
X406327Y135858D01*
X406405Y135883D01*
X406542Y135844D01*
X406560Y135842D01*
X406577Y135838D01*
X406908Y135811D01*
X426972Y135811D01*
X426941Y135614D01*
X426373Y133864D01*
X425538Y132226D01*
X424457Y130738D01*
X423156Y129437D01*
X421668Y128356D01*
X420030Y127521D01*
X418290Y126956D01*
X418208Y126920D01*
X418124Y126894D01*
X418024Y126840D01*
X417921Y126794D01*
X417848Y126743D01*
X417770Y126701D01*
X417684Y126628D01*
X417591Y126563D01*
X417530Y126499D01*
X417462Y126441D01*
X417392Y126353D01*
X417314Y126271D01*
X417266Y126196D01*
X417211Y126127D01*
X417160Y126026D01*
X417099Y125930D01*
X417068Y125847D01*
X417027Y125769D01*
X416997Y125660D01*
X416956Y125554D01*
X416942Y125466D01*
X416918Y125381D01*
X416909Y125269D01*
X416890Y125157D01*
X416893Y125068D01*
X416886Y124980D01*
X416900Y124868D01*
X416904Y124755D01*
X416924Y124668D01*
X416935Y124580D01*
X416971Y124473D01*
X416997Y124363D01*
X417034Y124282D01*
X417062Y124198D01*
X417118Y124100D01*
X417165Y123997D01*
X417217Y123925D01*
X417261Y123848D01*
X417335Y123763D01*
X417402Y123672D01*
X417467Y123612D01*
X417526Y123545D01*
X417615Y123476D01*
X417698Y123399D01*
X417774Y123353D01*
X417845Y123299D01*
X417970Y123235D01*
X418043Y123191D01*
X418086Y123175D01*
X418140Y123148D01*
X421443Y121779D01*
X424373Y118849D01*
X425212Y116825D01*
X425222Y116805D01*
X425229Y116784D01*
X425317Y116628D01*
X425402Y116470D01*
X425416Y116453D01*
X425427Y116433D01*
X425544Y116298D01*
X425658Y116159D01*
X425676Y116145D01*
X425690Y116128D01*
X425832Y116019D01*
X425971Y115906D01*
X425991Y115895D01*
X426008Y115882D01*
X426169Y115802D01*
X426328Y115719D01*
X426349Y115712D01*
X426369Y115702D01*
X426543Y115656D01*
X426714Y115606D01*
X426736Y115604D01*
X426758Y115598D01*
X427089Y115571D01*
X436511Y115571D01*
X436534Y115573D01*
X436556Y115571D01*
X436733Y115593D01*
X436912Y115611D01*
X436933Y115617D01*
X436956Y115620D01*
X437125Y115676D01*
X437297Y115729D01*
X437317Y115739D01*
X437338Y115746D01*
X437493Y115835D01*
X437651Y115921D01*
X437668Y115935D01*
X437688Y115946D01*
X437823Y116064D01*
X437960Y116178D01*
X437974Y116196D01*
X437991Y116210D01*
X438100Y116352D01*
X438213Y116492D01*
X438223Y116512D01*
X438237Y116530D01*
X438388Y116825D01*
X439227Y118849D01*
X442157Y121779D01*
X445460Y123148D01*
X445538Y123189D01*
X445621Y123222D01*
X445715Y123284D01*
X445815Y123338D01*
X445883Y123394D01*
X445958Y123443D01*
X446038Y123522D01*
X446125Y123594D01*
X446181Y123663D01*
X446245Y123725D01*
X446308Y123819D01*
X446379Y123907D01*
X446420Y123985D01*
X446470Y124059D01*
X446514Y124163D01*
X446566Y124263D01*
X446591Y124348D01*
X446625Y124430D01*
X446647Y124541D01*
X446679Y124650D01*
X446687Y124738D01*
X446704Y124825D01*
X446704Y124938D01*
X446714Y125051D01*
X446704Y125139D01*
X446704Y125228D01*
X446681Y125339D01*
X446669Y125451D01*
X446642Y125535D01*
X446624Y125622D01*
X446580Y125727D01*
X446546Y125834D01*
X446502Y125912D01*
X446468Y125994D01*
X446404Y126087D01*
X446349Y126186D01*
X446291Y126253D01*
X446242Y126327D01*
X446161Y126406D01*
X446087Y126492D01*
X446017Y126546D01*
X445954Y126608D01*
X445859Y126670D01*
X445770Y126740D01*
X445691Y126780D01*
X445617Y126828D01*
X445486Y126883D01*
X445411Y126921D01*
X445366Y126933D01*
X445310Y126956D01*
X443570Y127521D01*
X441932Y128356D01*
X440444Y129437D01*
X439143Y130738D01*
X438062Y132226D01*
X437227Y133864D01*
X436659Y135614D01*
X436628Y135811D01*
X456692Y135811D01*
X456710Y135812D01*
X456727Y135811D01*
X456910Y135832D01*
X457092Y135851D01*
X457109Y135856D01*
X457127Y135858D01*
X457205Y135883D01*
X457342Y135844D01*
X457360Y135842D01*
X457377Y135838D01*
X457708Y135811D01*
X477772Y135811D01*
X477741Y135614D01*
X477173Y133864D01*
X476338Y132226D01*
X475257Y130738D01*
X473956Y129437D01*
X472468Y128356D01*
X470830Y127521D01*
X469090Y126956D01*
X469008Y126920D01*
X468924Y126894D01*
X468824Y126840D01*
X468721Y126794D01*
X468648Y126743D01*
X468570Y126701D01*
X468484Y126628D01*
X468391Y126563D01*
X468330Y126499D01*
X468262Y126441D01*
X468192Y126353D01*
X468114Y126271D01*
X468066Y126196D01*
X468011Y126127D01*
X467960Y126026D01*
X467899Y125930D01*
X467868Y125847D01*
X467827Y125769D01*
X467797Y125660D01*
X467756Y125554D01*
X467742Y125466D01*
X467718Y125381D01*
X467709Y125269D01*
X467690Y125157D01*
X467693Y125068D01*
X467686Y124980D01*
X467700Y124868D01*
X467704Y124755D01*
X467724Y124668D01*
X467735Y124580D01*
X467771Y124473D01*
X467797Y124363D01*
X467834Y124282D01*
X467862Y124198D01*
X467918Y124100D01*
X467965Y123997D01*
X468017Y123925D01*
X468061Y123848D01*
X468135Y123763D01*
X468202Y123672D01*
X468267Y123612D01*
X468326Y123545D01*
X468415Y123476D01*
X468498Y123399D01*
X468574Y123353D01*
X468645Y123299D01*
X468770Y123235D01*
X468843Y123191D01*
X468886Y123175D01*
X468940Y123148D01*
X472243Y121779D01*
X475173Y118849D01*
X476759Y115022D01*
X476759Y110878D01*
X475173Y107051D01*
X472243Y104121D01*
X468416Y102535D01*
X445984Y102535D01*
X442157Y104121D01*
X439227Y107051D01*
X438322Y109235D01*
X438311Y109255D01*
X438304Y109276D01*
X438216Y109432D01*
X438132Y109590D01*
X438117Y109607D01*
X438106Y109627D01*
X437989Y109763D01*
X437875Y109901D01*
X437858Y109915D01*
X437843Y109932D01*
X437702Y110041D01*
X437563Y110154D01*
X437543Y110165D01*
X437525Y110178D01*
X437364Y110258D01*
X437206Y110341D01*
X437185Y110348D01*
X437165Y110358D01*
X436991Y110404D01*
X436820Y110454D01*
X436797Y110456D01*
X436776Y110462D01*
X436445Y110489D01*
X427155Y110489D01*
X427133Y110487D01*
X427110Y110489D01*
X426933Y110467D01*
X426754Y110449D01*
X426733Y110443D01*
X426711Y110440D01*
X426541Y110384D01*
X426369Y110331D01*
X426350Y110321D01*
X426328Y110314D01*
X426172Y110225D01*
X426015Y110139D01*
X425998Y110125D01*
X425979Y110114D01*
X425843Y109996D01*
X425706Y109882D01*
X425692Y109864D01*
X425675Y109850D01*
X425566Y109708D01*
X425454Y109568D01*
X425443Y109548D01*
X425430Y109530D01*
X425278Y109235D01*
X424373Y107051D01*
X421443Y104121D01*
X417616Y102535D01*
X395184Y102535D01*
G37*
%LPD*%
%LPC*%
G36*
X395184Y51735D02*
X395184Y51735D01*
X391357Y53321D01*
X388427Y56251D01*
X386841Y60078D01*
X386841Y64222D01*
X388427Y68049D01*
X391357Y70979D01*
X395184Y72565D01*
X417616Y72565D01*
X421443Y70979D01*
X424373Y68049D01*
X424686Y67295D01*
X424696Y67275D01*
X424703Y67254D01*
X424791Y67098D01*
X424876Y66940D01*
X424890Y66923D01*
X424901Y66903D01*
X425018Y66767D01*
X425132Y66629D01*
X425150Y66615D01*
X425164Y66598D01*
X425305Y66489D01*
X425445Y66376D01*
X425465Y66365D01*
X425482Y66352D01*
X425643Y66272D01*
X425802Y66189D01*
X425823Y66182D01*
X425843Y66172D01*
X426016Y66126D01*
X426188Y66076D01*
X426210Y66074D01*
X426232Y66068D01*
X426562Y66041D01*
X437038Y66041D01*
X437060Y66043D01*
X437082Y66041D01*
X437260Y66063D01*
X437438Y66081D01*
X437460Y66087D01*
X437482Y66090D01*
X437651Y66146D01*
X437823Y66199D01*
X437843Y66209D01*
X437864Y66216D01*
X438019Y66305D01*
X438177Y66391D01*
X438194Y66405D01*
X438214Y66416D01*
X438349Y66534D01*
X438486Y66648D01*
X438500Y66666D01*
X438517Y66680D01*
X438627Y66823D01*
X438739Y66962D01*
X438749Y66982D01*
X438763Y67000D01*
X438914Y67295D01*
X439227Y68049D01*
X442157Y70979D01*
X445984Y72565D01*
X468416Y72565D01*
X472243Y70979D01*
X475173Y68049D01*
X476759Y64222D01*
X476759Y60078D01*
X475173Y56251D01*
X472243Y53321D01*
X470635Y52655D01*
X470635Y52654D01*
X468416Y51735D01*
X445984Y51735D01*
X442157Y53321D01*
X439227Y56251D01*
X437796Y59705D01*
X437790Y59716D01*
X437787Y59724D01*
X437783Y59732D01*
X437778Y59746D01*
X437690Y59902D01*
X437606Y60060D01*
X437591Y60077D01*
X437580Y60097D01*
X437464Y60232D01*
X437349Y60371D01*
X437332Y60385D01*
X437317Y60402D01*
X437176Y60511D01*
X437037Y60624D01*
X437017Y60635D01*
X436999Y60648D01*
X436838Y60728D01*
X436680Y60811D01*
X436659Y60818D01*
X436639Y60828D01*
X436465Y60874D01*
X436294Y60924D01*
X436271Y60926D01*
X436250Y60932D01*
X435919Y60959D01*
X427681Y60959D01*
X427659Y60957D01*
X427636Y60959D01*
X427459Y60937D01*
X427280Y60919D01*
X427259Y60913D01*
X427237Y60910D01*
X427067Y60854D01*
X426895Y60801D01*
X426876Y60791D01*
X426855Y60784D01*
X426699Y60695D01*
X426541Y60609D01*
X426524Y60595D01*
X426505Y60584D01*
X426369Y60466D01*
X426232Y60352D01*
X426218Y60334D01*
X426201Y60320D01*
X426092Y60178D01*
X425980Y60038D01*
X425969Y60018D01*
X425956Y60000D01*
X425804Y59705D01*
X424373Y56251D01*
X421443Y53321D01*
X419835Y52655D01*
X419835Y52654D01*
X417616Y51735D01*
X395184Y51735D01*
G37*
%LPD*%
%LPC*%
G36*
X395184Y77135D02*
X395184Y77135D01*
X391357Y78721D01*
X388427Y81651D01*
X386841Y85478D01*
X386841Y89622D01*
X388427Y93449D01*
X391357Y96379D01*
X394444Y97658D01*
X395184Y97965D01*
X417616Y97965D01*
X421443Y96379D01*
X424373Y93449D01*
X425212Y91425D01*
X425222Y91405D01*
X425229Y91384D01*
X425317Y91228D01*
X425402Y91070D01*
X425416Y91053D01*
X425427Y91033D01*
X425544Y90898D01*
X425658Y90759D01*
X425676Y90745D01*
X425690Y90728D01*
X425832Y90619D01*
X425971Y90506D01*
X425991Y90495D01*
X426008Y90482D01*
X426169Y90402D01*
X426328Y90319D01*
X426349Y90312D01*
X426369Y90302D01*
X426543Y90256D01*
X426714Y90206D01*
X426736Y90204D01*
X426758Y90198D01*
X427089Y90171D01*
X436511Y90171D01*
X436534Y90173D01*
X436556Y90171D01*
X436733Y90193D01*
X436912Y90211D01*
X436933Y90217D01*
X436956Y90220D01*
X437125Y90276D01*
X437297Y90329D01*
X437317Y90339D01*
X437338Y90346D01*
X437493Y90435D01*
X437651Y90521D01*
X437668Y90535D01*
X437688Y90546D01*
X437823Y90664D01*
X437960Y90778D01*
X437974Y90796D01*
X437991Y90810D01*
X438100Y90952D01*
X438213Y91092D01*
X438223Y91112D01*
X438237Y91130D01*
X438388Y91425D01*
X439227Y93449D01*
X442157Y96379D01*
X445244Y97658D01*
X445984Y97965D01*
X468416Y97965D01*
X472243Y96379D01*
X475173Y93449D01*
X476759Y89622D01*
X476759Y85478D01*
X475173Y81651D01*
X472243Y78721D01*
X468416Y77135D01*
X445984Y77135D01*
X442157Y78721D01*
X439227Y81651D01*
X438322Y83835D01*
X438311Y83855D01*
X438304Y83876D01*
X438216Y84033D01*
X438132Y84190D01*
X438117Y84207D01*
X438106Y84227D01*
X437989Y84363D01*
X437875Y84501D01*
X437858Y84515D01*
X437843Y84532D01*
X437702Y84641D01*
X437563Y84754D01*
X437543Y84765D01*
X437525Y84778D01*
X437364Y84858D01*
X437206Y84941D01*
X437185Y84948D01*
X437165Y84958D01*
X436991Y85004D01*
X436820Y85054D01*
X436797Y85056D01*
X436776Y85062D01*
X436445Y85089D01*
X427155Y85089D01*
X427133Y85087D01*
X427110Y85089D01*
X426933Y85067D01*
X426754Y85049D01*
X426733Y85043D01*
X426711Y85040D01*
X426541Y84984D01*
X426369Y84931D01*
X426350Y84921D01*
X426328Y84914D01*
X426172Y84825D01*
X426015Y84739D01*
X425998Y84725D01*
X425979Y84714D01*
X425843Y84596D01*
X425706Y84482D01*
X425692Y84464D01*
X425675Y84450D01*
X425566Y84308D01*
X425454Y84168D01*
X425443Y84148D01*
X425430Y84130D01*
X425278Y83835D01*
X424373Y81651D01*
X421443Y78721D01*
X417616Y77135D01*
X395184Y77135D01*
G37*
%LPD*%
%LPC*%
G36*
X338060Y101265D02*
X338060Y101265D01*
X330738Y108587D01*
X330724Y108598D01*
X330713Y108612D01*
X330569Y108725D01*
X330427Y108842D01*
X330411Y108850D01*
X330397Y108862D01*
X330233Y108945D01*
X330071Y109031D01*
X330054Y109036D01*
X330038Y109044D01*
X329861Y109093D01*
X329685Y109146D01*
X329667Y109147D01*
X329650Y109152D01*
X329467Y109165D01*
X329284Y109182D01*
X329266Y109180D01*
X329249Y109181D01*
X329067Y109158D01*
X328884Y109139D01*
X328867Y109133D01*
X328849Y109131D01*
X328675Y109073D01*
X328500Y109017D01*
X328484Y109008D01*
X328468Y109003D01*
X328308Y108911D01*
X328148Y108822D01*
X328134Y108811D01*
X328119Y108802D01*
X327866Y108587D01*
X321814Y102535D01*
X313186Y102535D01*
X307085Y108636D01*
X307085Y117264D01*
X313186Y123365D01*
X321814Y123365D01*
X327866Y117313D01*
X327879Y117302D01*
X327891Y117288D01*
X328035Y117174D01*
X328177Y117058D01*
X328193Y117050D01*
X328207Y117038D01*
X328371Y116955D01*
X328533Y116869D01*
X328550Y116864D01*
X328566Y116856D01*
X328743Y116807D01*
X328919Y116754D01*
X328937Y116753D01*
X328954Y116748D01*
X329137Y116735D01*
X329320Y116718D01*
X329338Y116720D01*
X329355Y116719D01*
X329537Y116742D01*
X329720Y116761D01*
X329737Y116767D01*
X329755Y116769D01*
X329928Y116827D01*
X330104Y116883D01*
X330120Y116892D01*
X330136Y116897D01*
X330296Y116989D01*
X330456Y117078D01*
X330470Y117089D01*
X330485Y117098D01*
X330738Y117313D01*
X338537Y125112D01*
X338548Y125126D01*
X338562Y125137D01*
X338675Y125281D01*
X338792Y125423D01*
X338800Y125439D01*
X338812Y125453D01*
X338895Y125617D01*
X338981Y125779D01*
X338986Y125796D01*
X338994Y125812D01*
X339043Y125989D01*
X339096Y126165D01*
X339097Y126183D01*
X339102Y126200D01*
X339115Y126383D01*
X339132Y126566D01*
X339130Y126584D01*
X339131Y126601D01*
X339108Y126783D01*
X339089Y126966D01*
X339083Y126983D01*
X339081Y127001D01*
X339023Y127175D01*
X338967Y127350D01*
X338958Y127366D01*
X338953Y127382D01*
X338861Y127542D01*
X338772Y127702D01*
X338761Y127716D01*
X338752Y127731D01*
X338537Y127984D01*
X332485Y134036D01*
X332485Y142664D01*
X338586Y148765D01*
X347214Y148765D01*
X353315Y142664D01*
X353315Y134036D01*
X347263Y127984D01*
X347252Y127971D01*
X347238Y127959D01*
X347124Y127815D01*
X347008Y127673D01*
X347000Y127657D01*
X346988Y127643D01*
X346905Y127479D01*
X346819Y127317D01*
X346814Y127300D01*
X346806Y127284D01*
X346757Y127106D01*
X346704Y126931D01*
X346703Y126913D01*
X346698Y126896D01*
X346685Y126713D01*
X346668Y126530D01*
X346670Y126512D01*
X346669Y126495D01*
X346692Y126313D01*
X346711Y126130D01*
X346717Y126113D01*
X346719Y126095D01*
X346777Y125921D01*
X346833Y125746D01*
X346842Y125730D01*
X346847Y125714D01*
X346939Y125554D01*
X347028Y125394D01*
X347039Y125380D01*
X347048Y125365D01*
X347263Y125112D01*
X354585Y117790D01*
X354585Y115489D01*
X343408Y115489D01*
X343390Y115487D01*
X343373Y115489D01*
X343190Y115468D01*
X343008Y115449D01*
X342991Y115444D01*
X342973Y115442D01*
X342798Y115385D01*
X342623Y115331D01*
X342607Y115323D01*
X342590Y115317D01*
X342430Y115227D01*
X342269Y115139D01*
X342255Y115128D01*
X342239Y115119D01*
X342100Y114999D01*
X341959Y114882D01*
X341948Y114868D01*
X341935Y114856D01*
X341822Y114711D01*
X341707Y114568D01*
X341699Y114552D01*
X341688Y114538D01*
X341606Y114373D01*
X341566Y114297D01*
X341414Y114211D01*
X341252Y114123D01*
X341239Y114112D01*
X341223Y114103D01*
X341084Y113983D01*
X340943Y113865D01*
X340932Y113852D01*
X340918Y113840D01*
X340806Y113695D01*
X340691Y113552D01*
X340683Y113536D01*
X340672Y113522D01*
X340589Y113356D01*
X340505Y113194D01*
X340500Y113177D01*
X340492Y113161D01*
X340444Y112983D01*
X340394Y112808D01*
X340392Y112790D01*
X340388Y112773D01*
X340361Y112442D01*
X340361Y101265D01*
X338060Y101265D01*
G37*
%LPD*%
G36*
X161691Y7622D02*
X161691Y7622D01*
X161700Y7621D01*
X161892Y7642D01*
X162083Y7661D01*
X162091Y7663D01*
X162100Y7664D01*
X162283Y7722D01*
X162468Y7779D01*
X162476Y7783D01*
X162484Y7786D01*
X162653Y7879D01*
X162822Y7971D01*
X162829Y7976D01*
X162837Y7981D01*
X162984Y8106D01*
X163131Y8228D01*
X163137Y8235D01*
X163144Y8241D01*
X163263Y8392D01*
X163383Y8542D01*
X163388Y8550D01*
X163393Y8557D01*
X163480Y8728D01*
X163569Y8899D01*
X163571Y8908D01*
X163575Y8916D01*
X163627Y9101D01*
X163680Y9286D01*
X163681Y9295D01*
X163683Y9304D01*
X163698Y9496D01*
X163713Y9688D01*
X163712Y9696D01*
X163713Y9705D01*
X163689Y9896D01*
X163666Y10087D01*
X163664Y10096D01*
X163662Y10105D01*
X163602Y10286D01*
X163541Y10470D01*
X163537Y10478D01*
X163534Y10486D01*
X163439Y10652D01*
X163344Y10821D01*
X163338Y10828D01*
X163333Y10835D01*
X163119Y11088D01*
X161965Y12242D01*
X161964Y12243D01*
X158293Y15914D01*
X158292Y15914D01*
X156209Y17998D01*
X156209Y18362D01*
X156207Y18389D01*
X156209Y18416D01*
X156187Y18589D01*
X156169Y18763D01*
X156162Y18788D01*
X156158Y18815D01*
X156103Y18981D01*
X156051Y19148D01*
X156038Y19171D01*
X156030Y19197D01*
X155943Y19348D01*
X155859Y19502D01*
X155842Y19522D01*
X155829Y19546D01*
X155614Y19799D01*
X154979Y20434D01*
X154979Y43486D01*
X155614Y44121D01*
X155631Y44142D01*
X155652Y44160D01*
X155759Y44298D01*
X155869Y44433D01*
X155882Y44457D01*
X155898Y44478D01*
X155976Y44635D01*
X156058Y44789D01*
X156066Y44814D01*
X156078Y44838D01*
X156123Y45008D01*
X156173Y45175D01*
X156175Y45201D01*
X156182Y45227D01*
X156209Y45558D01*
X156209Y58202D01*
X167322Y69315D01*
X167339Y69336D01*
X167360Y69354D01*
X167467Y69492D01*
X167577Y69627D01*
X167590Y69651D01*
X167606Y69672D01*
X167684Y69829D01*
X167766Y69983D01*
X167774Y70008D01*
X167786Y70032D01*
X167831Y70201D01*
X167881Y70369D01*
X167883Y70395D01*
X167890Y70421D01*
X167917Y70752D01*
X167917Y71155D01*
X167916Y71164D01*
X167917Y71173D01*
X167896Y71366D01*
X167877Y71556D01*
X167875Y71564D01*
X167874Y71573D01*
X167816Y71757D01*
X167759Y71941D01*
X167755Y71949D01*
X167752Y71957D01*
X167660Y72125D01*
X167567Y72295D01*
X167562Y72302D01*
X167557Y72309D01*
X167434Y72455D01*
X167310Y72604D01*
X167303Y72610D01*
X167297Y72616D01*
X167145Y72736D01*
X166996Y72856D01*
X166988Y72861D01*
X166981Y72866D01*
X166808Y72954D01*
X166639Y73042D01*
X166630Y73044D01*
X166622Y73048D01*
X166436Y73100D01*
X166252Y73153D01*
X166243Y73154D01*
X166234Y73156D01*
X166041Y73171D01*
X165850Y73186D01*
X165842Y73185D01*
X165833Y73186D01*
X165640Y73162D01*
X165451Y73139D01*
X165442Y73137D01*
X165433Y73135D01*
X165250Y73074D01*
X165068Y73014D01*
X165060Y73010D01*
X165052Y73007D01*
X164885Y72911D01*
X164717Y72817D01*
X164710Y72811D01*
X164703Y72806D01*
X164450Y72592D01*
X149186Y57328D01*
X149169Y57307D01*
X149148Y57289D01*
X149041Y57151D01*
X148931Y57016D01*
X148918Y56992D01*
X148902Y56971D01*
X148824Y56814D01*
X148742Y56660D01*
X148734Y56635D01*
X148722Y56611D01*
X148677Y56441D01*
X148627Y56274D01*
X148625Y56248D01*
X148618Y56222D01*
X148591Y55891D01*
X148591Y45558D01*
X148593Y45531D01*
X148591Y45504D01*
X148613Y45331D01*
X148631Y45157D01*
X148638Y45132D01*
X148642Y45105D01*
X148697Y44939D01*
X148749Y44772D01*
X148762Y44749D01*
X148770Y44723D01*
X148857Y44572D01*
X148941Y44418D01*
X148958Y44398D01*
X148971Y44374D01*
X149186Y44121D01*
X149821Y43486D01*
X149821Y20434D01*
X149076Y19689D01*
X143024Y19689D01*
X142279Y20434D01*
X142279Y43486D01*
X142914Y44121D01*
X142931Y44142D01*
X142952Y44160D01*
X143059Y44298D01*
X143169Y44433D01*
X143182Y44457D01*
X143198Y44478D01*
X143276Y44635D01*
X143358Y44789D01*
X143366Y44814D01*
X143378Y44838D01*
X143423Y45008D01*
X143473Y45175D01*
X143475Y45201D01*
X143482Y45227D01*
X143509Y45558D01*
X143509Y58812D01*
X143508Y58821D01*
X143509Y58830D01*
X143488Y59023D01*
X143469Y59213D01*
X143467Y59221D01*
X143466Y59230D01*
X143407Y59415D01*
X143351Y59598D01*
X143347Y59606D01*
X143344Y59614D01*
X143251Y59782D01*
X143159Y59952D01*
X143154Y59959D01*
X143149Y59966D01*
X143025Y60114D01*
X142902Y60261D01*
X142895Y60267D01*
X142889Y60273D01*
X142737Y60393D01*
X142588Y60513D01*
X142580Y60518D01*
X142573Y60523D01*
X142400Y60611D01*
X142231Y60699D01*
X142222Y60701D01*
X142214Y60705D01*
X142028Y60757D01*
X141844Y60810D01*
X141835Y60811D01*
X141826Y60813D01*
X141633Y60828D01*
X141442Y60843D01*
X141434Y60842D01*
X141425Y60843D01*
X141232Y60819D01*
X141043Y60796D01*
X141034Y60794D01*
X141025Y60792D01*
X140843Y60731D01*
X140660Y60671D01*
X140652Y60667D01*
X140644Y60664D01*
X140477Y60568D01*
X140309Y60474D01*
X140302Y60468D01*
X140295Y60463D01*
X140042Y60249D01*
X135791Y55998D01*
X135791Y55997D01*
X135216Y55423D01*
X135199Y55402D01*
X135178Y55384D01*
X135071Y55246D01*
X134961Y55111D01*
X134948Y55087D01*
X134932Y55066D01*
X134854Y54909D01*
X134772Y54755D01*
X134764Y54730D01*
X134752Y54706D01*
X134707Y54536D01*
X134657Y54369D01*
X134655Y54343D01*
X134648Y54317D01*
X134621Y53986D01*
X134621Y19039D01*
X134623Y19012D01*
X134621Y18985D01*
X134643Y18812D01*
X134661Y18638D01*
X134668Y18613D01*
X134672Y18586D01*
X134727Y18420D01*
X134779Y18253D01*
X134792Y18230D01*
X134800Y18204D01*
X134888Y18052D01*
X134971Y17899D01*
X134988Y17879D01*
X135001Y17855D01*
X135216Y17602D01*
X144602Y8216D01*
X144623Y8199D01*
X144641Y8178D01*
X144779Y8071D01*
X144914Y7961D01*
X144938Y7948D01*
X144959Y7932D01*
X145116Y7854D01*
X145270Y7772D01*
X145295Y7764D01*
X145319Y7752D01*
X145489Y7707D01*
X145656Y7657D01*
X145682Y7655D01*
X145708Y7648D01*
X146039Y7621D01*
X161682Y7621D01*
X161691Y7622D01*
G37*
%LPC*%
G36*
X47063Y157063D02*
X47063Y157063D01*
X47063Y184504D01*
X47664Y184445D01*
X50724Y183836D01*
X53710Y182931D01*
X56591Y181737D01*
X59343Y180266D01*
X61936Y178533D01*
X64348Y176554D01*
X66554Y174348D01*
X68533Y171936D01*
X70266Y169343D01*
X71737Y166591D01*
X72931Y163710D01*
X73836Y160724D01*
X74445Y157664D01*
X74504Y157063D01*
X47063Y157063D01*
G37*
%LPD*%
%LPC*%
G36*
X335063Y52063D02*
X335063Y52063D01*
X335063Y79504D01*
X335664Y79445D01*
X338724Y78836D01*
X341710Y77931D01*
X344591Y76737D01*
X347343Y75266D01*
X349936Y73533D01*
X352348Y71554D01*
X354554Y69348D01*
X356533Y66936D01*
X358266Y64343D01*
X359737Y61591D01*
X360931Y58710D01*
X361836Y55724D01*
X362445Y52664D01*
X362504Y52063D01*
X335063Y52063D01*
G37*
%LPD*%
%LPC*%
G36*
X335063Y43937D02*
X335063Y43937D01*
X362504Y43937D01*
X362445Y43336D01*
X361836Y40276D01*
X360931Y37290D01*
X359737Y34409D01*
X358266Y31657D01*
X356533Y29064D01*
X354554Y26652D01*
X352348Y24446D01*
X349936Y22467D01*
X347343Y20734D01*
X344591Y19263D01*
X341710Y18069D01*
X338724Y17164D01*
X335664Y16555D01*
X335063Y16496D01*
X335063Y43937D01*
G37*
%LPD*%
%LPC*%
G36*
X11496Y157063D02*
X11496Y157063D01*
X11555Y157664D01*
X12164Y160724D01*
X13069Y163710D01*
X14263Y166591D01*
X15734Y169343D01*
X17467Y171936D01*
X19446Y174348D01*
X21652Y176554D01*
X24064Y178533D01*
X26657Y180266D01*
X29409Y181737D01*
X32290Y182931D01*
X35276Y183836D01*
X38336Y184445D01*
X38937Y184504D01*
X38937Y157063D01*
X11496Y157063D01*
G37*
%LPD*%
%LPC*%
G36*
X47063Y148937D02*
X47063Y148937D01*
X74504Y148937D01*
X74445Y148336D01*
X73836Y145276D01*
X72931Y142290D01*
X71737Y139409D01*
X70266Y136657D01*
X68533Y134064D01*
X66554Y131652D01*
X64348Y129446D01*
X61936Y127467D01*
X59343Y125734D01*
X56591Y124263D01*
X55349Y123748D01*
X53710Y123069D01*
X50724Y122164D01*
X47664Y121555D01*
X47063Y121496D01*
X47063Y148937D01*
G37*
%LPD*%
%LPC*%
G36*
X299496Y52063D02*
X299496Y52063D01*
X299555Y52664D01*
X300164Y55724D01*
X301069Y58710D01*
X302263Y61591D01*
X303734Y64343D01*
X305467Y66936D01*
X307446Y69348D01*
X309652Y71554D01*
X312064Y73533D01*
X314657Y75266D01*
X317409Y76737D01*
X318878Y77346D01*
X320290Y77931D01*
X323276Y78836D01*
X326336Y79445D01*
X326937Y79504D01*
X326937Y52063D01*
X299496Y52063D01*
G37*
%LPD*%
%LPC*%
G36*
X38336Y121555D02*
X38336Y121555D01*
X35276Y122164D01*
X32290Y123069D01*
X29409Y124263D01*
X26657Y125734D01*
X24064Y127467D01*
X21652Y129446D01*
X19446Y131652D01*
X17467Y134064D01*
X15734Y136657D01*
X14263Y139409D01*
X13069Y142290D01*
X12164Y145276D01*
X11555Y148336D01*
X11496Y148937D01*
X38937Y148937D01*
X38937Y121496D01*
X38336Y121555D01*
G37*
%LPD*%
%LPC*%
G36*
X326336Y16555D02*
X326336Y16555D01*
X323276Y17164D01*
X320290Y18069D01*
X317409Y19263D01*
X314657Y20734D01*
X312064Y22467D01*
X309652Y24446D01*
X307446Y26652D01*
X305467Y29064D01*
X303734Y31657D01*
X302263Y34409D01*
X301069Y37290D01*
X300164Y40276D01*
X299555Y43336D01*
X299496Y43937D01*
X326937Y43937D01*
X326937Y16496D01*
X326336Y16555D01*
G37*
%LPD*%
%LPC*%
G36*
X162743Y156790D02*
X162743Y156790D01*
X161272Y157399D01*
X159949Y158283D01*
X159288Y158944D01*
X159275Y158955D01*
X159263Y158969D01*
X159119Y159082D01*
X158977Y159199D01*
X158961Y159207D01*
X158947Y159218D01*
X158784Y159301D01*
X158621Y159388D01*
X158604Y159393D01*
X158588Y159401D01*
X158411Y159450D01*
X158235Y159502D01*
X158217Y159504D01*
X158200Y159509D01*
X158017Y159522D01*
X157834Y159539D01*
X157816Y159537D01*
X157799Y159538D01*
X157616Y159515D01*
X157434Y159495D01*
X157417Y159490D01*
X157399Y159488D01*
X157225Y159429D01*
X157050Y159374D01*
X157034Y159365D01*
X157018Y159359D01*
X156858Y159268D01*
X156698Y159179D01*
X156684Y159168D01*
X156669Y159159D01*
X156416Y158944D01*
X156258Y158786D01*
X153755Y157749D01*
X151045Y157749D01*
X148542Y158786D01*
X146626Y160702D01*
X145589Y163205D01*
X145589Y176995D01*
X146626Y179498D01*
X148542Y181414D01*
X151045Y182451D01*
X153755Y182451D01*
X156258Y181414D01*
X156416Y181256D01*
X156429Y181245D01*
X156441Y181231D01*
X156585Y181117D01*
X156727Y181001D01*
X156743Y180993D01*
X156757Y180982D01*
X156921Y180898D01*
X157083Y180812D01*
X157100Y180807D01*
X157116Y180799D01*
X157293Y180750D01*
X157469Y180698D01*
X157487Y180696D01*
X157504Y180691D01*
X157687Y180678D01*
X157870Y180661D01*
X157888Y180663D01*
X157905Y180662D01*
X158087Y180685D01*
X158270Y180705D01*
X158287Y180710D01*
X158305Y180712D01*
X158478Y180771D01*
X158654Y180826D01*
X158670Y180835D01*
X158686Y180841D01*
X158846Y180932D01*
X159006Y181021D01*
X159020Y181033D01*
X159035Y181041D01*
X159288Y181256D01*
X159949Y181917D01*
X161272Y182801D01*
X161681Y182971D01*
X161682Y182971D01*
X162743Y183410D01*
X163069Y183475D01*
X163069Y170100D01*
X163069Y156725D01*
X162743Y156790D01*
G37*
%LPD*%
%LPC*%
G36*
X315428Y153335D02*
X315428Y153335D01*
X311601Y154921D01*
X308671Y157851D01*
X307085Y161678D01*
X307085Y165822D01*
X308671Y169649D01*
X311601Y172579D01*
X315428Y174165D01*
X319572Y174165D01*
X323399Y172579D01*
X326329Y169649D01*
X327915Y165822D01*
X327915Y161678D01*
X326329Y157851D01*
X323399Y154921D01*
X321700Y154217D01*
X319572Y153335D01*
X315428Y153335D01*
G37*
%LPD*%
G36*
X254035Y71290D02*
X254035Y71290D01*
X254053Y71289D01*
X254235Y71312D01*
X254418Y71332D01*
X254435Y71337D01*
X254453Y71340D01*
X254627Y71398D01*
X254802Y71453D01*
X254817Y71462D01*
X254834Y71468D01*
X254993Y71559D01*
X255154Y71648D01*
X255168Y71660D01*
X255183Y71669D01*
X255436Y71883D01*
X256819Y73266D01*
X256830Y73279D01*
X256843Y73291D01*
X256958Y73436D01*
X257074Y73577D01*
X257082Y73593D01*
X257093Y73607D01*
X257176Y73771D01*
X257262Y73933D01*
X257267Y73950D01*
X257275Y73966D01*
X257325Y74143D01*
X257377Y74319D01*
X257379Y74337D01*
X257383Y74354D01*
X257397Y74537D01*
X257413Y74720D01*
X257412Y74737D01*
X257413Y74755D01*
X257390Y74937D01*
X257370Y75120D01*
X257365Y75137D01*
X257362Y75155D01*
X257304Y75328D01*
X257249Y75504D01*
X257240Y75520D01*
X257234Y75536D01*
X257143Y75695D01*
X257054Y75856D01*
X257042Y75870D01*
X257033Y75885D01*
X256819Y76138D01*
X253543Y79414D01*
X253522Y79431D01*
X253504Y79452D01*
X253366Y79559D01*
X253231Y79669D01*
X253207Y79682D01*
X253186Y79698D01*
X253029Y79776D01*
X252875Y79858D01*
X252850Y79866D01*
X252826Y79878D01*
X252656Y79923D01*
X252489Y79973D01*
X252463Y79975D01*
X252437Y79982D01*
X252106Y80009D01*
X214122Y80009D01*
X214104Y80007D01*
X214086Y80009D01*
X213904Y79988D01*
X213721Y79969D01*
X213704Y79964D01*
X213687Y79962D01*
X213512Y79905D01*
X213336Y79851D01*
X213321Y79843D01*
X213304Y79837D01*
X213144Y79747D01*
X212982Y79659D01*
X212969Y79648D01*
X212953Y79639D01*
X212814Y79519D01*
X212673Y79402D01*
X212662Y79388D01*
X212648Y79376D01*
X212536Y79231D01*
X212421Y79088D01*
X212413Y79072D01*
X212402Y79058D01*
X212319Y78892D01*
X212235Y78731D01*
X212230Y78714D01*
X212222Y78698D01*
X212175Y78519D01*
X212124Y78344D01*
X212122Y78326D01*
X212118Y78309D01*
X212091Y77978D01*
X212091Y75532D01*
X212093Y75514D01*
X212091Y75496D01*
X212112Y75314D01*
X212131Y75131D01*
X212136Y75114D01*
X212138Y75097D01*
X212195Y74922D01*
X212249Y74746D01*
X212257Y74731D01*
X212263Y74714D01*
X212353Y74554D01*
X212441Y74392D01*
X212452Y74379D01*
X212461Y74363D01*
X212581Y74224D01*
X212698Y74083D01*
X212712Y74072D01*
X212724Y74058D01*
X212869Y73946D01*
X213012Y73831D01*
X213028Y73823D01*
X213042Y73812D01*
X213207Y73730D01*
X213369Y73645D01*
X213386Y73640D01*
X213402Y73632D01*
X213581Y73585D01*
X213756Y73534D01*
X213774Y73532D01*
X213791Y73528D01*
X214122Y73501D01*
X214600Y73501D01*
X214633Y73475D01*
X214775Y73358D01*
X214791Y73350D01*
X214805Y73339D01*
X214969Y73255D01*
X215131Y73170D01*
X215148Y73165D01*
X215164Y73156D01*
X215341Y73107D01*
X215517Y73055D01*
X215535Y73053D01*
X215552Y73049D01*
X215735Y73035D01*
X215918Y73019D01*
X215936Y73020D01*
X215953Y73019D01*
X216135Y73042D01*
X216318Y73062D01*
X216335Y73067D01*
X216353Y73070D01*
X216526Y73128D01*
X216702Y73183D01*
X216718Y73192D01*
X216735Y73198D01*
X216893Y73289D01*
X217054Y73378D01*
X217068Y73390D01*
X217083Y73399D01*
X217204Y73501D01*
X227276Y73501D01*
X227791Y72986D01*
X227812Y72969D01*
X227830Y72948D01*
X227967Y72842D01*
X228103Y72731D01*
X228127Y72718D01*
X228148Y72702D01*
X228304Y72624D01*
X228459Y72542D01*
X228484Y72534D01*
X228508Y72522D01*
X228677Y72477D01*
X228844Y72427D01*
X228871Y72425D01*
X228897Y72418D01*
X229228Y72391D01*
X229702Y72391D01*
X229729Y72393D01*
X229756Y72391D01*
X229929Y72413D01*
X230103Y72431D01*
X230128Y72438D01*
X230155Y72442D01*
X230321Y72497D01*
X230488Y72549D01*
X230511Y72562D01*
X230537Y72570D01*
X230688Y72657D01*
X230842Y72741D01*
X230862Y72758D01*
X230885Y72771D01*
X239024Y72771D01*
X239073Y72731D01*
X239097Y72718D01*
X239118Y72702D01*
X239275Y72624D01*
X239429Y72542D01*
X239454Y72534D01*
X239478Y72522D01*
X239648Y72477D01*
X239815Y72427D01*
X239841Y72425D01*
X239867Y72418D01*
X240198Y72391D01*
X242402Y72391D01*
X242429Y72393D01*
X242456Y72391D01*
X242629Y72413D01*
X242803Y72431D01*
X242829Y72438D01*
X242855Y72442D01*
X243021Y72497D01*
X243188Y72549D01*
X243211Y72562D01*
X243237Y72570D01*
X243388Y72657D01*
X243542Y72741D01*
X243562Y72758D01*
X243585Y72771D01*
X251676Y72771D01*
X252564Y71883D01*
X252577Y71872D01*
X252589Y71858D01*
X252734Y71744D01*
X252875Y71628D01*
X252891Y71620D01*
X252905Y71609D01*
X253070Y71525D01*
X253231Y71440D01*
X253248Y71435D01*
X253264Y71427D01*
X253441Y71377D01*
X253617Y71325D01*
X253635Y71323D01*
X253652Y71319D01*
X253835Y71305D01*
X254018Y71289D01*
X254035Y71290D01*
G37*
G36*
X192933Y72865D02*
X192933Y72865D01*
X192942Y72864D01*
X193135Y72889D01*
X193324Y72911D01*
X193333Y72913D01*
X193342Y72915D01*
X193525Y72976D01*
X193707Y73036D01*
X193715Y73040D01*
X193723Y73043D01*
X193889Y73138D01*
X194058Y73233D01*
X194065Y73239D01*
X194072Y73244D01*
X194325Y73458D01*
X196254Y75387D01*
X196271Y75408D01*
X196292Y75426D01*
X196398Y75564D01*
X196509Y75699D01*
X196522Y75723D01*
X196538Y75744D01*
X196616Y75900D01*
X196698Y76055D01*
X196706Y76080D01*
X196718Y76104D01*
X196763Y76273D01*
X196813Y76441D01*
X196815Y76467D01*
X196822Y76493D01*
X196849Y76824D01*
X196849Y107574D01*
X196848Y107583D01*
X196849Y107592D01*
X196828Y107784D01*
X196809Y107975D01*
X196807Y107984D01*
X196806Y107992D01*
X196749Y108173D01*
X196691Y108360D01*
X196687Y108368D01*
X196684Y108376D01*
X196592Y108544D01*
X196499Y108714D01*
X196494Y108721D01*
X196489Y108729D01*
X196364Y108876D01*
X196242Y109023D01*
X196235Y109029D01*
X196229Y109036D01*
X196077Y109156D01*
X195928Y109276D01*
X195920Y109280D01*
X195913Y109285D01*
X195741Y109373D01*
X195571Y109461D01*
X195562Y109464D01*
X195554Y109468D01*
X195368Y109519D01*
X195184Y109572D01*
X195175Y109573D01*
X195166Y109576D01*
X194974Y109590D01*
X194782Y109605D01*
X194774Y109604D01*
X194765Y109605D01*
X194572Y109581D01*
X194383Y109558D01*
X194374Y109556D01*
X194365Y109555D01*
X194182Y109493D01*
X194000Y109434D01*
X193992Y109429D01*
X193984Y109426D01*
X193818Y109331D01*
X193649Y109236D01*
X193642Y109230D01*
X193635Y109225D01*
X193382Y109011D01*
X191963Y107592D01*
X191402Y107592D01*
X191375Y107590D01*
X191348Y107592D01*
X191175Y107570D01*
X191001Y107552D01*
X190976Y107545D01*
X190949Y107541D01*
X190783Y107486D01*
X190616Y107434D01*
X190593Y107421D01*
X190567Y107413D01*
X190416Y107326D01*
X190262Y107242D01*
X190242Y107225D01*
X190218Y107212D01*
X189965Y106997D01*
X188516Y105548D01*
X188499Y105527D01*
X188478Y105509D01*
X188371Y105371D01*
X188261Y105236D01*
X188248Y105212D01*
X188232Y105191D01*
X188154Y105034D01*
X188072Y104880D01*
X188064Y104855D01*
X188052Y104831D01*
X188007Y104661D01*
X187957Y104494D01*
X187955Y104468D01*
X187948Y104442D01*
X187921Y104111D01*
X187921Y83514D01*
X187607Y83200D01*
X187602Y83193D01*
X187595Y83188D01*
X187474Y83037D01*
X187352Y82889D01*
X187348Y82881D01*
X187343Y82874D01*
X187254Y82704D01*
X187164Y82533D01*
X187161Y82524D01*
X187157Y82517D01*
X187104Y82332D01*
X187049Y82147D01*
X187048Y82138D01*
X187046Y82130D01*
X187030Y81939D01*
X187012Y81746D01*
X187013Y81737D01*
X187013Y81728D01*
X187035Y81539D01*
X187056Y81346D01*
X187059Y81337D01*
X187060Y81329D01*
X187119Y81146D01*
X187177Y80962D01*
X187182Y80954D01*
X187184Y80946D01*
X187280Y80777D01*
X187372Y80610D01*
X187378Y80603D01*
X187382Y80595D01*
X187510Y80448D01*
X187633Y80303D01*
X187640Y80297D01*
X187646Y80290D01*
X187798Y80172D01*
X187949Y80053D01*
X187957Y80049D01*
X187964Y80044D01*
X188137Y79957D01*
X188308Y79871D01*
X188316Y79868D01*
X188324Y79864D01*
X188511Y79814D01*
X188695Y79763D01*
X188704Y79762D01*
X188713Y79760D01*
X188766Y79756D01*
X190858Y77663D01*
X190858Y74895D01*
X190859Y74886D01*
X190858Y74877D01*
X190879Y74685D01*
X190898Y74494D01*
X190900Y74486D01*
X190901Y74477D01*
X190959Y74294D01*
X191016Y74109D01*
X191020Y74101D01*
X191023Y74093D01*
X191116Y73924D01*
X191208Y73755D01*
X191213Y73748D01*
X191218Y73740D01*
X191343Y73593D01*
X191465Y73446D01*
X191472Y73440D01*
X191478Y73433D01*
X191630Y73313D01*
X191779Y73194D01*
X191787Y73189D01*
X191794Y73184D01*
X191966Y73097D01*
X192136Y73008D01*
X192145Y73006D01*
X192153Y73002D01*
X192339Y72950D01*
X192523Y72897D01*
X192532Y72896D01*
X192541Y72894D01*
X192733Y72879D01*
X192925Y72864D01*
X192933Y72865D01*
G37*
%LPC*%
G36*
X59924Y14729D02*
X59924Y14729D01*
X59179Y15474D01*
X59179Y32026D01*
X59924Y32771D01*
X73976Y32771D01*
X74721Y32026D01*
X74721Y15474D01*
X73976Y14729D01*
X59924Y14729D01*
G37*
%LPD*%
%LPC*%
G36*
X14924Y14729D02*
X14924Y14729D01*
X14179Y15474D01*
X14179Y32026D01*
X14924Y32771D01*
X28976Y32771D01*
X29721Y32026D01*
X29721Y15474D01*
X28976Y14729D01*
X14924Y14729D01*
G37*
%LPD*%
%LPC*%
G36*
X168424Y19689D02*
X168424Y19689D01*
X167679Y20434D01*
X167679Y43486D01*
X168314Y44121D01*
X168331Y44142D01*
X168352Y44160D01*
X168459Y44298D01*
X168569Y44433D01*
X168582Y44457D01*
X168598Y44478D01*
X168676Y44635D01*
X168758Y44789D01*
X168766Y44814D01*
X168778Y44838D01*
X168823Y45008D01*
X168873Y45175D01*
X168875Y45201D01*
X168882Y45227D01*
X168909Y45558D01*
X168909Y47503D01*
X168907Y47530D01*
X168909Y47557D01*
X168887Y47731D01*
X168869Y47904D01*
X168862Y47929D01*
X168858Y47956D01*
X168803Y48122D01*
X168751Y48289D01*
X168738Y48312D01*
X168730Y48338D01*
X168643Y48489D01*
X168559Y48643D01*
X168542Y48663D01*
X168529Y48687D01*
X168314Y48940D01*
X167917Y49337D01*
X167917Y52263D01*
X169987Y54333D01*
X172913Y54333D01*
X174983Y52263D01*
X174983Y49337D01*
X174586Y48940D01*
X174569Y48919D01*
X174548Y48901D01*
X174441Y48764D01*
X174331Y48628D01*
X174318Y48604D01*
X174302Y48583D01*
X174224Y48426D01*
X174142Y48272D01*
X174134Y48247D01*
X174122Y48223D01*
X174077Y48053D01*
X174027Y47887D01*
X174025Y47860D01*
X174018Y47834D01*
X173991Y47503D01*
X173991Y45558D01*
X173993Y45531D01*
X173991Y45504D01*
X174013Y45331D01*
X174031Y45157D01*
X174038Y45132D01*
X174042Y45105D01*
X174097Y44939D01*
X174149Y44772D01*
X174162Y44749D01*
X174170Y44723D01*
X174257Y44572D01*
X174341Y44418D01*
X174358Y44398D01*
X174371Y44374D01*
X174586Y44121D01*
X175221Y43486D01*
X175221Y20434D01*
X174476Y19689D01*
X168424Y19689D01*
G37*
%LPD*%
G36*
X271564Y45460D02*
X271564Y45460D01*
X271582Y45459D01*
X271764Y45482D01*
X271947Y45502D01*
X271964Y45507D01*
X271982Y45510D01*
X272155Y45568D01*
X272331Y45623D01*
X272347Y45632D01*
X272363Y45638D01*
X272523Y45730D01*
X272683Y45818D01*
X272697Y45830D01*
X272712Y45839D01*
X272965Y46053D01*
X277674Y50762D01*
X277679Y50769D01*
X277686Y50774D01*
X277806Y50924D01*
X277929Y51073D01*
X277933Y51081D01*
X277938Y51088D01*
X278027Y51259D01*
X278117Y51429D01*
X278120Y51437D01*
X278124Y51445D01*
X278177Y51628D01*
X278232Y51815D01*
X278233Y51824D01*
X278235Y51832D01*
X278251Y52023D01*
X278268Y52216D01*
X278267Y52225D01*
X278268Y52234D01*
X278246Y52423D01*
X278225Y52616D01*
X278222Y52625D01*
X278221Y52633D01*
X278162Y52815D01*
X278104Y53000D01*
X278099Y53008D01*
X278096Y53016D01*
X278002Y53184D01*
X277909Y53352D01*
X277903Y53359D01*
X277899Y53367D01*
X277773Y53513D01*
X277648Y53659D01*
X277641Y53665D01*
X277635Y53672D01*
X277484Y53789D01*
X277332Y53909D01*
X277324Y53913D01*
X277317Y53918D01*
X277145Y54004D01*
X276973Y54091D01*
X276965Y54094D01*
X276957Y54098D01*
X276770Y54148D01*
X276585Y54199D01*
X276577Y54200D01*
X276568Y54202D01*
X276237Y54229D01*
X269024Y54229D01*
X268136Y55117D01*
X268123Y55128D01*
X268111Y55142D01*
X267966Y55256D01*
X267825Y55372D01*
X267809Y55380D01*
X267795Y55391D01*
X267631Y55474D01*
X267469Y55560D01*
X267452Y55565D01*
X267436Y55573D01*
X267259Y55623D01*
X267083Y55675D01*
X267065Y55677D01*
X267048Y55681D01*
X266865Y55695D01*
X266682Y55711D01*
X266664Y55710D01*
X266647Y55711D01*
X266465Y55688D01*
X266282Y55668D01*
X266265Y55663D01*
X266247Y55660D01*
X266074Y55602D01*
X265898Y55547D01*
X265882Y55538D01*
X265866Y55532D01*
X265707Y55441D01*
X265546Y55352D01*
X265532Y55340D01*
X265517Y55331D01*
X265264Y55117D01*
X263881Y53734D01*
X263870Y53721D01*
X263856Y53709D01*
X263742Y53565D01*
X263626Y53423D01*
X263618Y53407D01*
X263607Y53393D01*
X263524Y53229D01*
X263438Y53067D01*
X263433Y53050D01*
X263425Y53034D01*
X263375Y52857D01*
X263323Y52681D01*
X263321Y52663D01*
X263317Y52646D01*
X263303Y52463D01*
X263287Y52280D01*
X263288Y52262D01*
X263287Y52245D01*
X263310Y52063D01*
X263330Y51880D01*
X263335Y51863D01*
X263338Y51845D01*
X263396Y51671D01*
X263451Y51496D01*
X263460Y51480D01*
X263466Y51464D01*
X263557Y51305D01*
X263646Y51144D01*
X263658Y51130D01*
X263667Y51115D01*
X263881Y50862D01*
X266165Y48578D01*
X266186Y48561D01*
X266204Y48540D01*
X266342Y48434D01*
X266477Y48323D01*
X266501Y48310D01*
X266522Y48294D01*
X266678Y48216D01*
X266833Y48134D01*
X266858Y48126D01*
X266882Y48114D01*
X267051Y48069D01*
X267219Y48019D01*
X267245Y48017D01*
X267271Y48010D01*
X267602Y47983D01*
X268163Y47983D01*
X270093Y46053D01*
X270106Y46042D01*
X270118Y46028D01*
X270262Y45915D01*
X270404Y45798D01*
X270420Y45790D01*
X270434Y45779D01*
X270598Y45695D01*
X270760Y45610D01*
X270777Y45605D01*
X270793Y45597D01*
X270970Y45547D01*
X271146Y45495D01*
X271164Y45493D01*
X271181Y45489D01*
X271364Y45475D01*
X271547Y45459D01*
X271564Y45460D01*
G37*
G36*
X500069Y192627D02*
X500069Y192627D01*
X500102Y192626D01*
X500268Y192651D01*
X500435Y192670D01*
X500467Y192681D01*
X500500Y192686D01*
X500658Y192743D01*
X500818Y192795D01*
X500847Y192812D01*
X500879Y192823D01*
X501022Y192910D01*
X501169Y192993D01*
X501194Y193015D01*
X501223Y193032D01*
X501346Y193146D01*
X501474Y193256D01*
X501494Y193283D01*
X501518Y193305D01*
X501617Y193441D01*
X501720Y193574D01*
X501735Y193604D01*
X501755Y193631D01*
X501825Y193784D01*
X501900Y193935D01*
X501908Y193967D01*
X501922Y193997D01*
X501960Y194161D01*
X502004Y194324D01*
X502007Y194361D01*
X502014Y194389D01*
X502017Y194476D01*
X502031Y194654D01*
X502031Y200000D01*
X502029Y200018D01*
X502031Y200036D01*
X502010Y200218D01*
X501991Y200401D01*
X501986Y200418D01*
X501984Y200435D01*
X501927Y200610D01*
X501873Y200786D01*
X501865Y200801D01*
X501859Y200818D01*
X501769Y200978D01*
X501681Y201140D01*
X501670Y201153D01*
X501661Y201169D01*
X501541Y201308D01*
X501424Y201449D01*
X501410Y201460D01*
X501398Y201474D01*
X501253Y201586D01*
X501110Y201701D01*
X501094Y201709D01*
X501080Y201720D01*
X500915Y201802D01*
X500753Y201887D01*
X500736Y201892D01*
X500720Y201900D01*
X500541Y201947D01*
X500366Y201998D01*
X500348Y202000D01*
X500331Y202004D01*
X500000Y202031D01*
X494654Y202031D01*
X494487Y202015D01*
X494319Y202003D01*
X494287Y201995D01*
X494254Y201991D01*
X494093Y201942D01*
X493931Y201898D01*
X493901Y201883D01*
X493869Y201873D01*
X493721Y201793D01*
X493570Y201718D01*
X493544Y201697D01*
X493515Y201681D01*
X493386Y201574D01*
X493253Y201470D01*
X493231Y201445D01*
X493206Y201424D01*
X493100Y201293D01*
X492990Y201165D01*
X492974Y201136D01*
X492953Y201110D01*
X492876Y200961D01*
X492793Y200814D01*
X492783Y200782D01*
X492768Y200753D01*
X492721Y200591D01*
X492669Y200431D01*
X492666Y200398D01*
X492656Y200366D01*
X492643Y200198D01*
X492623Y200031D01*
X492626Y199998D01*
X492623Y199964D01*
X492643Y199797D01*
X492657Y199630D01*
X492666Y199598D01*
X492670Y199565D01*
X492723Y199405D01*
X492769Y199243D01*
X492785Y199214D01*
X492795Y199182D01*
X492878Y199035D01*
X492956Y198886D01*
X492977Y198860D01*
X492993Y198831D01*
X493103Y198704D01*
X493209Y198573D01*
X493237Y198549D01*
X493256Y198527D01*
X493325Y198474D01*
X493460Y198357D01*
X496296Y196296D01*
X498357Y193460D01*
X498469Y193334D01*
X498576Y193206D01*
X498602Y193185D01*
X498624Y193160D01*
X498759Y193058D01*
X498890Y192953D01*
X498920Y192938D01*
X498946Y192918D01*
X499099Y192845D01*
X499247Y192768D01*
X499279Y192759D01*
X499309Y192744D01*
X499473Y192703D01*
X499634Y192656D01*
X499668Y192654D01*
X499700Y192645D01*
X499868Y192637D01*
X500036Y192623D01*
X500069Y192627D01*
G37*
G36*
X500018Y-2029D02*
X500018Y-2029D01*
X500036Y-2031D01*
X500218Y-2010D01*
X500401Y-1991D01*
X500418Y-1986D01*
X500435Y-1984D01*
X500610Y-1927D01*
X500786Y-1873D01*
X500801Y-1865D01*
X500818Y-1859D01*
X500978Y-1769D01*
X501140Y-1681D01*
X501153Y-1670D01*
X501169Y-1661D01*
X501308Y-1541D01*
X501449Y-1424D01*
X501460Y-1410D01*
X501474Y-1398D01*
X501586Y-1253D01*
X501701Y-1110D01*
X501709Y-1094D01*
X501720Y-1080D01*
X501802Y-915D01*
X501887Y-753D01*
X501892Y-736D01*
X501900Y-720D01*
X501947Y-541D01*
X501998Y-366D01*
X502000Y-348D01*
X502004Y-331D01*
X502031Y0D01*
X502031Y5346D01*
X502015Y5513D01*
X502003Y5681D01*
X501995Y5713D01*
X501991Y5746D01*
X501942Y5907D01*
X501898Y6069D01*
X501883Y6099D01*
X501873Y6131D01*
X501793Y6279D01*
X501718Y6430D01*
X501697Y6456D01*
X501681Y6485D01*
X501574Y6614D01*
X501470Y6747D01*
X501445Y6769D01*
X501424Y6794D01*
X501293Y6900D01*
X501165Y7010D01*
X501136Y7026D01*
X501110Y7047D01*
X500961Y7124D01*
X500814Y7207D01*
X500782Y7217D01*
X500753Y7232D01*
X500591Y7279D01*
X500431Y7331D01*
X500398Y7334D01*
X500366Y7344D01*
X500198Y7357D01*
X500031Y7377D01*
X499998Y7374D01*
X499964Y7377D01*
X499797Y7357D01*
X499630Y7343D01*
X499598Y7334D01*
X499565Y7330D01*
X499405Y7277D01*
X499243Y7231D01*
X499214Y7215D01*
X499182Y7205D01*
X499035Y7122D01*
X498886Y7044D01*
X498860Y7023D01*
X498831Y7007D01*
X498704Y6897D01*
X498573Y6791D01*
X498549Y6763D01*
X498527Y6744D01*
X498474Y6675D01*
X498357Y6540D01*
X496296Y3704D01*
X493460Y1643D01*
X493335Y1531D01*
X493206Y1424D01*
X493185Y1398D01*
X493160Y1376D01*
X493059Y1241D01*
X492953Y1110D01*
X492938Y1080D01*
X492918Y1054D01*
X492845Y902D01*
X492768Y753D01*
X492759Y721D01*
X492744Y691D01*
X492703Y527D01*
X492656Y366D01*
X492654Y332D01*
X492645Y300D01*
X492637Y132D01*
X492623Y-36D01*
X492627Y-69D01*
X492626Y-102D01*
X492651Y-269D01*
X492670Y-435D01*
X492681Y-467D01*
X492686Y-500D01*
X492743Y-658D01*
X492795Y-818D01*
X492812Y-847D01*
X492823Y-879D01*
X492910Y-1022D01*
X492993Y-1169D01*
X493015Y-1194D01*
X493032Y-1223D01*
X493146Y-1346D01*
X493256Y-1474D01*
X493283Y-1494D01*
X493305Y-1518D01*
X493441Y-1617D01*
X493574Y-1720D01*
X493604Y-1735D01*
X493631Y-1755D01*
X493784Y-1825D01*
X493935Y-1900D01*
X493967Y-1908D01*
X493997Y-1922D01*
X494161Y-1960D01*
X494324Y-2004D01*
X494361Y-2007D01*
X494389Y-2014D01*
X494476Y-2017D01*
X494654Y-2031D01*
X500000Y-2031D01*
X500018Y-2029D01*
G37*
G36*
X2Y192626D02*
X2Y192626D01*
X36Y192623D01*
X203Y192643D01*
X370Y192657D01*
X402Y192666D01*
X435Y192670D01*
X595Y192722D01*
X757Y192769D01*
X786Y192785D01*
X818Y192795D01*
X965Y192878D01*
X1114Y192956D01*
X1140Y192977D01*
X1169Y192993D01*
X1296Y193103D01*
X1427Y193209D01*
X1451Y193237D01*
X1474Y193256D01*
X1526Y193325D01*
X1643Y193460D01*
X3704Y196296D01*
X6540Y198357D01*
X6665Y198469D01*
X6794Y198576D01*
X6815Y198602D01*
X6840Y198624D01*
X6942Y198759D01*
X7047Y198890D01*
X7062Y198920D01*
X7082Y198946D01*
X7155Y199099D01*
X7232Y199247D01*
X7241Y199279D01*
X7256Y199309D01*
X7297Y199473D01*
X7344Y199634D01*
X7346Y199668D01*
X7355Y199700D01*
X7363Y199868D01*
X7377Y200036D01*
X7373Y200069D01*
X7374Y200102D01*
X7349Y200268D01*
X7330Y200435D01*
X7319Y200467D01*
X7314Y200500D01*
X7257Y200658D01*
X7205Y200818D01*
X7188Y200847D01*
X7177Y200879D01*
X7090Y201022D01*
X7007Y201169D01*
X6985Y201194D01*
X6968Y201223D01*
X6854Y201346D01*
X6744Y201474D01*
X6717Y201494D01*
X6695Y201518D01*
X6559Y201617D01*
X6426Y201720D01*
X6396Y201735D01*
X6369Y201755D01*
X6216Y201825D01*
X6065Y201900D01*
X6033Y201908D01*
X6003Y201922D01*
X5839Y201960D01*
X5676Y202004D01*
X5639Y202007D01*
X5611Y202014D01*
X5524Y202017D01*
X5346Y202031D01*
X0Y202031D01*
X-18Y202029D01*
X-36Y202031D01*
X-218Y202010D01*
X-401Y201991D01*
X-418Y201986D01*
X-435Y201984D01*
X-610Y201927D01*
X-786Y201873D01*
X-801Y201865D01*
X-818Y201859D01*
X-978Y201769D01*
X-1140Y201681D01*
X-1153Y201670D01*
X-1169Y201661D01*
X-1308Y201541D01*
X-1449Y201424D01*
X-1460Y201410D01*
X-1474Y201398D01*
X-1586Y201253D01*
X-1701Y201110D01*
X-1709Y201094D01*
X-1720Y201080D01*
X-1802Y200915D01*
X-1887Y200753D01*
X-1892Y200736D01*
X-1900Y200720D01*
X-1947Y200541D01*
X-1998Y200366D01*
X-2000Y200348D01*
X-2004Y200331D01*
X-2031Y200000D01*
X-2031Y194654D01*
X-2015Y194487D01*
X-2003Y194319D01*
X-1995Y194287D01*
X-1991Y194254D01*
X-1942Y194093D01*
X-1898Y193931D01*
X-1883Y193901D01*
X-1873Y193869D01*
X-1793Y193721D01*
X-1718Y193570D01*
X-1697Y193544D01*
X-1681Y193515D01*
X-1574Y193386D01*
X-1470Y193253D01*
X-1445Y193231D01*
X-1424Y193206D01*
X-1293Y193100D01*
X-1165Y192990D01*
X-1136Y192974D01*
X-1110Y192953D01*
X-961Y192876D01*
X-814Y192793D01*
X-782Y192783D01*
X-753Y192768D01*
X-591Y192721D01*
X-431Y192669D01*
X-398Y192666D01*
X-366Y192656D01*
X-198Y192643D01*
X-31Y192623D01*
X2Y192626D01*
G37*
G36*
X5513Y-2015D02*
X5513Y-2015D01*
X5681Y-2003D01*
X5713Y-1995D01*
X5746Y-1991D01*
X5907Y-1942D01*
X6069Y-1898D01*
X6099Y-1883D01*
X6131Y-1873D01*
X6279Y-1793D01*
X6430Y-1718D01*
X6456Y-1697D01*
X6485Y-1681D01*
X6614Y-1574D01*
X6747Y-1470D01*
X6769Y-1445D01*
X6794Y-1424D01*
X6900Y-1293D01*
X7010Y-1165D01*
X7026Y-1136D01*
X7047Y-1110D01*
X7124Y-961D01*
X7207Y-814D01*
X7217Y-782D01*
X7232Y-753D01*
X7279Y-591D01*
X7331Y-431D01*
X7334Y-398D01*
X7344Y-366D01*
X7357Y-198D01*
X7377Y-31D01*
X7374Y2D01*
X7377Y36D01*
X7357Y203D01*
X7343Y370D01*
X7334Y402D01*
X7330Y435D01*
X7278Y595D01*
X7231Y757D01*
X7215Y786D01*
X7205Y818D01*
X7122Y965D01*
X7044Y1114D01*
X7023Y1140D01*
X7007Y1169D01*
X6897Y1296D01*
X6791Y1427D01*
X6763Y1451D01*
X6744Y1474D01*
X6675Y1526D01*
X6540Y1643D01*
X3704Y3704D01*
X1643Y6540D01*
X1531Y6665D01*
X1424Y6794D01*
X1398Y6815D01*
X1376Y6840D01*
X1241Y6941D01*
X1110Y7047D01*
X1080Y7062D01*
X1054Y7082D01*
X902Y7155D01*
X753Y7232D01*
X721Y7241D01*
X691Y7256D01*
X527Y7297D01*
X366Y7344D01*
X332Y7346D01*
X300Y7355D01*
X132Y7363D01*
X-36Y7377D01*
X-69Y7373D01*
X-102Y7374D01*
X-269Y7349D01*
X-435Y7330D01*
X-467Y7319D01*
X-500Y7314D01*
X-658Y7257D01*
X-818Y7205D01*
X-847Y7188D01*
X-879Y7177D01*
X-1022Y7090D01*
X-1169Y7007D01*
X-1194Y6985D01*
X-1223Y6968D01*
X-1346Y6854D01*
X-1474Y6744D01*
X-1494Y6717D01*
X-1518Y6695D01*
X-1617Y6559D01*
X-1720Y6426D01*
X-1735Y6396D01*
X-1755Y6369D01*
X-1825Y6216D01*
X-1900Y6065D01*
X-1908Y6033D01*
X-1922Y6003D01*
X-1960Y5839D01*
X-2004Y5676D01*
X-2007Y5639D01*
X-2014Y5611D01*
X-2017Y5524D01*
X-2031Y5346D01*
X-2031Y0D01*
X-2029Y-18D01*
X-2031Y-36D01*
X-2010Y-218D01*
X-1991Y-401D01*
X-1986Y-418D01*
X-1984Y-435D01*
X-1927Y-610D01*
X-1873Y-786D01*
X-1865Y-801D01*
X-1859Y-818D01*
X-1769Y-978D01*
X-1681Y-1140D01*
X-1670Y-1153D01*
X-1661Y-1169D01*
X-1541Y-1308D01*
X-1424Y-1449D01*
X-1410Y-1460D01*
X-1398Y-1474D01*
X-1253Y-1586D01*
X-1110Y-1701D01*
X-1094Y-1709D01*
X-1080Y-1720D01*
X-915Y-1802D01*
X-753Y-1887D01*
X-736Y-1892D01*
X-720Y-1900D01*
X-541Y-1947D01*
X-366Y-1998D01*
X-348Y-2000D01*
X-331Y-2004D01*
X0Y-2031D01*
X5346Y-2031D01*
X5513Y-2015D01*
G37*
%LPC*%
G36*
X345439Y101265D02*
X345439Y101265D01*
X345439Y110411D01*
X354585Y110411D01*
X354585Y108110D01*
X347740Y101265D01*
X345439Y101265D01*
G37*
%LPD*%
G36*
X204996Y73503D02*
X204996Y73503D01*
X205014Y73501D01*
X205196Y73522D01*
X205379Y73541D01*
X205396Y73546D01*
X205413Y73548D01*
X205588Y73605D01*
X205764Y73659D01*
X205779Y73667D01*
X205796Y73673D01*
X205956Y73763D01*
X206118Y73851D01*
X206131Y73862D01*
X206147Y73871D01*
X206286Y73991D01*
X206427Y74108D01*
X206438Y74122D01*
X206452Y74134D01*
X206564Y74279D01*
X206679Y74422D01*
X206687Y74438D01*
X206698Y74452D01*
X206780Y74617D01*
X206865Y74779D01*
X206870Y74796D01*
X206878Y74812D01*
X206925Y74991D01*
X206976Y75166D01*
X206978Y75184D01*
X206982Y75201D01*
X207009Y75532D01*
X207009Y80656D01*
X207007Y80683D01*
X207009Y80709D01*
X206987Y80883D01*
X206969Y81057D01*
X206962Y81082D01*
X206958Y81109D01*
X206903Y81274D01*
X206851Y81442D01*
X206839Y81465D01*
X206830Y81491D01*
X206743Y81642D01*
X206659Y81796D01*
X206642Y81816D01*
X206629Y81839D01*
X206414Y82092D01*
X205398Y83109D01*
X205391Y83114D01*
X205386Y83121D01*
X205237Y83241D01*
X205087Y83364D01*
X205079Y83368D01*
X205072Y83373D01*
X204902Y83462D01*
X204731Y83552D01*
X204722Y83555D01*
X204715Y83559D01*
X204530Y83612D01*
X204345Y83667D01*
X204336Y83668D01*
X204328Y83670D01*
X204137Y83686D01*
X203944Y83703D01*
X203935Y83702D01*
X203926Y83703D01*
X203737Y83681D01*
X203544Y83660D01*
X203535Y83657D01*
X203527Y83656D01*
X203344Y83597D01*
X203160Y83539D01*
X203152Y83534D01*
X203144Y83531D01*
X202977Y83437D01*
X202808Y83344D01*
X202801Y83338D01*
X202793Y83334D01*
X202648Y83208D01*
X202501Y83083D01*
X202495Y83076D01*
X202488Y83070D01*
X202371Y82919D01*
X202251Y82767D01*
X202247Y82759D01*
X202242Y82752D01*
X202156Y82580D01*
X202069Y82408D01*
X202066Y82400D01*
X202062Y82392D01*
X202012Y82205D01*
X201961Y82021D01*
X201960Y82012D01*
X201958Y82003D01*
X201931Y81672D01*
X201931Y75532D01*
X201933Y75514D01*
X201931Y75496D01*
X201952Y75314D01*
X201971Y75131D01*
X201976Y75114D01*
X201978Y75097D01*
X202035Y74922D01*
X202089Y74746D01*
X202097Y74731D01*
X202103Y74714D01*
X202193Y74554D01*
X202281Y74392D01*
X202292Y74379D01*
X202301Y74363D01*
X202421Y74224D01*
X202538Y74083D01*
X202552Y74072D01*
X202564Y74058D01*
X202709Y73946D01*
X202852Y73831D01*
X202868Y73823D01*
X202882Y73812D01*
X203047Y73730D01*
X203209Y73645D01*
X203226Y73640D01*
X203242Y73632D01*
X203421Y73585D01*
X203596Y73534D01*
X203614Y73532D01*
X203631Y73528D01*
X203962Y73501D01*
X204978Y73501D01*
X204996Y73503D01*
G37*
%LPC*%
G36*
X25199Y106499D02*
X25199Y106499D01*
X25199Y113541D01*
X28785Y113541D01*
X29431Y113368D01*
X30010Y113033D01*
X30483Y112560D01*
X30818Y111981D01*
X30991Y111335D01*
X30991Y106499D01*
X25199Y106499D01*
G37*
%LPD*%
%LPC*%
G36*
X12909Y106499D02*
X12909Y106499D01*
X12909Y111335D01*
X13082Y111981D01*
X13417Y112560D01*
X13890Y113033D01*
X14469Y113368D01*
X15115Y113541D01*
X18701Y113541D01*
X18701Y106499D01*
X12909Y106499D01*
G37*
%LPD*%
%LPC*%
G36*
X25199Y92959D02*
X25199Y92959D01*
X25199Y100001D01*
X30991Y100001D01*
X30991Y95165D01*
X30818Y94519D01*
X30483Y93940D01*
X30010Y93467D01*
X29431Y93132D01*
X28785Y92959D01*
X25199Y92959D01*
G37*
%LPD*%
%LPC*%
G36*
X15115Y92959D02*
X15115Y92959D01*
X14469Y93132D01*
X13890Y93467D01*
X13417Y93940D01*
X13082Y94519D01*
X12909Y95165D01*
X12909Y100001D01*
X18701Y100001D01*
X18701Y92959D01*
X15115Y92959D01*
G37*
%LPD*%
%LPC*%
G36*
X217415Y49689D02*
X217415Y49689D01*
X216696Y49882D01*
X216650Y49898D01*
X216549Y49944D01*
X216460Y49964D01*
X216374Y49994D01*
X216264Y50009D01*
X216157Y50034D01*
X216066Y50036D01*
X215975Y50049D01*
X215865Y50042D01*
X215754Y50045D01*
X215664Y50029D01*
X215573Y50024D01*
X215466Y49995D01*
X215358Y49976D01*
X215272Y49943D01*
X215184Y49920D01*
X215105Y49882D01*
X214385Y49689D01*
X211581Y49689D01*
X211581Y53699D01*
X220219Y53699D01*
X220219Y49689D01*
X217415Y49689D01*
G37*
%LPD*%
%LPC*%
G36*
X141109Y97071D02*
X141109Y97071D01*
X141109Y106375D01*
X141282Y107021D01*
X141617Y107600D01*
X142090Y108073D01*
X142669Y108408D01*
X143315Y108581D01*
X144119Y108581D01*
X144119Y97071D01*
X141109Y97071D01*
G37*
%LPD*%
%LPC*%
G36*
X143315Y81499D02*
X143315Y81499D01*
X142669Y81672D01*
X142090Y82007D01*
X141617Y82480D01*
X141282Y83059D01*
X141109Y83705D01*
X141109Y93009D01*
X144119Y93009D01*
X144119Y81499D01*
X143315Y81499D01*
G37*
%LPD*%
%LPC*%
G36*
X204715Y49689D02*
X204715Y49689D01*
X204069Y49862D01*
X203490Y50197D01*
X203017Y50670D01*
X202682Y51249D01*
X202509Y51895D01*
X202509Y53699D01*
X207519Y53699D01*
X207519Y49689D01*
X204715Y49689D01*
G37*
%LPD*%
G36*
X266736Y61290D02*
X266736Y61290D01*
X266754Y61289D01*
X266936Y61312D01*
X267118Y61332D01*
X267135Y61337D01*
X267153Y61340D01*
X267327Y61398D01*
X267502Y61454D01*
X267518Y61462D01*
X267535Y61468D01*
X267694Y61559D01*
X267854Y61648D01*
X267868Y61660D01*
X267883Y61669D01*
X268136Y61884D01*
X268317Y62064D01*
X268328Y62078D01*
X268342Y62089D01*
X268455Y62233D01*
X268572Y62375D01*
X268580Y62391D01*
X268591Y62405D01*
X268674Y62568D01*
X268760Y62731D01*
X268765Y62748D01*
X268773Y62764D01*
X268823Y62941D01*
X268875Y63117D01*
X268877Y63135D01*
X268881Y63152D01*
X268895Y63336D01*
X268911Y63518D01*
X268910Y63535D01*
X268911Y63553D01*
X268888Y63737D01*
X268868Y63918D01*
X268863Y63935D01*
X268860Y63953D01*
X268802Y64127D01*
X268746Y64302D01*
X268738Y64318D01*
X268732Y64334D01*
X268640Y64494D01*
X268552Y64654D01*
X268540Y64668D01*
X268531Y64683D01*
X268317Y64936D01*
X268136Y65117D01*
X268123Y65128D01*
X268111Y65142D01*
X267967Y65255D01*
X267825Y65372D01*
X267809Y65380D01*
X267795Y65391D01*
X267631Y65475D01*
X267469Y65560D01*
X267452Y65565D01*
X267436Y65573D01*
X267259Y65623D01*
X267083Y65675D01*
X267065Y65677D01*
X267048Y65681D01*
X266865Y65695D01*
X266682Y65711D01*
X266664Y65710D01*
X266647Y65711D01*
X266465Y65688D01*
X266282Y65668D01*
X266265Y65663D01*
X266247Y65660D01*
X266074Y65602D01*
X265898Y65547D01*
X265882Y65538D01*
X265866Y65532D01*
X265706Y65440D01*
X265546Y65352D01*
X265532Y65340D01*
X265517Y65331D01*
X265264Y65117D01*
X265083Y64936D01*
X265072Y64922D01*
X265058Y64911D01*
X264945Y64767D01*
X264828Y64625D01*
X264820Y64609D01*
X264809Y64595D01*
X264725Y64431D01*
X264640Y64269D01*
X264635Y64252D01*
X264626Y64236D01*
X264577Y64058D01*
X264525Y63883D01*
X264523Y63865D01*
X264518Y63848D01*
X264505Y63666D01*
X264489Y63482D01*
X264490Y63464D01*
X264489Y63446D01*
X264512Y63266D01*
X264532Y63082D01*
X264537Y63065D01*
X264540Y63047D01*
X264598Y62874D01*
X264653Y62698D01*
X264662Y62682D01*
X264668Y62665D01*
X264759Y62506D01*
X264848Y62346D01*
X264860Y62332D01*
X264869Y62317D01*
X265084Y62064D01*
X265264Y61883D01*
X265278Y61872D01*
X265289Y61858D01*
X265433Y61745D01*
X265575Y61628D01*
X265591Y61620D01*
X265605Y61609D01*
X265768Y61526D01*
X265931Y61440D01*
X265948Y61435D01*
X265964Y61426D01*
X266141Y61377D01*
X266317Y61325D01*
X266335Y61323D01*
X266352Y61318D01*
X266535Y61305D01*
X266718Y61289D01*
X266736Y61290D01*
G37*
%LPC*%
G36*
X93019Y70531D02*
X93019Y70531D01*
X93019Y71835D01*
X93192Y72481D01*
X93527Y73060D01*
X94000Y73533D01*
X94579Y73868D01*
X95225Y74041D01*
X97029Y74041D01*
X97029Y70531D01*
X93019Y70531D01*
G37*
%LPD*%
%LPC*%
G36*
X42999Y152999D02*
X42999Y152999D01*
X42999Y153001D01*
X43001Y153001D01*
X43001Y152999D01*
X42999Y152999D01*
G37*
%LPD*%
%LPC*%
G36*
X330999Y47999D02*
X330999Y47999D01*
X330999Y48001D01*
X331001Y48001D01*
X331001Y47999D01*
X330999Y47999D01*
G37*
%LPD*%
D10*
X177800Y164560D02*
X177800Y175640D01*
X165100Y175640D02*
X165100Y164560D01*
X152400Y164560D02*
X152400Y175640D01*
D11*
X397256Y163750D02*
X415544Y163750D01*
X415544Y138350D02*
X397256Y138350D01*
X397256Y112950D02*
X415544Y112950D01*
X415544Y87550D02*
X397256Y87550D01*
X397256Y62150D02*
X415544Y62150D01*
X415544Y36750D02*
X397256Y36750D01*
X448056Y163750D02*
X466344Y163750D01*
X466344Y138350D02*
X448056Y138350D01*
X448056Y112950D02*
X466344Y112950D01*
X466344Y87550D02*
X448056Y87550D01*
X448056Y62150D02*
X466344Y62150D01*
X466344Y36750D02*
X448056Y36750D01*
D12*
X331000Y48000D03*
X43000Y153000D03*
D13*
X317500Y163750D03*
D14*
X317500Y138350D03*
X317500Y112950D03*
X342900Y163750D03*
X342900Y138350D03*
X342900Y112950D03*
D15*
X184150Y95040D03*
X171550Y95040D03*
X158850Y95040D03*
X146150Y95040D03*
X184150Y31960D03*
X171450Y31960D03*
X158750Y31960D03*
X146050Y31960D03*
D16*
X234950Y58500D03*
X234950Y68500D03*
X99060Y58500D03*
X99060Y68500D03*
X260350Y58500D03*
X260350Y68500D03*
X247650Y58500D03*
X247650Y68500D03*
X273050Y68500D03*
X273050Y58500D03*
D17*
X222250Y68730D03*
X222250Y55730D03*
X209550Y68730D03*
X209550Y55730D03*
D18*
X66950Y23750D03*
X66950Y103250D03*
X21950Y23750D03*
X21950Y103250D03*
D19*
X114300Y56000D03*
X114300Y71000D03*
D20*
X406400Y38100D02*
X457200Y38100D01*
X406400Y38100D02*
X406400Y36750D01*
X457200Y36750D02*
X457200Y38100D01*
X158750Y82550D02*
X158750Y92075D01*
X158850Y95040D01*
X132080Y17145D02*
X144145Y5080D01*
X132655Y56455D02*
X132080Y57030D01*
X118685Y70425D01*
X114875Y70425D02*
X114300Y71000D01*
X132080Y57030D02*
X132080Y17145D01*
X374730Y5080D02*
X406400Y36750D01*
X374730Y5080D02*
X144145Y5080D01*
X132655Y56455D02*
X158750Y82550D01*
X118685Y70425D02*
X114875Y70425D01*
X234950Y69850D02*
X247650Y69850D01*
X257175Y60325D02*
X260350Y60325D01*
X257175Y60325D02*
X247650Y69850D01*
X260350Y60325D02*
X260350Y58500D01*
X247650Y68500D02*
X247650Y69850D01*
X234950Y69850D02*
X222250Y69850D01*
X222250Y68730D01*
X234950Y68500D02*
X234950Y69850D01*
X260350Y50800D02*
X266700Y44450D01*
X260350Y50800D02*
X260350Y58500D01*
X406400Y63500D02*
X457200Y63500D01*
X457200Y62150D01*
X406400Y62150D02*
X406400Y63500D01*
D21*
X266700Y44450D03*
D20*
X342900Y165100D02*
X406400Y165100D01*
X457200Y165100D01*
X457200Y163750D01*
X406400Y163750D02*
X406400Y165100D01*
X199390Y74930D02*
X184150Y59690D01*
X199390Y146685D02*
X177800Y168275D01*
X199390Y92710D02*
X199390Y74930D01*
X199390Y92710D02*
X199390Y146685D01*
X177800Y168275D02*
X177800Y170100D01*
X342900Y165100D02*
X342900Y163750D01*
X183833Y33973D02*
X183833Y32385D01*
X184150Y31960D01*
X183833Y33973D02*
X184150Y34925D01*
X260350Y68500D02*
X260350Y76200D01*
X254000Y82550D01*
X209550Y82550D01*
X199390Y92710D01*
X209550Y82550D02*
X209550Y68730D01*
X184150Y59690D02*
X184150Y40640D01*
D22*
X44450Y63500D03*
D20*
X99060Y68500D02*
X99060Y69850D01*
X342900Y112950D02*
X366950Y112950D01*
X392350Y138350D02*
X406400Y138350D01*
X392350Y138350D02*
X366950Y112950D01*
X342900Y112950D02*
X342900Y59900D01*
X331000Y48000D01*
X308400Y25400D01*
X260350Y25400D01*
X406400Y138350D02*
X457200Y138350D01*
X99060Y69850D02*
X50800Y69850D01*
X44450Y63500D02*
X42650Y63500D01*
X21950Y84200D02*
X21950Y103250D01*
X21950Y84200D02*
X42650Y63500D01*
X21950Y103250D02*
X21950Y131950D01*
X43000Y153000D01*
X69250Y153000D01*
X88900Y133350D01*
X152400Y133350D02*
X165100Y146050D01*
X165100Y170100D01*
X152400Y133350D02*
X88900Y133350D01*
X247650Y38100D02*
X260350Y25400D01*
X247650Y44450D02*
X247650Y58500D01*
X247650Y44450D02*
X247650Y38100D01*
D22*
X247650Y44450D03*
D20*
X50800Y69850D02*
X44450Y63500D01*
X99060Y80970D02*
X113130Y95040D01*
X99060Y80970D02*
X99060Y69850D01*
X113130Y95040D02*
X146150Y95040D01*
X209250Y56030D02*
X209550Y55730D01*
X222250Y55730D01*
X195730Y55730D02*
X195580Y55880D01*
X195730Y55730D02*
X209550Y55730D01*
D22*
X195580Y55880D03*
D20*
X146050Y57785D02*
X146050Y31960D01*
X146050Y57785D02*
X164465Y76200D01*
X187325Y76200D01*
X406400Y87630D02*
X457200Y87630D01*
X457200Y87550D01*
X406400Y87630D02*
X406400Y87550D01*
D21*
X187325Y76200D03*
D20*
X171450Y50800D02*
X171450Y31960D01*
X406400Y113030D02*
X457200Y113030D01*
X457200Y112950D01*
X406400Y113030D02*
X406400Y112950D01*
D21*
X171450Y50800D03*
X260350Y34925D03*
D20*
X305355Y138350D02*
X317500Y138350D01*
X305355Y138350D02*
X287020Y120015D01*
X287020Y56515D01*
X265430Y34925D01*
X260350Y34925D01*
X123825Y117475D02*
X108241Y117475D01*
X123825Y117475D02*
X161925Y117475D01*
X171450Y107950D01*
X171450Y95250D01*
X108241Y117475D02*
X81191Y103250D01*
X66950Y103250D01*
X171450Y95250D02*
X171550Y95040D01*
X123825Y107950D02*
X123825Y117475D01*
D21*
X269875Y82550D03*
X123825Y107950D03*
D20*
X269875Y82550D02*
X273050Y79375D01*
X273050Y68500D01*
X184150Y95040D02*
X184150Y104775D01*
X190500Y111125D01*
D21*
X190500Y111125D03*
D20*
X234950Y36830D02*
X210820Y12700D01*
X165100Y12700D01*
X158750Y19050D01*
X158750Y31960D01*
X234950Y36830D02*
X234950Y58500D01*
X158750Y57150D02*
X158750Y31960D01*
X158750Y57150D02*
X171450Y69850D01*
D21*
X171450Y69850D03*
X263525Y130175D03*
D20*
X281940Y111760D01*
X281940Y60960D02*
X279480Y58500D01*
X273050Y58500D01*
X281940Y60960D02*
X281940Y111760D01*
X101560Y56000D02*
X99060Y58500D01*
X101560Y56000D02*
X114300Y56000D01*
M02*
