G04 EAGLE Gerber RS-274X export*
G75*
%MOMM*%
%FSLAX34Y34*%
%LPD*%
%INBottom Copper*%
%IPPOS*%
%AMOC8*
5,1,8,0,0,1.08239X$1,22.5*%
G01*
%ADD10C,1.108000*%
%ADD11C,1.828800*%
%ADD12C,5.842000*%
%ADD13C,1.828800*%
%ADD14P,1.979475X8X292.500000*%
%ADD15C,0.254000*%
%ADD16C,0.452400*%
%ADD17C,0.502400*%

G36*
X477279Y2003D02*
X477279Y2003D01*
X477306Y2001D01*
X477479Y2023D01*
X477653Y2041D01*
X477678Y2048D01*
X477705Y2052D01*
X477871Y2107D01*
X478038Y2159D01*
X478061Y2172D01*
X478087Y2180D01*
X478238Y2267D01*
X478392Y2351D01*
X478412Y2368D01*
X478436Y2381D01*
X478689Y2596D01*
X478856Y2763D01*
X480000Y2763D01*
X480066Y2769D01*
X480159Y2769D01*
X482538Y2956D01*
X482610Y2969D01*
X482684Y2973D01*
X482848Y3012D01*
X482934Y3027D01*
X482965Y3040D01*
X483006Y3049D01*
X487531Y4519D01*
X487671Y4581D01*
X487814Y4636D01*
X487861Y4664D01*
X487900Y4681D01*
X487970Y4731D01*
X488097Y4808D01*
X491946Y7604D01*
X492060Y7706D01*
X492179Y7802D01*
X492215Y7844D01*
X492247Y7872D01*
X492299Y7941D01*
X492396Y8054D01*
X495192Y11903D01*
X495269Y12035D01*
X495353Y12163D01*
X495374Y12214D01*
X495395Y12250D01*
X495423Y12332D01*
X495481Y12469D01*
X496951Y16994D01*
X496966Y17065D01*
X496991Y17134D01*
X497018Y17302D01*
X497036Y17387D01*
X497037Y17420D01*
X497044Y17462D01*
X497231Y19841D01*
X497230Y19907D01*
X497237Y20000D01*
X497237Y21144D01*
X497404Y21311D01*
X497421Y21332D01*
X497442Y21350D01*
X497549Y21488D01*
X497659Y21623D01*
X497672Y21647D01*
X497688Y21668D01*
X497766Y21825D01*
X497848Y21979D01*
X497856Y22004D01*
X497868Y22028D01*
X497913Y22198D01*
X497963Y22365D01*
X497965Y22391D01*
X497972Y22417D01*
X497999Y22748D01*
X497999Y177252D01*
X497997Y177279D01*
X497999Y177306D01*
X497977Y177479D01*
X497959Y177653D01*
X497952Y177678D01*
X497948Y177705D01*
X497893Y177871D01*
X497841Y178038D01*
X497828Y178061D01*
X497820Y178087D01*
X497733Y178238D01*
X497649Y178392D01*
X497632Y178412D01*
X497619Y178436D01*
X497404Y178689D01*
X497237Y178856D01*
X497237Y180000D01*
X497231Y180066D01*
X497231Y180159D01*
X497044Y182538D01*
X497031Y182610D01*
X497027Y182684D01*
X496988Y182848D01*
X496973Y182934D01*
X496960Y182965D01*
X496951Y183006D01*
X495481Y187531D01*
X495439Y187625D01*
X495417Y187693D01*
X495397Y187729D01*
X495364Y187814D01*
X495336Y187861D01*
X495319Y187900D01*
X495269Y187970D01*
X495192Y188097D01*
X492396Y191946D01*
X492294Y192060D01*
X492198Y192179D01*
X492156Y192215D01*
X492128Y192247D01*
X492059Y192299D01*
X491946Y192396D01*
X488097Y195192D01*
X487965Y195269D01*
X487837Y195353D01*
X487786Y195374D01*
X487750Y195395D01*
X487668Y195423D01*
X487531Y195481D01*
X483006Y196951D01*
X482935Y196966D01*
X482866Y196991D01*
X482698Y197018D01*
X482613Y197036D01*
X482580Y197037D01*
X482538Y197044D01*
X480159Y197231D01*
X480093Y197230D01*
X480000Y197237D01*
X478856Y197237D01*
X478689Y197404D01*
X478668Y197421D01*
X478650Y197442D01*
X478512Y197549D01*
X478377Y197659D01*
X478353Y197672D01*
X478332Y197688D01*
X478175Y197766D01*
X478021Y197848D01*
X477996Y197856D01*
X477972Y197868D01*
X477802Y197913D01*
X477635Y197963D01*
X477609Y197965D01*
X477583Y197972D01*
X477252Y197999D01*
X22748Y197999D01*
X22721Y197997D01*
X22694Y197999D01*
X22521Y197977D01*
X22347Y197959D01*
X22322Y197952D01*
X22295Y197948D01*
X22129Y197893D01*
X21962Y197841D01*
X21939Y197828D01*
X21913Y197820D01*
X21762Y197733D01*
X21608Y197649D01*
X21588Y197632D01*
X21564Y197619D01*
X21311Y197404D01*
X21144Y197237D01*
X20000Y197237D01*
X19934Y197231D01*
X19841Y197231D01*
X17462Y197044D01*
X17390Y197031D01*
X17316Y197027D01*
X17168Y196992D01*
X17163Y196991D01*
X17153Y196988D01*
X17152Y196988D01*
X17066Y196973D01*
X17035Y196960D01*
X16994Y196951D01*
X12469Y195481D01*
X12329Y195419D01*
X12186Y195364D01*
X12139Y195336D01*
X12100Y195319D01*
X12030Y195269D01*
X11903Y195192D01*
X8054Y192396D01*
X7940Y192294D01*
X7821Y192198D01*
X7785Y192156D01*
X7753Y192128D01*
X7701Y192059D01*
X7604Y191946D01*
X4808Y188097D01*
X4746Y187991D01*
X4741Y187985D01*
X4730Y187965D01*
X4647Y187837D01*
X4626Y187786D01*
X4605Y187750D01*
X4577Y187670D01*
X4555Y187628D01*
X4546Y187594D01*
X4519Y187531D01*
X3049Y183006D01*
X3034Y182935D01*
X3009Y182866D01*
X2982Y182698D01*
X2964Y182613D01*
X2963Y182580D01*
X2956Y182538D01*
X2769Y180159D01*
X2770Y180093D01*
X2763Y180000D01*
X2763Y178856D01*
X2596Y178689D01*
X2579Y178668D01*
X2558Y178650D01*
X2451Y178512D01*
X2341Y178377D01*
X2328Y178353D01*
X2312Y178332D01*
X2234Y178175D01*
X2152Y178021D01*
X2144Y177996D01*
X2132Y177972D01*
X2087Y177802D01*
X2037Y177635D01*
X2035Y177609D01*
X2028Y177583D01*
X2001Y177252D01*
X2001Y22748D01*
X2003Y22721D01*
X2001Y22694D01*
X2023Y22521D01*
X2041Y22347D01*
X2048Y22322D01*
X2052Y22295D01*
X2107Y22129D01*
X2159Y21962D01*
X2172Y21939D01*
X2180Y21913D01*
X2267Y21762D01*
X2351Y21608D01*
X2368Y21588D01*
X2381Y21564D01*
X2596Y21311D01*
X2763Y21144D01*
X2763Y20000D01*
X2769Y19934D01*
X2769Y19841D01*
X2956Y17462D01*
X2969Y17390D01*
X2973Y17316D01*
X3012Y17152D01*
X3027Y17066D01*
X3040Y17035D01*
X3049Y16994D01*
X4519Y12469D01*
X4581Y12329D01*
X4636Y12186D01*
X4664Y12139D01*
X4681Y12100D01*
X4731Y12030D01*
X4808Y11903D01*
X7604Y8054D01*
X7706Y7940D01*
X7802Y7821D01*
X7844Y7785D01*
X7872Y7753D01*
X7941Y7701D01*
X8054Y7604D01*
X11903Y4808D01*
X12035Y4731D01*
X12163Y4647D01*
X12214Y4626D01*
X12250Y4605D01*
X12332Y4577D01*
X12469Y4519D01*
X16994Y3049D01*
X17065Y3034D01*
X17134Y3009D01*
X17302Y2982D01*
X17387Y2964D01*
X17420Y2963D01*
X17462Y2956D01*
X19841Y2769D01*
X19907Y2770D01*
X20000Y2763D01*
X21144Y2763D01*
X21311Y2596D01*
X21318Y2590D01*
X21319Y2589D01*
X21328Y2582D01*
X21332Y2579D01*
X21350Y2558D01*
X21488Y2451D01*
X21623Y2341D01*
X21647Y2328D01*
X21668Y2312D01*
X21825Y2234D01*
X21979Y2152D01*
X22004Y2144D01*
X22028Y2132D01*
X22198Y2087D01*
X22365Y2037D01*
X22391Y2035D01*
X22417Y2028D01*
X22748Y2001D01*
X477252Y2001D01*
X477279Y2003D01*
G37*
%LPC*%
G36*
X265237Y40917D02*
X265237Y40917D01*
X263167Y42987D01*
X263167Y45913D01*
X265237Y47983D01*
X265798Y47983D01*
X265825Y47985D01*
X265852Y47983D01*
X266025Y48005D01*
X266199Y48023D01*
X266224Y48030D01*
X266251Y48034D01*
X266417Y48089D01*
X266584Y48141D01*
X266607Y48154D01*
X266633Y48162D01*
X266784Y48249D01*
X266938Y48333D01*
X266958Y48350D01*
X266982Y48363D01*
X267235Y48578D01*
X288849Y70192D01*
X288854Y70199D01*
X288861Y70204D01*
X288981Y70354D01*
X289104Y70503D01*
X289108Y70511D01*
X289113Y70518D01*
X289202Y70689D01*
X289292Y70859D01*
X289295Y70867D01*
X289299Y70875D01*
X289352Y71061D01*
X289407Y71245D01*
X289408Y71254D01*
X289410Y71262D01*
X289426Y71454D01*
X289443Y71646D01*
X289442Y71655D01*
X289443Y71664D01*
X289421Y71853D01*
X289400Y72046D01*
X289397Y72055D01*
X289396Y72063D01*
X289337Y72245D01*
X289279Y72430D01*
X289274Y72438D01*
X289271Y72446D01*
X289176Y72615D01*
X289084Y72782D01*
X289078Y72789D01*
X289074Y72797D01*
X288948Y72943D01*
X288823Y73089D01*
X288816Y73095D01*
X288810Y73102D01*
X288659Y73219D01*
X288507Y73339D01*
X288499Y73343D01*
X288492Y73348D01*
X288320Y73434D01*
X288148Y73521D01*
X288140Y73524D01*
X288132Y73528D01*
X287945Y73578D01*
X287760Y73629D01*
X287752Y73630D01*
X287743Y73632D01*
X287412Y73659D01*
X190622Y73659D01*
X190595Y73657D01*
X190568Y73659D01*
X190394Y73637D01*
X190221Y73619D01*
X190196Y73612D01*
X190169Y73608D01*
X190003Y73553D01*
X189836Y73501D01*
X189813Y73488D01*
X189787Y73480D01*
X189636Y73393D01*
X189482Y73309D01*
X189462Y73292D01*
X189438Y73279D01*
X189185Y73064D01*
X188788Y72667D01*
X185862Y72667D01*
X185078Y73451D01*
X185071Y73456D01*
X185066Y73463D01*
X184915Y73584D01*
X184767Y73706D01*
X184759Y73710D01*
X184752Y73716D01*
X184582Y73804D01*
X184411Y73894D01*
X184402Y73897D01*
X184395Y73901D01*
X184210Y73954D01*
X184025Y74009D01*
X184016Y74010D01*
X184008Y74012D01*
X183817Y74028D01*
X183624Y74046D01*
X183615Y74045D01*
X183606Y74045D01*
X183417Y74023D01*
X183224Y74002D01*
X183215Y73999D01*
X183207Y73998D01*
X183025Y73939D01*
X182840Y73881D01*
X182832Y73876D01*
X182824Y73874D01*
X182657Y73779D01*
X182488Y73686D01*
X182481Y73680D01*
X182473Y73676D01*
X182328Y73551D01*
X182181Y73425D01*
X182175Y73418D01*
X182168Y73413D01*
X182052Y73262D01*
X181931Y73109D01*
X181927Y73101D01*
X181922Y73094D01*
X181837Y72924D01*
X181749Y72751D01*
X181746Y72742D01*
X181742Y72734D01*
X181693Y72548D01*
X181641Y72363D01*
X181640Y72354D01*
X181638Y72345D01*
X181611Y72014D01*
X181611Y64988D01*
X177582Y60959D01*
X153253Y60959D01*
X121284Y92928D01*
X121284Y104653D01*
X121282Y104680D01*
X121284Y104707D01*
X121262Y104881D01*
X121244Y105054D01*
X121237Y105079D01*
X121233Y105106D01*
X121178Y105272D01*
X121126Y105439D01*
X121113Y105462D01*
X121105Y105488D01*
X121018Y105639D01*
X120934Y105793D01*
X120917Y105813D01*
X120904Y105837D01*
X120689Y106090D01*
X120292Y106487D01*
X120292Y109413D01*
X122362Y111483D01*
X125288Y111483D01*
X127358Y109413D01*
X127358Y106487D01*
X126961Y106090D01*
X126944Y106069D01*
X126923Y106051D01*
X126816Y105914D01*
X126706Y105778D01*
X126693Y105754D01*
X126677Y105733D01*
X126599Y105576D01*
X126517Y105422D01*
X126509Y105397D01*
X126497Y105373D01*
X126452Y105203D01*
X126402Y105037D01*
X126400Y105010D01*
X126393Y104984D01*
X126366Y104653D01*
X126366Y95874D01*
X126368Y95847D01*
X126366Y95820D01*
X126388Y95647D01*
X126406Y95473D01*
X126413Y95448D01*
X126417Y95421D01*
X126472Y95255D01*
X126524Y95088D01*
X126537Y95065D01*
X126545Y95039D01*
X126632Y94888D01*
X126716Y94734D01*
X126733Y94714D01*
X126746Y94690D01*
X126961Y94437D01*
X154762Y66636D01*
X154783Y66619D01*
X154801Y66598D01*
X154939Y66491D01*
X155074Y66381D01*
X155098Y66368D01*
X155119Y66352D01*
X155276Y66274D01*
X155430Y66192D01*
X155455Y66184D01*
X155479Y66172D01*
X155649Y66127D01*
X155816Y66077D01*
X155842Y66075D01*
X155868Y66068D01*
X156199Y66041D01*
X165886Y66041D01*
X165904Y66043D01*
X165922Y66041D01*
X166104Y66062D01*
X166287Y66081D01*
X166304Y66086D01*
X166321Y66088D01*
X166496Y66145D01*
X166672Y66199D01*
X166687Y66207D01*
X166704Y66213D01*
X166864Y66303D01*
X167026Y66391D01*
X167039Y66402D01*
X167055Y66411D01*
X167194Y66531D01*
X167335Y66648D01*
X167346Y66662D01*
X167360Y66674D01*
X167472Y66819D01*
X167587Y66962D01*
X167595Y66978D01*
X167606Y66992D01*
X167688Y67157D01*
X167773Y67319D01*
X167778Y67336D01*
X167786Y67352D01*
X167833Y67531D01*
X167884Y67706D01*
X167886Y67724D01*
X167890Y67741D01*
X167917Y68072D01*
X167917Y71313D01*
X168314Y71710D01*
X168331Y71731D01*
X168352Y71749D01*
X168459Y71886D01*
X168569Y72022D01*
X168582Y72046D01*
X168598Y72067D01*
X168676Y72224D01*
X168758Y72378D01*
X168766Y72403D01*
X168778Y72427D01*
X168823Y72597D01*
X168873Y72763D01*
X168875Y72790D01*
X168882Y72816D01*
X168909Y73147D01*
X168909Y110590D01*
X170993Y112673D01*
X182486Y124167D01*
X182492Y124174D01*
X182499Y124179D01*
X182618Y124328D01*
X182741Y124478D01*
X182745Y124486D01*
X182751Y124493D01*
X182839Y124663D01*
X182930Y124834D01*
X182932Y124843D01*
X182936Y124850D01*
X182990Y125035D01*
X183045Y125220D01*
X183045Y125229D01*
X183048Y125237D01*
X183063Y125429D01*
X183081Y125621D01*
X183080Y125630D01*
X183081Y125639D01*
X183059Y125828D01*
X183038Y126021D01*
X183035Y126030D01*
X183034Y126038D01*
X182974Y126220D01*
X182916Y126405D01*
X182912Y126413D01*
X182909Y126421D01*
X182815Y126588D01*
X182721Y126757D01*
X182715Y126764D01*
X182711Y126772D01*
X182585Y126918D01*
X182461Y127064D01*
X182454Y127070D01*
X182448Y127077D01*
X182296Y127194D01*
X182145Y127314D01*
X182137Y127318D01*
X182130Y127323D01*
X181958Y127409D01*
X181786Y127496D01*
X181777Y127499D01*
X181769Y127503D01*
X181583Y127553D01*
X181398Y127604D01*
X181389Y127605D01*
X181380Y127607D01*
X181050Y127634D01*
X178335Y127634D01*
X148272Y157698D01*
X148272Y158215D01*
X148269Y158242D01*
X148271Y158268D01*
X148249Y158442D01*
X148232Y158616D01*
X148224Y158641D01*
X148221Y158668D01*
X148165Y158834D01*
X148114Y159001D01*
X148101Y159024D01*
X148092Y159050D01*
X148005Y159201D01*
X147922Y159355D01*
X147905Y159375D01*
X147891Y159398D01*
X147677Y159651D01*
X146626Y160702D01*
X145589Y163205D01*
X145589Y176995D01*
X146626Y179498D01*
X148542Y181414D01*
X151045Y182451D01*
X153755Y182451D01*
X156258Y181414D01*
X156416Y181256D01*
X156429Y181245D01*
X156441Y181231D01*
X156585Y181117D01*
X156727Y181001D01*
X156743Y180993D01*
X156757Y180982D01*
X156921Y180898D01*
X157083Y180812D01*
X157100Y180807D01*
X157116Y180799D01*
X157293Y180750D01*
X157469Y180698D01*
X157487Y180696D01*
X157504Y180691D01*
X157687Y180678D01*
X157870Y180661D01*
X157888Y180663D01*
X157905Y180662D01*
X158087Y180685D01*
X158270Y180705D01*
X158287Y180710D01*
X158305Y180712D01*
X158478Y180771D01*
X158654Y180826D01*
X158670Y180835D01*
X158686Y180841D01*
X158846Y180932D01*
X159006Y181021D01*
X159020Y181033D01*
X159035Y181041D01*
X159288Y181256D01*
X159949Y181917D01*
X161272Y182801D01*
X161681Y182971D01*
X161682Y182971D01*
X162743Y183410D01*
X163069Y183475D01*
X163069Y170100D01*
X163069Y156725D01*
X162743Y156790D01*
X161291Y157391D01*
X161287Y157393D01*
X161283Y157395D01*
X161098Y157450D01*
X160906Y157508D01*
X160901Y157508D01*
X160897Y157509D01*
X160699Y157527D01*
X160505Y157546D01*
X160500Y157545D01*
X160496Y157546D01*
X160294Y157524D01*
X160104Y157504D01*
X160100Y157503D01*
X160096Y157502D01*
X159903Y157441D01*
X159720Y157384D01*
X159716Y157382D01*
X159712Y157381D01*
X159537Y157284D01*
X159367Y157191D01*
X159363Y157188D01*
X159359Y157186D01*
X159209Y157058D01*
X159059Y156932D01*
X159056Y156928D01*
X159052Y156926D01*
X158930Y156770D01*
X158808Y156617D01*
X158806Y156613D01*
X158803Y156610D01*
X158712Y156430D01*
X158624Y156259D01*
X158623Y156255D01*
X158620Y156251D01*
X158567Y156058D01*
X158514Y155872D01*
X158514Y155867D01*
X158512Y155863D01*
X158498Y155661D01*
X158483Y155470D01*
X158483Y155466D01*
X158483Y155461D01*
X158509Y155257D01*
X158532Y155070D01*
X158533Y155066D01*
X158534Y155062D01*
X158596Y154875D01*
X158658Y154688D01*
X158660Y154684D01*
X158662Y154680D01*
X158760Y154510D01*
X158858Y154339D01*
X158860Y154335D01*
X158863Y154331D01*
X159077Y154078D01*
X179845Y133311D01*
X179866Y133294D01*
X179883Y133273D01*
X180021Y133166D01*
X180156Y133056D01*
X180180Y133043D01*
X180201Y133027D01*
X180358Y132949D01*
X180512Y132867D01*
X180538Y132859D01*
X180562Y132847D01*
X180731Y132802D01*
X180898Y132752D01*
X180925Y132750D01*
X180951Y132743D01*
X181281Y132716D01*
X260228Y132716D01*
X260255Y132718D01*
X260282Y132716D01*
X260456Y132738D01*
X260629Y132756D01*
X260654Y132763D01*
X260681Y132767D01*
X260847Y132822D01*
X261014Y132874D01*
X261037Y132887D01*
X261063Y132895D01*
X261214Y132982D01*
X261368Y133066D01*
X261388Y133083D01*
X261412Y133096D01*
X261665Y133311D01*
X262062Y133708D01*
X264988Y133708D01*
X267058Y131638D01*
X267058Y128712D01*
X265639Y127293D01*
X265634Y127286D01*
X265627Y127281D01*
X265506Y127131D01*
X265384Y126982D01*
X265380Y126974D01*
X265374Y126967D01*
X265286Y126797D01*
X265196Y126626D01*
X265193Y126617D01*
X265189Y126610D01*
X265136Y126425D01*
X265081Y126240D01*
X265080Y126231D01*
X265078Y126223D01*
X265062Y126032D01*
X265044Y125839D01*
X265045Y125830D01*
X265045Y125821D01*
X265067Y125632D01*
X265088Y125439D01*
X265091Y125430D01*
X265092Y125422D01*
X265152Y125237D01*
X265209Y125055D01*
X265214Y125047D01*
X265216Y125039D01*
X265311Y124872D01*
X265404Y124703D01*
X265410Y124696D01*
X265414Y124688D01*
X265539Y124543D01*
X265665Y124396D01*
X265672Y124390D01*
X265677Y124383D01*
X265828Y124267D01*
X265981Y124146D01*
X265989Y124142D01*
X265996Y124137D01*
X266167Y124051D01*
X266340Y123964D01*
X266348Y123961D01*
X266356Y123957D01*
X266542Y123907D01*
X266727Y123856D01*
X266736Y123855D01*
X266745Y123853D01*
X267076Y123826D01*
X273379Y123826D01*
X273405Y123828D01*
X273432Y123826D01*
X273606Y123848D01*
X273779Y123866D01*
X273805Y123873D01*
X273831Y123877D01*
X273997Y123932D01*
X274164Y123984D01*
X274188Y123997D01*
X274213Y124005D01*
X274365Y124092D01*
X274518Y124176D01*
X274539Y124193D01*
X274562Y124206D01*
X274815Y124421D01*
X307586Y157192D01*
X307600Y157209D01*
X307617Y157224D01*
X307728Y157365D01*
X307841Y157504D01*
X307852Y157523D01*
X307866Y157541D01*
X307947Y157702D01*
X308030Y157859D01*
X308036Y157880D01*
X308046Y157901D01*
X308094Y158074D01*
X308145Y158245D01*
X308147Y158267D01*
X308153Y158289D01*
X308165Y158468D01*
X308181Y158646D01*
X308179Y158668D01*
X308180Y158691D01*
X308157Y158868D01*
X308138Y159046D01*
X308131Y159068D01*
X308128Y159090D01*
X308027Y159406D01*
X307085Y161678D01*
X307085Y165822D01*
X308671Y169649D01*
X311601Y172579D01*
X315428Y174165D01*
X319572Y174165D01*
X323399Y172579D01*
X326329Y169649D01*
X327915Y165822D01*
X327915Y161678D01*
X326329Y157851D01*
X324982Y156503D01*
X324976Y156496D01*
X324969Y156491D01*
X324849Y156341D01*
X324727Y156192D01*
X324723Y156184D01*
X324717Y156177D01*
X324629Y156007D01*
X324538Y155836D01*
X324536Y155827D01*
X324532Y155820D01*
X324478Y155634D01*
X324423Y155450D01*
X324423Y155441D01*
X324420Y155433D01*
X324405Y155242D01*
X324402Y155210D01*
X324263Y155191D01*
X324068Y155167D01*
X324064Y155166D01*
X324060Y155165D01*
X323744Y155063D01*
X319572Y153335D01*
X315428Y153335D01*
X313492Y154138D01*
X313470Y154144D01*
X313450Y154154D01*
X313278Y154202D01*
X313106Y154254D01*
X313084Y154256D01*
X313062Y154262D01*
X312883Y154275D01*
X312705Y154292D01*
X312683Y154290D01*
X312661Y154291D01*
X312483Y154269D01*
X312305Y154251D01*
X312284Y154244D01*
X312261Y154241D01*
X312091Y154184D01*
X311921Y154131D01*
X311901Y154120D01*
X311880Y154113D01*
X311724Y154023D01*
X311567Y153937D01*
X311550Y153923D01*
X311531Y153912D01*
X311278Y153697D01*
X278408Y120828D01*
X276301Y118721D01*
X276296Y118714D01*
X276289Y118708D01*
X276169Y118559D01*
X276046Y118409D01*
X276042Y118401D01*
X276037Y118394D01*
X275948Y118224D01*
X275858Y118054D01*
X275855Y118045D01*
X275851Y118037D01*
X275798Y117852D01*
X275743Y117668D01*
X275742Y117659D01*
X275740Y117650D01*
X275724Y117457D01*
X275707Y117267D01*
X275708Y117258D01*
X275707Y117249D01*
X275729Y117058D01*
X275750Y116866D01*
X275753Y116858D01*
X275754Y116849D01*
X275813Y116667D01*
X275871Y116483D01*
X275876Y116475D01*
X275879Y116466D01*
X275973Y116299D01*
X276066Y116130D01*
X276072Y116123D01*
X276076Y116116D01*
X276202Y115971D01*
X276327Y115823D01*
X276334Y115818D01*
X276340Y115811D01*
X276491Y115694D01*
X276643Y115574D01*
X276651Y115570D01*
X276658Y115564D01*
X276830Y115479D01*
X277002Y115391D01*
X277010Y115389D01*
X277018Y115385D01*
X277204Y115335D01*
X277389Y115283D01*
X277398Y115283D01*
X277407Y115280D01*
X277738Y115253D01*
X305054Y115253D01*
X305072Y115255D01*
X305090Y115254D01*
X305272Y115275D01*
X305455Y115293D01*
X305472Y115298D01*
X305489Y115300D01*
X305664Y115357D01*
X305840Y115411D01*
X305855Y115420D01*
X305872Y115425D01*
X306032Y115516D01*
X306194Y115603D01*
X306207Y115614D01*
X306223Y115623D01*
X306362Y115743D01*
X306503Y115861D01*
X306514Y115875D01*
X306528Y115886D01*
X306640Y116031D01*
X306755Y116175D01*
X306763Y116190D01*
X306774Y116204D01*
X306856Y116369D01*
X306941Y116532D01*
X306946Y116549D01*
X306954Y116565D01*
X307001Y116743D01*
X307052Y116919D01*
X307054Y116937D01*
X307058Y116954D01*
X307083Y117262D01*
X313186Y123365D01*
X321814Y123365D01*
X327866Y117313D01*
X327879Y117302D01*
X327891Y117288D01*
X328035Y117174D01*
X328177Y117058D01*
X328193Y117050D01*
X328207Y117038D01*
X328371Y116955D01*
X328533Y116869D01*
X328550Y116864D01*
X328566Y116856D01*
X328743Y116807D01*
X328919Y116754D01*
X328937Y116753D01*
X328954Y116748D01*
X329137Y116735D01*
X329320Y116718D01*
X329338Y116720D01*
X329355Y116719D01*
X329537Y116742D01*
X329720Y116761D01*
X329737Y116767D01*
X329755Y116769D01*
X329928Y116827D01*
X330104Y116883D01*
X330120Y116892D01*
X330136Y116897D01*
X330296Y116989D01*
X330456Y117078D01*
X330470Y117089D01*
X330485Y117098D01*
X330738Y117313D01*
X338537Y125112D01*
X338548Y125126D01*
X338562Y125137D01*
X338675Y125281D01*
X338792Y125423D01*
X338800Y125439D01*
X338812Y125453D01*
X338895Y125617D01*
X338981Y125779D01*
X338986Y125796D01*
X338994Y125812D01*
X339043Y125989D01*
X339096Y126165D01*
X339097Y126183D01*
X339102Y126200D01*
X339115Y126383D01*
X339132Y126566D01*
X339130Y126584D01*
X339131Y126601D01*
X339108Y126783D01*
X339089Y126966D01*
X339083Y126983D01*
X339081Y127001D01*
X339023Y127175D01*
X338967Y127350D01*
X338958Y127366D01*
X338953Y127382D01*
X338861Y127542D01*
X338772Y127702D01*
X338761Y127716D01*
X338752Y127731D01*
X338537Y127984D01*
X332485Y134036D01*
X332485Y142664D01*
X334308Y144487D01*
X334314Y144494D01*
X334321Y144499D01*
X334441Y144649D01*
X334563Y144798D01*
X334567Y144806D01*
X334573Y144813D01*
X334661Y144983D01*
X334752Y145154D01*
X334754Y145163D01*
X334758Y145170D01*
X334811Y145355D01*
X334867Y145540D01*
X334867Y145549D01*
X334870Y145557D01*
X334885Y145748D01*
X334903Y145941D01*
X334902Y145950D01*
X334903Y145959D01*
X334880Y146148D01*
X334860Y146341D01*
X334857Y146350D01*
X334856Y146358D01*
X334796Y146540D01*
X334738Y146725D01*
X334734Y146733D01*
X334731Y146741D01*
X334636Y146910D01*
X334543Y147077D01*
X334537Y147084D01*
X334533Y147092D01*
X334407Y147238D01*
X334283Y147384D01*
X334276Y147390D01*
X334270Y147397D01*
X334118Y147514D01*
X333967Y147634D01*
X333959Y147638D01*
X333952Y147643D01*
X333780Y147729D01*
X333608Y147816D01*
X333599Y147819D01*
X333591Y147823D01*
X333405Y147873D01*
X333220Y147924D01*
X333211Y147925D01*
X333202Y147927D01*
X332872Y147954D01*
X330189Y147954D01*
X330162Y147952D01*
X330135Y147954D01*
X329962Y147932D01*
X329788Y147914D01*
X329763Y147907D01*
X329736Y147903D01*
X329570Y147848D01*
X329403Y147796D01*
X329380Y147783D01*
X329354Y147775D01*
X329203Y147688D01*
X329049Y147604D01*
X329029Y147587D01*
X329005Y147574D01*
X328752Y147359D01*
X327422Y146029D01*
X327411Y146015D01*
X327397Y146004D01*
X327284Y145860D01*
X327167Y145718D01*
X327159Y145702D01*
X327148Y145688D01*
X327065Y145524D01*
X326979Y145362D01*
X326973Y145345D01*
X326965Y145329D01*
X326916Y145152D01*
X326864Y144976D01*
X326862Y144958D01*
X326857Y144941D01*
X326844Y144758D01*
X326827Y144575D01*
X326829Y144557D01*
X326828Y144539D01*
X326851Y144358D01*
X326871Y144175D01*
X326876Y144158D01*
X326878Y144140D01*
X326936Y143967D01*
X326992Y143791D01*
X327001Y143775D01*
X327007Y143758D01*
X327098Y143599D01*
X327187Y143439D01*
X327199Y143425D01*
X327208Y143409D01*
X327422Y143156D01*
X327915Y142664D01*
X327915Y134036D01*
X321814Y127935D01*
X313186Y127935D01*
X307085Y134036D01*
X307085Y142664D01*
X313186Y148765D01*
X322130Y148765D01*
X322157Y148767D01*
X322184Y148765D01*
X322357Y148787D01*
X322531Y148805D01*
X322556Y148812D01*
X322583Y148816D01*
X322749Y148872D01*
X322916Y148923D01*
X322939Y148935D01*
X322965Y148944D01*
X323116Y149031D01*
X323270Y149115D01*
X323290Y149132D01*
X323313Y149145D01*
X323567Y149360D01*
X325957Y151750D01*
X325960Y151754D01*
X325964Y151757D01*
X326088Y151910D01*
X326212Y152062D01*
X326214Y152066D01*
X326217Y152069D01*
X326310Y152246D01*
X326401Y152418D01*
X326402Y152422D01*
X326404Y152426D01*
X326460Y152616D01*
X326516Y152804D01*
X326516Y152808D01*
X326517Y152812D01*
X326534Y153005D01*
X326537Y153036D01*
X333982Y153036D01*
X333991Y153037D01*
X334000Y153036D01*
X334191Y153057D01*
X334382Y153076D01*
X334391Y153078D01*
X334400Y153079D01*
X334582Y153137D01*
X334767Y153194D01*
X334775Y153198D01*
X334784Y153201D01*
X334952Y153294D01*
X335121Y153386D01*
X335128Y153391D01*
X335136Y153396D01*
X335283Y153520D01*
X335431Y153643D01*
X335436Y153650D01*
X335443Y153656D01*
X335562Y153807D01*
X335683Y153957D01*
X335687Y153965D01*
X335693Y153972D01*
X335780Y154145D01*
X335868Y154314D01*
X335871Y154323D01*
X335875Y154331D01*
X335927Y154517D01*
X335980Y154701D01*
X335981Y154710D01*
X335983Y154719D01*
X335997Y154912D01*
X336013Y155103D01*
X336012Y155111D01*
X336012Y155120D01*
X335988Y155313D01*
X335966Y155502D01*
X335963Y155511D01*
X335962Y155520D01*
X335901Y155703D01*
X335841Y155885D01*
X335837Y155893D01*
X335834Y155901D01*
X335738Y156068D01*
X335643Y156236D01*
X335637Y156243D01*
X335633Y156250D01*
X335418Y156503D01*
X332485Y159436D01*
X332485Y168064D01*
X338709Y174287D01*
X338824Y174323D01*
X338832Y174327D01*
X338840Y174330D01*
X339009Y174423D01*
X339178Y174515D01*
X339185Y174520D01*
X339193Y174525D01*
X339339Y174649D01*
X339487Y174772D01*
X339493Y174779D01*
X339499Y174785D01*
X339619Y174936D01*
X339739Y175086D01*
X339744Y175094D01*
X339749Y175101D01*
X339837Y175274D01*
X339925Y175443D01*
X339927Y175452D01*
X339931Y175460D01*
X339983Y175646D01*
X340036Y175830D01*
X340037Y175839D01*
X340039Y175848D01*
X340054Y176041D01*
X340069Y176232D01*
X340068Y176240D01*
X340069Y176249D01*
X340045Y176442D01*
X340022Y176631D01*
X340020Y176640D01*
X340018Y176649D01*
X339957Y176831D01*
X339897Y177014D01*
X339893Y177022D01*
X339890Y177030D01*
X339794Y177197D01*
X339700Y177365D01*
X339694Y177372D01*
X339689Y177379D01*
X339475Y177632D01*
X332283Y184824D01*
X332262Y184841D01*
X332244Y184862D01*
X332106Y184969D01*
X331971Y185079D01*
X331947Y185092D01*
X331926Y185108D01*
X331769Y185186D01*
X331615Y185268D01*
X331590Y185276D01*
X331566Y185288D01*
X331396Y185333D01*
X331229Y185383D01*
X331203Y185385D01*
X331177Y185392D01*
X330846Y185419D01*
X189854Y185419D01*
X189827Y185417D01*
X189800Y185419D01*
X189627Y185397D01*
X189453Y185379D01*
X189428Y185372D01*
X189401Y185368D01*
X189236Y185313D01*
X189068Y185261D01*
X189045Y185248D01*
X189019Y185240D01*
X188868Y185153D01*
X188714Y185069D01*
X188694Y185052D01*
X188670Y185039D01*
X188417Y184824D01*
X184392Y180799D01*
X184378Y180782D01*
X184361Y180767D01*
X184250Y180626D01*
X184137Y180488D01*
X184127Y180468D01*
X184113Y180450D01*
X184032Y180290D01*
X183948Y180132D01*
X183942Y180110D01*
X183932Y180091D01*
X183885Y179918D01*
X183834Y179746D01*
X183832Y179724D01*
X183826Y179702D01*
X183814Y179523D01*
X183797Y179345D01*
X183800Y179323D01*
X183798Y179301D01*
X183821Y179123D01*
X183841Y178945D01*
X183847Y178923D01*
X183850Y178901D01*
X183952Y178585D01*
X184611Y176995D01*
X184611Y163205D01*
X183574Y160702D01*
X181658Y158786D01*
X179155Y157749D01*
X176445Y157749D01*
X173942Y158786D01*
X173784Y158944D01*
X173771Y158955D01*
X173759Y158969D01*
X173615Y159083D01*
X173473Y159199D01*
X173457Y159207D01*
X173443Y159218D01*
X173279Y159302D01*
X173117Y159388D01*
X173100Y159393D01*
X173084Y159401D01*
X172907Y159450D01*
X172731Y159502D01*
X172713Y159504D01*
X172696Y159509D01*
X172513Y159522D01*
X172330Y159539D01*
X172312Y159537D01*
X172295Y159538D01*
X172113Y159515D01*
X171930Y159495D01*
X171913Y159490D01*
X171895Y159488D01*
X171722Y159429D01*
X171546Y159374D01*
X171530Y159365D01*
X171514Y159359D01*
X171354Y159268D01*
X171194Y159179D01*
X171180Y159167D01*
X171165Y159159D01*
X170912Y158944D01*
X170251Y158283D01*
X168928Y157399D01*
X167457Y156790D01*
X167131Y156725D01*
X167131Y170100D01*
X167131Y183475D01*
X167457Y183410D01*
X168928Y182801D01*
X170251Y181917D01*
X170912Y181256D01*
X170925Y181245D01*
X170937Y181231D01*
X171081Y181118D01*
X171223Y181001D01*
X171239Y180993D01*
X171253Y180982D01*
X171416Y180899D01*
X171579Y180812D01*
X171596Y180807D01*
X171612Y180799D01*
X171789Y180750D01*
X171965Y180698D01*
X171983Y180696D01*
X172000Y180691D01*
X172183Y180678D01*
X172366Y180661D01*
X172384Y180663D01*
X172401Y180662D01*
X172584Y180685D01*
X172766Y180705D01*
X172783Y180710D01*
X172801Y180712D01*
X172975Y180771D01*
X173150Y180826D01*
X173166Y180835D01*
X173182Y180841D01*
X173342Y180932D01*
X173502Y181021D01*
X173516Y181032D01*
X173531Y181041D01*
X173784Y181256D01*
X173942Y181414D01*
X176445Y182451D01*
X178016Y182451D01*
X178043Y182453D01*
X178070Y182451D01*
X178244Y182473D01*
X178417Y182491D01*
X178442Y182498D01*
X178469Y182502D01*
X178635Y182558D01*
X178802Y182609D01*
X178825Y182622D01*
X178851Y182630D01*
X179002Y182717D01*
X179156Y182801D01*
X179176Y182818D01*
X179200Y182831D01*
X179453Y183046D01*
X186908Y190501D01*
X333792Y190501D01*
X345441Y178852D01*
X345441Y176196D01*
X345443Y176178D01*
X345441Y176160D01*
X345462Y175978D01*
X345481Y175795D01*
X345486Y175778D01*
X345488Y175761D01*
X345545Y175586D01*
X345599Y175410D01*
X345607Y175395D01*
X345613Y175378D01*
X345703Y175218D01*
X345791Y175056D01*
X345802Y175043D01*
X345811Y175027D01*
X345931Y174888D01*
X346048Y174747D01*
X346062Y174736D01*
X346074Y174722D01*
X346219Y174610D01*
X346362Y174495D01*
X346378Y174487D01*
X346392Y174476D01*
X346557Y174394D01*
X346719Y174309D01*
X346736Y174304D01*
X346752Y174296D01*
X346931Y174249D01*
X347106Y174198D01*
X347124Y174196D01*
X347141Y174192D01*
X347191Y174188D01*
X353315Y168064D01*
X353315Y159436D01*
X350382Y156503D01*
X350376Y156496D01*
X350369Y156491D01*
X350249Y156341D01*
X350127Y156192D01*
X350123Y156184D01*
X350117Y156177D01*
X350029Y156007D01*
X349938Y155836D01*
X349936Y155827D01*
X349932Y155820D01*
X349878Y155634D01*
X349823Y155450D01*
X349823Y155441D01*
X349820Y155433D01*
X349805Y155242D01*
X349787Y155049D01*
X349788Y155040D01*
X349787Y155031D01*
X349810Y154842D01*
X349830Y154649D01*
X349833Y154640D01*
X349834Y154632D01*
X349894Y154450D01*
X349952Y154265D01*
X349956Y154257D01*
X349959Y154249D01*
X350054Y154080D01*
X350147Y153913D01*
X350153Y153906D01*
X350157Y153898D01*
X350283Y153752D01*
X350407Y153606D01*
X350414Y153600D01*
X350420Y153593D01*
X350572Y153476D01*
X350723Y153356D01*
X350731Y153352D01*
X350738Y153347D01*
X350910Y153261D01*
X351082Y153174D01*
X351091Y153171D01*
X351099Y153167D01*
X351285Y153117D01*
X351470Y153066D01*
X351479Y153065D01*
X351488Y153063D01*
X351818Y153036D01*
X353795Y153036D01*
X386768Y120063D01*
X386782Y120052D01*
X386793Y120038D01*
X386937Y119924D01*
X387079Y119808D01*
X387095Y119800D01*
X387109Y119788D01*
X387273Y119705D01*
X387435Y119619D01*
X387452Y119614D01*
X387468Y119606D01*
X387645Y119557D01*
X387821Y119504D01*
X387839Y119503D01*
X387856Y119498D01*
X388039Y119485D01*
X388222Y119468D01*
X388240Y119470D01*
X388257Y119469D01*
X388439Y119492D01*
X388622Y119511D01*
X388639Y119517D01*
X388657Y119519D01*
X388831Y119577D01*
X389006Y119633D01*
X389022Y119642D01*
X389038Y119647D01*
X389197Y119739D01*
X389358Y119828D01*
X389372Y119839D01*
X389387Y119848D01*
X389640Y120063D01*
X391357Y121779D01*
X394660Y123148D01*
X394738Y123189D01*
X394821Y123222D01*
X394915Y123284D01*
X395015Y123338D01*
X395083Y123394D01*
X395158Y123443D01*
X395238Y123522D01*
X395325Y123594D01*
X395381Y123663D01*
X395445Y123725D01*
X395508Y123819D01*
X395579Y123907D01*
X395620Y123985D01*
X395670Y124059D01*
X395714Y124163D01*
X395766Y124263D01*
X395791Y124348D01*
X395825Y124430D01*
X395847Y124541D01*
X395879Y124650D01*
X395887Y124738D01*
X395904Y124825D01*
X395904Y124938D01*
X395914Y125051D01*
X395904Y125139D01*
X395904Y125228D01*
X395881Y125339D01*
X395869Y125451D01*
X395842Y125535D01*
X395824Y125622D01*
X395780Y125727D01*
X395746Y125834D01*
X395702Y125912D01*
X395668Y125994D01*
X395604Y126087D01*
X395549Y126186D01*
X395491Y126253D01*
X395442Y126327D01*
X395361Y126406D01*
X395287Y126492D01*
X395217Y126546D01*
X395154Y126608D01*
X395059Y126670D01*
X394970Y126740D01*
X394891Y126780D01*
X394817Y126828D01*
X394686Y126883D01*
X394611Y126921D01*
X394566Y126933D01*
X394510Y126956D01*
X392770Y127521D01*
X391132Y128356D01*
X389644Y129437D01*
X388343Y130738D01*
X387262Y132226D01*
X386427Y133864D01*
X385859Y135614D01*
X385828Y135811D01*
X405892Y135811D01*
X405910Y135812D01*
X405927Y135811D01*
X406110Y135832D01*
X406292Y135851D01*
X406309Y135856D01*
X406327Y135858D01*
X406405Y135883D01*
X406542Y135844D01*
X406560Y135842D01*
X406577Y135838D01*
X406908Y135811D01*
X426972Y135811D01*
X426941Y135614D01*
X426373Y133864D01*
X425538Y132226D01*
X424457Y130738D01*
X423156Y129437D01*
X421668Y128356D01*
X420030Y127521D01*
X418290Y126956D01*
X418208Y126920D01*
X418124Y126894D01*
X418024Y126840D01*
X417921Y126794D01*
X417848Y126743D01*
X417770Y126701D01*
X417684Y126628D01*
X417591Y126563D01*
X417530Y126499D01*
X417462Y126441D01*
X417392Y126353D01*
X417314Y126271D01*
X417266Y126196D01*
X417211Y126127D01*
X417160Y126026D01*
X417099Y125930D01*
X417068Y125847D01*
X417027Y125769D01*
X416997Y125660D01*
X416956Y125554D01*
X416942Y125466D01*
X416918Y125381D01*
X416909Y125269D01*
X416890Y125157D01*
X416893Y125068D01*
X416886Y124980D01*
X416900Y124868D01*
X416904Y124755D01*
X416924Y124668D01*
X416935Y124580D01*
X416971Y124473D01*
X416997Y124363D01*
X417034Y124282D01*
X417062Y124198D01*
X417118Y124100D01*
X417165Y123997D01*
X417217Y123925D01*
X417261Y123848D01*
X417335Y123763D01*
X417402Y123672D01*
X417467Y123612D01*
X417526Y123545D01*
X417615Y123476D01*
X417698Y123399D01*
X417774Y123353D01*
X417845Y123299D01*
X417970Y123235D01*
X418043Y123191D01*
X418086Y123175D01*
X418140Y123148D01*
X421443Y121779D01*
X424373Y118849D01*
X425959Y115022D01*
X425959Y110878D01*
X424373Y107051D01*
X421443Y104121D01*
X417616Y102535D01*
X395184Y102535D01*
X391357Y104121D01*
X388427Y107051D01*
X386841Y110878D01*
X386841Y111962D01*
X386839Y111988D01*
X386841Y112015D01*
X386819Y112189D01*
X386801Y112362D01*
X386794Y112388D01*
X386790Y112414D01*
X386735Y112580D01*
X386683Y112747D01*
X386670Y112771D01*
X386662Y112796D01*
X386575Y112948D01*
X386491Y113101D01*
X386474Y113122D01*
X386461Y113145D01*
X386246Y113398D01*
X356782Y142862D01*
X356775Y142868D01*
X356770Y142875D01*
X356620Y142995D01*
X356471Y143117D01*
X356463Y143121D01*
X356456Y143127D01*
X356285Y143216D01*
X356115Y143306D01*
X356107Y143308D01*
X356099Y143312D01*
X355913Y143366D01*
X355729Y143421D01*
X355720Y143421D01*
X355712Y143424D01*
X355520Y143439D01*
X355328Y143457D01*
X355319Y143456D01*
X355310Y143457D01*
X355121Y143435D01*
X354928Y143414D01*
X354919Y143411D01*
X354911Y143410D01*
X354729Y143350D01*
X354544Y143292D01*
X354536Y143288D01*
X354528Y143285D01*
X354359Y143190D01*
X354192Y143097D01*
X354185Y143091D01*
X354177Y143087D01*
X354031Y142961D01*
X353885Y142837D01*
X353879Y142830D01*
X353872Y142824D01*
X353755Y142672D01*
X353635Y142521D01*
X353631Y142513D01*
X353626Y142506D01*
X353540Y142333D01*
X353453Y142162D01*
X353450Y142153D01*
X353446Y142145D01*
X353396Y141959D01*
X353345Y141774D01*
X353344Y141765D01*
X353342Y141756D01*
X353315Y141426D01*
X353315Y134025D01*
X353239Y133930D01*
X353123Y133788D01*
X353115Y133773D01*
X353104Y133759D01*
X353021Y133595D01*
X352935Y133433D01*
X352930Y133416D01*
X352922Y133400D01*
X352872Y133223D01*
X352820Y133047D01*
X352818Y133029D01*
X352814Y133012D01*
X352800Y132829D01*
X352784Y132646D01*
X352786Y132628D01*
X352784Y132610D01*
X352807Y132428D01*
X352827Y132246D01*
X352832Y132228D01*
X352835Y132211D01*
X352893Y132037D01*
X352948Y131862D01*
X352957Y131846D01*
X352963Y131829D01*
X353055Y131670D01*
X353143Y131509D01*
X353155Y131496D01*
X353164Y131480D01*
X353378Y131227D01*
X388355Y96250D01*
X388369Y96239D01*
X388381Y96225D01*
X388525Y96112D01*
X388667Y95995D01*
X388683Y95987D01*
X388697Y95976D01*
X388861Y95892D01*
X389022Y95807D01*
X389039Y95802D01*
X389055Y95794D01*
X389233Y95744D01*
X389408Y95692D01*
X389426Y95690D01*
X389443Y95686D01*
X389626Y95672D01*
X389809Y95656D01*
X389827Y95658D01*
X389845Y95656D01*
X390027Y95679D01*
X390210Y95699D01*
X390227Y95704D01*
X390244Y95707D01*
X390418Y95765D01*
X390593Y95820D01*
X390609Y95829D01*
X390626Y95835D01*
X390785Y95926D01*
X390946Y96015D01*
X390959Y96027D01*
X390975Y96036D01*
X391228Y96251D01*
X391357Y96379D01*
X394444Y97658D01*
X395184Y97965D01*
X417616Y97965D01*
X421443Y96379D01*
X424373Y93449D01*
X425959Y89622D01*
X425959Y85478D01*
X424373Y81651D01*
X421443Y78721D01*
X417616Y77135D01*
X395184Y77135D01*
X391357Y78721D01*
X388427Y81651D01*
X386841Y85478D01*
X386841Y89737D01*
X386839Y89763D01*
X386841Y89790D01*
X386819Y89964D01*
X386801Y90137D01*
X386794Y90163D01*
X386790Y90189D01*
X386735Y90355D01*
X386683Y90522D01*
X386670Y90546D01*
X386662Y90571D01*
X386575Y90723D01*
X386491Y90876D01*
X386474Y90897D01*
X386461Y90920D01*
X386246Y91173D01*
X382765Y94654D01*
X382744Y94671D01*
X382727Y94692D01*
X382589Y94799D01*
X382454Y94909D01*
X382430Y94922D01*
X382409Y94938D01*
X382252Y95016D01*
X382098Y95098D01*
X382072Y95106D01*
X382048Y95118D01*
X381879Y95163D01*
X381712Y95213D01*
X381685Y95215D01*
X381659Y95222D01*
X381329Y95249D01*
X368860Y95249D01*
X368851Y95248D01*
X368842Y95249D01*
X368649Y95228D01*
X368460Y95209D01*
X368451Y95207D01*
X368442Y95206D01*
X368258Y95147D01*
X368075Y95091D01*
X368067Y95087D01*
X368058Y95084D01*
X367890Y94991D01*
X367721Y94899D01*
X367714Y94894D01*
X367706Y94889D01*
X367559Y94765D01*
X367411Y94642D01*
X367406Y94635D01*
X367399Y94629D01*
X367279Y94477D01*
X367159Y94328D01*
X367155Y94320D01*
X367149Y94313D01*
X367061Y94139D01*
X366974Y93971D01*
X366971Y93962D01*
X366967Y93954D01*
X366915Y93768D01*
X366862Y93584D01*
X366861Y93575D01*
X366859Y93566D01*
X366845Y93373D01*
X366829Y93182D01*
X366830Y93174D01*
X366830Y93165D01*
X366854Y92972D01*
X366876Y92783D01*
X366879Y92774D01*
X366880Y92765D01*
X366941Y92583D01*
X367001Y92400D01*
X367005Y92392D01*
X367008Y92384D01*
X367104Y92217D01*
X367199Y92049D01*
X367205Y92042D01*
X367209Y92035D01*
X367424Y91782D01*
X388355Y70850D01*
X388369Y70839D01*
X388381Y70826D01*
X388525Y70712D01*
X388667Y70595D01*
X388682Y70587D01*
X388696Y70576D01*
X388861Y70492D01*
X389022Y70407D01*
X389039Y70402D01*
X389055Y70394D01*
X389233Y70344D01*
X389408Y70292D01*
X389426Y70290D01*
X389443Y70286D01*
X389626Y70272D01*
X389809Y70256D01*
X389827Y70258D01*
X389845Y70256D01*
X390027Y70279D01*
X390210Y70299D01*
X390227Y70304D01*
X390244Y70307D01*
X390418Y70365D01*
X390593Y70420D01*
X390609Y70429D01*
X390626Y70435D01*
X390785Y70527D01*
X390946Y70615D01*
X390959Y70627D01*
X390975Y70636D01*
X391228Y70850D01*
X391357Y70979D01*
X395184Y72565D01*
X417616Y72565D01*
X421443Y70979D01*
X424373Y68049D01*
X425959Y64222D01*
X425959Y60078D01*
X424373Y56251D01*
X421443Y53321D01*
X419835Y52655D01*
X419835Y52654D01*
X417616Y51735D01*
X395184Y51735D01*
X391357Y53321D01*
X388427Y56251D01*
X386841Y60078D01*
X386841Y64337D01*
X386839Y64363D01*
X386841Y64390D01*
X386819Y64564D01*
X386801Y64737D01*
X386794Y64763D01*
X386790Y64789D01*
X386735Y64955D01*
X386683Y65122D01*
X386670Y65146D01*
X386662Y65171D01*
X386575Y65323D01*
X386491Y65476D01*
X386474Y65497D01*
X386461Y65520D01*
X386246Y65773D01*
X363715Y88304D01*
X363694Y88321D01*
X363677Y88342D01*
X363539Y88449D01*
X363404Y88559D01*
X363380Y88572D01*
X363359Y88588D01*
X363202Y88666D01*
X363048Y88748D01*
X363022Y88756D01*
X362998Y88768D01*
X362829Y88813D01*
X362662Y88863D01*
X362635Y88865D01*
X362609Y88872D01*
X362279Y88899D01*
X315584Y88899D01*
X315557Y88897D01*
X315530Y88899D01*
X315357Y88877D01*
X315183Y88859D01*
X315158Y88852D01*
X315131Y88848D01*
X314965Y88793D01*
X314798Y88741D01*
X314775Y88728D01*
X314749Y88720D01*
X314598Y88633D01*
X314444Y88549D01*
X314424Y88532D01*
X314400Y88519D01*
X314147Y88304D01*
X270828Y44985D01*
X270811Y44964D01*
X270790Y44946D01*
X270683Y44808D01*
X270573Y44673D01*
X270560Y44649D01*
X270544Y44628D01*
X270466Y44471D01*
X270384Y44317D01*
X270376Y44292D01*
X270364Y44268D01*
X270319Y44098D01*
X270269Y43931D01*
X270267Y43905D01*
X270260Y43879D01*
X270233Y43548D01*
X270233Y42987D01*
X268163Y40917D01*
X265237Y40917D01*
G37*
%LPD*%
G36*
X286423Y78743D02*
X286423Y78743D01*
X286450Y78741D01*
X286623Y78763D01*
X286797Y78781D01*
X286822Y78788D01*
X286849Y78792D01*
X287015Y78847D01*
X287182Y78899D01*
X287205Y78912D01*
X287231Y78920D01*
X287382Y79007D01*
X287536Y79091D01*
X287556Y79108D01*
X287580Y79121D01*
X287833Y79336D01*
X308828Y100331D01*
X310487Y100331D01*
X310496Y100332D01*
X310505Y100331D01*
X310696Y100352D01*
X310887Y100371D01*
X310896Y100373D01*
X310905Y100374D01*
X311087Y100432D01*
X311272Y100489D01*
X311280Y100493D01*
X311289Y100496D01*
X311457Y100589D01*
X311626Y100681D01*
X311633Y100686D01*
X311641Y100691D01*
X311788Y100815D01*
X311936Y100938D01*
X311941Y100945D01*
X311948Y100951D01*
X312067Y101102D01*
X312188Y101252D01*
X312192Y101260D01*
X312198Y101267D01*
X312285Y101440D01*
X312373Y101609D01*
X312376Y101618D01*
X312380Y101626D01*
X312432Y101812D01*
X312485Y101996D01*
X312486Y102005D01*
X312488Y102014D01*
X312502Y102207D01*
X312518Y102398D01*
X312517Y102406D01*
X312517Y102415D01*
X312493Y102608D01*
X312471Y102797D01*
X312468Y102806D01*
X312467Y102815D01*
X312406Y102998D01*
X312346Y103180D01*
X312342Y103188D01*
X312339Y103196D01*
X312243Y103363D01*
X312148Y103531D01*
X312142Y103538D01*
X312138Y103545D01*
X311923Y103798D01*
X306986Y108735D01*
X306981Y108750D01*
X306927Y108926D01*
X306919Y108942D01*
X306913Y108959D01*
X306823Y109119D01*
X306735Y109280D01*
X306724Y109294D01*
X306715Y109309D01*
X306595Y109449D01*
X306478Y109589D01*
X306464Y109601D01*
X306452Y109614D01*
X306307Y109727D01*
X306164Y109842D01*
X306148Y109850D01*
X306134Y109861D01*
X305969Y109943D01*
X305807Y110027D01*
X305790Y110032D01*
X305774Y110040D01*
X305595Y110088D01*
X305420Y110139D01*
X305402Y110140D01*
X305385Y110145D01*
X305054Y110172D01*
X195384Y110172D01*
X195358Y110169D01*
X195331Y110171D01*
X195157Y110149D01*
X194984Y110132D01*
X194958Y110124D01*
X194931Y110121D01*
X194766Y110065D01*
X194599Y110014D01*
X194575Y110001D01*
X194550Y109992D01*
X194398Y109905D01*
X194245Y109822D01*
X194224Y109805D01*
X194201Y109792D01*
X193948Y109577D01*
X191963Y107592D01*
X189037Y107592D01*
X186967Y109662D01*
X186967Y112588D01*
X189037Y114658D01*
X189598Y114658D01*
X189624Y114660D01*
X189650Y114658D01*
X189825Y114680D01*
X189999Y114698D01*
X190024Y114705D01*
X190050Y114709D01*
X190216Y114764D01*
X190384Y114816D01*
X190407Y114828D01*
X190431Y114836D01*
X190584Y114924D01*
X190738Y115008D01*
X190758Y115024D01*
X190780Y115037D01*
X191034Y115252D01*
X191058Y115276D01*
X191064Y115283D01*
X191071Y115289D01*
X191191Y115438D01*
X191313Y115587D01*
X191317Y115596D01*
X191323Y115603D01*
X191411Y115773D01*
X191502Y115943D01*
X191505Y115952D01*
X191509Y115960D01*
X191562Y116144D01*
X191617Y116329D01*
X191618Y116338D01*
X191620Y116347D01*
X191636Y116539D01*
X191653Y116729D01*
X191652Y116739D01*
X191653Y116749D01*
X191631Y116939D01*
X191610Y117130D01*
X191607Y117139D01*
X191606Y117148D01*
X191547Y117331D01*
X191489Y117514D01*
X191484Y117522D01*
X191481Y117531D01*
X191387Y117699D01*
X191294Y117866D01*
X191288Y117873D01*
X191284Y117882D01*
X191158Y118027D01*
X191034Y118173D01*
X191027Y118179D01*
X191020Y118187D01*
X190870Y118303D01*
X190718Y118423D01*
X190710Y118427D01*
X190702Y118433D01*
X190531Y118519D01*
X190360Y118606D01*
X190350Y118608D01*
X190342Y118613D01*
X190155Y118663D01*
X189972Y118714D01*
X189962Y118715D01*
X189953Y118717D01*
X189622Y118744D01*
X185091Y118744D01*
X185065Y118742D01*
X185038Y118744D01*
X184864Y118722D01*
X184691Y118704D01*
X184665Y118697D01*
X184639Y118693D01*
X184473Y118638D01*
X184306Y118586D01*
X184282Y118573D01*
X184257Y118565D01*
X184105Y118478D01*
X183952Y118394D01*
X183931Y118377D01*
X183908Y118364D01*
X183655Y118149D01*
X174586Y109080D01*
X174569Y109059D01*
X174548Y109042D01*
X174441Y108904D01*
X174331Y108769D01*
X174318Y108745D01*
X174302Y108724D01*
X174224Y108567D01*
X174142Y108413D01*
X174134Y108387D01*
X174122Y108363D01*
X174077Y108194D01*
X174027Y108027D01*
X174025Y108000D01*
X174018Y107974D01*
X173991Y107644D01*
X173991Y86920D01*
X173992Y86911D01*
X173991Y86902D01*
X174012Y86710D01*
X174031Y86520D01*
X174033Y86511D01*
X174034Y86502D01*
X174092Y86319D01*
X174149Y86135D01*
X174153Y86127D01*
X174156Y86118D01*
X174249Y85950D01*
X174341Y85781D01*
X174346Y85774D01*
X174351Y85766D01*
X174476Y85618D01*
X174598Y85471D01*
X174605Y85466D01*
X174611Y85459D01*
X174762Y85340D01*
X174912Y85219D01*
X174920Y85215D01*
X174927Y85209D01*
X175098Y85122D01*
X175269Y85034D01*
X175278Y85031D01*
X175286Y85027D01*
X175471Y84975D01*
X175656Y84922D01*
X175665Y84921D01*
X175674Y84919D01*
X175866Y84905D01*
X176058Y84889D01*
X176066Y84890D01*
X176075Y84890D01*
X176266Y84914D01*
X176457Y84936D01*
X176466Y84939D01*
X176475Y84940D01*
X176656Y85001D01*
X176840Y85061D01*
X176848Y85065D01*
X176856Y85068D01*
X177022Y85164D01*
X177191Y85259D01*
X177198Y85265D01*
X177205Y85269D01*
X177458Y85484D01*
X178612Y86638D01*
X178613Y86638D01*
X181332Y89357D01*
X181332Y89358D01*
X183415Y91441D01*
X264577Y91441D01*
X269340Y86678D01*
X269361Y86661D01*
X269379Y86640D01*
X269517Y86533D01*
X269652Y86423D01*
X269676Y86410D01*
X269697Y86394D01*
X269854Y86316D01*
X270008Y86234D01*
X270033Y86226D01*
X270057Y86214D01*
X270227Y86169D01*
X270394Y86119D01*
X270420Y86117D01*
X270446Y86110D01*
X270777Y86083D01*
X271338Y86083D01*
X273408Y84013D01*
X273408Y80772D01*
X273410Y80754D01*
X273408Y80736D01*
X273429Y80554D01*
X273448Y80371D01*
X273453Y80354D01*
X273455Y80337D01*
X273512Y80162D01*
X273566Y79986D01*
X273574Y79971D01*
X273580Y79954D01*
X273670Y79794D01*
X273758Y79632D01*
X273769Y79619D01*
X273778Y79603D01*
X273898Y79464D01*
X274015Y79323D01*
X274029Y79312D01*
X274041Y79298D01*
X274186Y79186D01*
X274329Y79071D01*
X274345Y79063D01*
X274359Y79052D01*
X274524Y78970D01*
X274686Y78885D01*
X274703Y78880D01*
X274719Y78872D01*
X274898Y78825D01*
X275073Y78774D01*
X275091Y78772D01*
X275108Y78768D01*
X275439Y78741D01*
X286396Y78741D01*
X286423Y78743D01*
G37*
%LPC*%
G36*
X406258Y140856D02*
X406258Y140856D01*
X406240Y140858D01*
X406223Y140862D01*
X405892Y140889D01*
X385828Y140889D01*
X385859Y141086D01*
X386427Y142836D01*
X387262Y144474D01*
X388343Y145962D01*
X389644Y147263D01*
X391132Y148344D01*
X392770Y149179D01*
X394510Y149744D01*
X394592Y149780D01*
X394676Y149806D01*
X394776Y149860D01*
X394879Y149906D01*
X394952Y149957D01*
X395030Y149999D01*
X395116Y150072D01*
X395209Y150137D01*
X395270Y150201D01*
X395338Y150259D01*
X395408Y150347D01*
X395486Y150429D01*
X395534Y150504D01*
X395589Y150573D01*
X395640Y150674D01*
X395701Y150770D01*
X395732Y150853D01*
X395773Y150931D01*
X395803Y151040D01*
X395844Y151146D01*
X395858Y151234D01*
X395882Y151319D01*
X395891Y151431D01*
X395910Y151543D01*
X395907Y151632D01*
X395914Y151720D01*
X395900Y151832D01*
X395896Y151945D01*
X395876Y152032D01*
X395865Y152120D01*
X395829Y152227D01*
X395803Y152337D01*
X395766Y152418D01*
X395738Y152502D01*
X395682Y152600D01*
X395635Y152703D01*
X395583Y152775D01*
X395539Y152852D01*
X395465Y152937D01*
X395398Y153028D01*
X395333Y153088D01*
X395274Y153155D01*
X395185Y153224D01*
X395102Y153301D01*
X395026Y153347D01*
X394955Y153401D01*
X394830Y153465D01*
X394757Y153509D01*
X394714Y153525D01*
X394660Y153552D01*
X391357Y154921D01*
X388427Y157851D01*
X386841Y161678D01*
X386841Y165822D01*
X388427Y169649D01*
X391357Y172579D01*
X395184Y174165D01*
X417616Y174165D01*
X421443Y172579D01*
X424373Y169649D01*
X425959Y165822D01*
X425959Y161678D01*
X424373Y157851D01*
X421443Y154921D01*
X418140Y153552D01*
X418062Y153511D01*
X417979Y153478D01*
X417885Y153416D01*
X417785Y153362D01*
X417717Y153306D01*
X417642Y153257D01*
X417562Y153178D01*
X417475Y153106D01*
X417419Y153037D01*
X417355Y152975D01*
X417292Y152881D01*
X417221Y152793D01*
X417180Y152715D01*
X417130Y152641D01*
X417086Y152537D01*
X417034Y152437D01*
X417009Y152352D01*
X416975Y152270D01*
X416953Y152159D01*
X416921Y152050D01*
X416913Y151962D01*
X416896Y151875D01*
X416896Y151762D01*
X416886Y151649D01*
X416896Y151561D01*
X416896Y151472D01*
X416919Y151361D01*
X416931Y151249D01*
X416958Y151165D01*
X416976Y151078D01*
X417020Y150973D01*
X417054Y150866D01*
X417098Y150788D01*
X417132Y150706D01*
X417196Y150613D01*
X417251Y150514D01*
X417309Y150447D01*
X417358Y150373D01*
X417439Y150294D01*
X417513Y150208D01*
X417583Y150154D01*
X417646Y150092D01*
X417741Y150030D01*
X417830Y149960D01*
X417909Y149920D01*
X417983Y149872D01*
X418114Y149817D01*
X418189Y149779D01*
X418234Y149767D01*
X418290Y149744D01*
X420030Y149179D01*
X421668Y148344D01*
X423156Y147263D01*
X424457Y145962D01*
X425538Y144474D01*
X426373Y142836D01*
X426941Y141086D01*
X426972Y140889D01*
X406908Y140889D01*
X406890Y140887D01*
X406873Y140889D01*
X406690Y140868D01*
X406508Y140849D01*
X406491Y140844D01*
X406473Y140842D01*
X406395Y140817D01*
X406258Y140856D01*
G37*
%LPD*%
%LPC*%
G36*
X457058Y140856D02*
X457058Y140856D01*
X457040Y140858D01*
X457023Y140862D01*
X456692Y140889D01*
X436628Y140889D01*
X436659Y141086D01*
X437227Y142836D01*
X438062Y144474D01*
X439143Y145962D01*
X440444Y147263D01*
X441932Y148344D01*
X443570Y149179D01*
X445310Y149744D01*
X445392Y149780D01*
X445476Y149806D01*
X445576Y149860D01*
X445679Y149906D01*
X445752Y149957D01*
X445830Y149999D01*
X445916Y150072D01*
X446009Y150137D01*
X446070Y150201D01*
X446138Y150259D01*
X446208Y150347D01*
X446286Y150429D01*
X446334Y150504D01*
X446389Y150573D01*
X446440Y150674D01*
X446501Y150770D01*
X446532Y150853D01*
X446573Y150931D01*
X446603Y151040D01*
X446644Y151146D01*
X446658Y151234D01*
X446682Y151319D01*
X446691Y151431D01*
X446710Y151543D01*
X446707Y151632D01*
X446714Y151720D01*
X446700Y151832D01*
X446696Y151945D01*
X446676Y152032D01*
X446665Y152120D01*
X446629Y152227D01*
X446603Y152337D01*
X446566Y152418D01*
X446538Y152502D01*
X446482Y152600D01*
X446435Y152703D01*
X446383Y152775D01*
X446339Y152852D01*
X446265Y152937D01*
X446198Y153028D01*
X446133Y153088D01*
X446074Y153155D01*
X445985Y153224D01*
X445902Y153301D01*
X445826Y153347D01*
X445755Y153401D01*
X445630Y153465D01*
X445557Y153509D01*
X445514Y153525D01*
X445460Y153552D01*
X442157Y154921D01*
X439227Y157851D01*
X437641Y161678D01*
X437641Y165822D01*
X439227Y169649D01*
X442157Y172579D01*
X445984Y174165D01*
X468416Y174165D01*
X472243Y172579D01*
X475173Y169649D01*
X476759Y165822D01*
X476759Y161678D01*
X475173Y157851D01*
X472243Y154921D01*
X468940Y153552D01*
X468862Y153511D01*
X468779Y153478D01*
X468685Y153416D01*
X468585Y153362D01*
X468517Y153306D01*
X468442Y153257D01*
X468362Y153178D01*
X468275Y153106D01*
X468219Y153037D01*
X468155Y152975D01*
X468092Y152881D01*
X468021Y152793D01*
X467980Y152715D01*
X467930Y152641D01*
X467886Y152537D01*
X467834Y152437D01*
X467809Y152352D01*
X467775Y152270D01*
X467753Y152159D01*
X467721Y152050D01*
X467713Y151962D01*
X467696Y151875D01*
X467696Y151762D01*
X467686Y151649D01*
X467696Y151561D01*
X467696Y151472D01*
X467719Y151361D01*
X467731Y151249D01*
X467758Y151165D01*
X467776Y151078D01*
X467820Y150973D01*
X467854Y150866D01*
X467898Y150788D01*
X467932Y150706D01*
X467996Y150613D01*
X468051Y150514D01*
X468109Y150447D01*
X468158Y150373D01*
X468239Y150294D01*
X468313Y150208D01*
X468383Y150154D01*
X468446Y150092D01*
X468541Y150030D01*
X468630Y149960D01*
X468709Y149920D01*
X468783Y149872D01*
X468914Y149817D01*
X468989Y149779D01*
X469034Y149767D01*
X469090Y149744D01*
X470830Y149179D01*
X472468Y148344D01*
X473956Y147263D01*
X475257Y145962D01*
X476338Y144474D01*
X477173Y142836D01*
X477741Y141086D01*
X477772Y140889D01*
X457708Y140889D01*
X457690Y140887D01*
X457673Y140889D01*
X457490Y140868D01*
X457308Y140849D01*
X457291Y140844D01*
X457273Y140842D01*
X457195Y140817D01*
X457058Y140856D01*
G37*
%LPD*%
%LPC*%
G36*
X445984Y102535D02*
X445984Y102535D01*
X442157Y104121D01*
X439227Y107051D01*
X437641Y110878D01*
X437641Y115022D01*
X439227Y118849D01*
X442157Y121779D01*
X445460Y123148D01*
X445538Y123189D01*
X445621Y123222D01*
X445715Y123284D01*
X445815Y123338D01*
X445883Y123394D01*
X445958Y123443D01*
X446038Y123522D01*
X446125Y123594D01*
X446181Y123663D01*
X446245Y123725D01*
X446308Y123819D01*
X446379Y123907D01*
X446420Y123985D01*
X446470Y124059D01*
X446514Y124163D01*
X446566Y124263D01*
X446591Y124348D01*
X446625Y124430D01*
X446647Y124541D01*
X446679Y124650D01*
X446687Y124738D01*
X446704Y124825D01*
X446704Y124938D01*
X446714Y125051D01*
X446704Y125139D01*
X446704Y125228D01*
X446681Y125339D01*
X446669Y125451D01*
X446642Y125535D01*
X446624Y125622D01*
X446580Y125727D01*
X446546Y125834D01*
X446502Y125912D01*
X446468Y125994D01*
X446404Y126087D01*
X446349Y126186D01*
X446291Y126253D01*
X446242Y126327D01*
X446161Y126406D01*
X446087Y126492D01*
X446017Y126546D01*
X445954Y126608D01*
X445859Y126670D01*
X445770Y126740D01*
X445691Y126780D01*
X445617Y126828D01*
X445486Y126883D01*
X445411Y126921D01*
X445366Y126933D01*
X445310Y126956D01*
X443570Y127521D01*
X441932Y128356D01*
X440444Y129437D01*
X439143Y130738D01*
X438062Y132226D01*
X437227Y133864D01*
X436659Y135614D01*
X436628Y135811D01*
X456692Y135811D01*
X456710Y135812D01*
X456727Y135811D01*
X456910Y135832D01*
X457092Y135851D01*
X457109Y135856D01*
X457127Y135858D01*
X457205Y135883D01*
X457342Y135844D01*
X457360Y135842D01*
X457377Y135838D01*
X457708Y135811D01*
X477772Y135811D01*
X477741Y135614D01*
X477173Y133864D01*
X476338Y132226D01*
X475257Y130738D01*
X473956Y129437D01*
X472468Y128356D01*
X470830Y127521D01*
X469090Y126956D01*
X469008Y126920D01*
X468924Y126894D01*
X468824Y126840D01*
X468721Y126794D01*
X468648Y126743D01*
X468570Y126701D01*
X468484Y126628D01*
X468391Y126563D01*
X468330Y126499D01*
X468262Y126441D01*
X468192Y126353D01*
X468114Y126271D01*
X468066Y126196D01*
X468011Y126127D01*
X467960Y126026D01*
X467899Y125930D01*
X467868Y125847D01*
X467827Y125769D01*
X467797Y125660D01*
X467756Y125554D01*
X467742Y125466D01*
X467718Y125381D01*
X467709Y125269D01*
X467690Y125157D01*
X467693Y125068D01*
X467686Y124980D01*
X467700Y124868D01*
X467704Y124755D01*
X467724Y124668D01*
X467735Y124580D01*
X467771Y124473D01*
X467797Y124363D01*
X467834Y124282D01*
X467862Y124198D01*
X467918Y124100D01*
X467965Y123997D01*
X468017Y123925D01*
X468061Y123848D01*
X468135Y123763D01*
X468202Y123672D01*
X468267Y123612D01*
X468326Y123545D01*
X468415Y123476D01*
X468498Y123399D01*
X468574Y123353D01*
X468645Y123299D01*
X468770Y123235D01*
X468843Y123191D01*
X468886Y123175D01*
X468940Y123148D01*
X472243Y121779D01*
X475173Y118849D01*
X476759Y115022D01*
X476759Y110878D01*
X475173Y107051D01*
X472243Y104121D01*
X468416Y102535D01*
X445984Y102535D01*
G37*
%LPD*%
%LPC*%
G36*
X445984Y26335D02*
X445984Y26335D01*
X442157Y27921D01*
X439227Y30851D01*
X437641Y34678D01*
X437641Y38822D01*
X439227Y42649D01*
X442157Y45579D01*
X445984Y47165D01*
X468416Y47165D01*
X472243Y45579D01*
X475173Y42649D01*
X476759Y38822D01*
X476759Y34678D01*
X475173Y30851D01*
X472243Y27921D01*
X468416Y26335D01*
X445984Y26335D01*
G37*
%LPD*%
%LPC*%
G36*
X395184Y26335D02*
X395184Y26335D01*
X391357Y27921D01*
X388427Y30851D01*
X386841Y34678D01*
X386841Y38822D01*
X388427Y42649D01*
X391357Y45579D01*
X395184Y47165D01*
X417616Y47165D01*
X421443Y45579D01*
X424373Y42649D01*
X425959Y38822D01*
X425959Y34678D01*
X424373Y30851D01*
X421443Y27921D01*
X417616Y26335D01*
X395184Y26335D01*
G37*
%LPD*%
%LPC*%
G36*
X445984Y51735D02*
X445984Y51735D01*
X442157Y53321D01*
X439227Y56251D01*
X437641Y60078D01*
X437641Y64222D01*
X439227Y68049D01*
X442157Y70979D01*
X445984Y72565D01*
X468416Y72565D01*
X472243Y70979D01*
X475173Y68049D01*
X476759Y64222D01*
X476759Y60078D01*
X475173Y56251D01*
X472243Y53321D01*
X470635Y52655D01*
X470635Y52654D01*
X468416Y51735D01*
X445984Y51735D01*
G37*
%LPD*%
%LPC*%
G36*
X445984Y77135D02*
X445984Y77135D01*
X442157Y78721D01*
X439227Y81651D01*
X437641Y85478D01*
X437641Y89622D01*
X439227Y93449D01*
X442157Y96379D01*
X445244Y97658D01*
X445984Y97965D01*
X468416Y97965D01*
X472243Y96379D01*
X475173Y93449D01*
X476759Y89622D01*
X476759Y85478D01*
X475173Y81651D01*
X472243Y78721D01*
X468416Y77135D01*
X445984Y77135D01*
G37*
%LPD*%
G36*
X183686Y78356D02*
X183686Y78356D01*
X183695Y78355D01*
X183888Y78379D01*
X184077Y78402D01*
X184086Y78404D01*
X184095Y78405D01*
X184278Y78467D01*
X184460Y78526D01*
X184468Y78531D01*
X184476Y78534D01*
X184642Y78629D01*
X184811Y78724D01*
X184818Y78730D01*
X184825Y78735D01*
X185078Y78949D01*
X185862Y79733D01*
X188788Y79733D01*
X189185Y79336D01*
X189206Y79319D01*
X189224Y79298D01*
X189361Y79191D01*
X189497Y79081D01*
X189521Y79068D01*
X189542Y79052D01*
X189699Y78974D01*
X189853Y78892D01*
X189878Y78884D01*
X189902Y78872D01*
X190072Y78827D01*
X190238Y78777D01*
X190265Y78775D01*
X190291Y78768D01*
X190622Y78741D01*
X264311Y78741D01*
X264329Y78743D01*
X264347Y78741D01*
X264529Y78762D01*
X264712Y78781D01*
X264729Y78786D01*
X264746Y78788D01*
X264921Y78845D01*
X265097Y78899D01*
X265112Y78907D01*
X265129Y78913D01*
X265289Y79003D01*
X265451Y79091D01*
X265464Y79102D01*
X265480Y79111D01*
X265619Y79231D01*
X265760Y79348D01*
X265771Y79362D01*
X265785Y79374D01*
X265897Y79519D01*
X266012Y79662D01*
X266020Y79678D01*
X266031Y79692D01*
X266113Y79857D01*
X266198Y80019D01*
X266203Y80036D01*
X266211Y80052D01*
X266258Y80231D01*
X266309Y80406D01*
X266311Y80424D01*
X266315Y80441D01*
X266342Y80772D01*
X266342Y81648D01*
X266340Y81675D01*
X266342Y81702D01*
X266320Y81875D01*
X266302Y82049D01*
X266295Y82074D01*
X266291Y82101D01*
X266236Y82267D01*
X266184Y82434D01*
X266171Y82457D01*
X266163Y82483D01*
X266076Y82634D01*
X265992Y82788D01*
X265975Y82808D01*
X265962Y82832D01*
X265747Y83085D01*
X263068Y85764D01*
X263047Y85781D01*
X263029Y85802D01*
X262891Y85909D01*
X262756Y86019D01*
X262732Y86032D01*
X262711Y86048D01*
X262554Y86126D01*
X262400Y86208D01*
X262375Y86216D01*
X262351Y86228D01*
X262181Y86273D01*
X262014Y86323D01*
X261988Y86325D01*
X261962Y86332D01*
X261631Y86359D01*
X186361Y86359D01*
X186335Y86357D01*
X186308Y86359D01*
X186134Y86337D01*
X185961Y86319D01*
X185935Y86312D01*
X185909Y86308D01*
X185743Y86253D01*
X185576Y86201D01*
X185552Y86188D01*
X185527Y86180D01*
X185375Y86093D01*
X185222Y86009D01*
X185201Y85992D01*
X185178Y85979D01*
X184925Y85764D01*
X182206Y83045D01*
X182189Y83024D01*
X182168Y83007D01*
X182061Y82869D01*
X181951Y82734D01*
X181938Y82710D01*
X181922Y82689D01*
X181844Y82532D01*
X181762Y82378D01*
X181754Y82352D01*
X181742Y82328D01*
X181697Y82159D01*
X181647Y81992D01*
X181645Y81965D01*
X181638Y81939D01*
X181611Y81609D01*
X181611Y80386D01*
X181612Y80377D01*
X181611Y80368D01*
X181632Y80176D01*
X181651Y79985D01*
X181653Y79976D01*
X181654Y79968D01*
X181713Y79783D01*
X181769Y79600D01*
X181773Y79592D01*
X181776Y79584D01*
X181869Y79415D01*
X181961Y79246D01*
X181966Y79239D01*
X181971Y79231D01*
X182096Y79084D01*
X182218Y78937D01*
X182225Y78931D01*
X182231Y78924D01*
X182382Y78805D01*
X182532Y78684D01*
X182540Y78680D01*
X182547Y78675D01*
X182718Y78588D01*
X182889Y78499D01*
X182898Y78496D01*
X182906Y78492D01*
X183092Y78441D01*
X183276Y78388D01*
X183285Y78387D01*
X183294Y78384D01*
X183486Y78370D01*
X183678Y78355D01*
X183686Y78356D01*
G37*
%LPC*%
G36*
X47063Y157063D02*
X47063Y157063D01*
X47063Y184504D01*
X47664Y184445D01*
X50724Y183836D01*
X53710Y182931D01*
X56591Y181737D01*
X59343Y180266D01*
X61936Y178533D01*
X64348Y176554D01*
X66554Y174348D01*
X68533Y171936D01*
X70266Y169343D01*
X71737Y166591D01*
X72931Y163710D01*
X73836Y160724D01*
X74445Y157664D01*
X74504Y157063D01*
X47063Y157063D01*
G37*
%LPD*%
%LPC*%
G36*
X335063Y52063D02*
X335063Y52063D01*
X335063Y79504D01*
X335664Y79445D01*
X338724Y78836D01*
X341710Y77931D01*
X344591Y76737D01*
X347343Y75266D01*
X349936Y73533D01*
X352348Y71554D01*
X354554Y69348D01*
X356533Y66936D01*
X358266Y64343D01*
X359737Y61591D01*
X360931Y58710D01*
X361836Y55724D01*
X362445Y52664D01*
X362504Y52063D01*
X335063Y52063D01*
G37*
%LPD*%
%LPC*%
G36*
X11496Y157063D02*
X11496Y157063D01*
X11555Y157664D01*
X12164Y160724D01*
X13069Y163710D01*
X14263Y166591D01*
X15734Y169343D01*
X17467Y171936D01*
X19446Y174348D01*
X21652Y176554D01*
X24064Y178533D01*
X26657Y180266D01*
X29409Y181737D01*
X32290Y182931D01*
X35276Y183836D01*
X38336Y184445D01*
X38937Y184504D01*
X38937Y157063D01*
X11496Y157063D01*
G37*
%LPD*%
%LPC*%
G36*
X335063Y43937D02*
X335063Y43937D01*
X362504Y43937D01*
X362445Y43336D01*
X361836Y40276D01*
X360931Y37290D01*
X359737Y34409D01*
X358266Y31657D01*
X356533Y29064D01*
X354554Y26652D01*
X352348Y24446D01*
X349936Y22467D01*
X347343Y20734D01*
X344591Y19263D01*
X341710Y18069D01*
X338724Y17164D01*
X335664Y16555D01*
X335063Y16496D01*
X335063Y43937D01*
G37*
%LPD*%
%LPC*%
G36*
X47063Y148937D02*
X47063Y148937D01*
X74504Y148937D01*
X74445Y148336D01*
X73836Y145276D01*
X72931Y142290D01*
X71737Y139409D01*
X70266Y136657D01*
X68533Y134064D01*
X66554Y131652D01*
X64348Y129446D01*
X61936Y127467D01*
X59343Y125734D01*
X56591Y124263D01*
X55349Y123748D01*
X53710Y123069D01*
X50724Y122164D01*
X47664Y121555D01*
X47063Y121496D01*
X47063Y148937D01*
G37*
%LPD*%
%LPC*%
G36*
X299496Y52063D02*
X299496Y52063D01*
X299555Y52664D01*
X300164Y55724D01*
X301069Y58710D01*
X302263Y61591D01*
X303734Y64343D01*
X305467Y66936D01*
X307446Y69348D01*
X309652Y71554D01*
X312064Y73533D01*
X314657Y75266D01*
X317409Y76737D01*
X318878Y77346D01*
X320290Y77931D01*
X323276Y78836D01*
X326336Y79445D01*
X326937Y79504D01*
X326937Y52063D01*
X299496Y52063D01*
G37*
%LPD*%
%LPC*%
G36*
X38336Y121555D02*
X38336Y121555D01*
X35276Y122164D01*
X32290Y123069D01*
X29409Y124263D01*
X26657Y125734D01*
X24064Y127467D01*
X21652Y129446D01*
X19446Y131652D01*
X17467Y134064D01*
X15734Y136657D01*
X14263Y139409D01*
X13069Y142290D01*
X12164Y145276D01*
X11555Y148336D01*
X11496Y148937D01*
X38937Y148937D01*
X38937Y121496D01*
X38336Y121555D01*
G37*
%LPD*%
%LPC*%
G36*
X326336Y16555D02*
X326336Y16555D01*
X323276Y17164D01*
X320290Y18069D01*
X317409Y19263D01*
X314657Y20734D01*
X312064Y22467D01*
X309652Y24446D01*
X307446Y26652D01*
X305467Y29064D01*
X303734Y31657D01*
X302263Y34409D01*
X301069Y37290D01*
X300164Y40276D01*
X299555Y43336D01*
X299496Y43937D01*
X326937Y43937D01*
X326937Y16496D01*
X326336Y16555D01*
G37*
%LPD*%
%LPC*%
G36*
X258887Y31392D02*
X258887Y31392D01*
X258490Y31789D01*
X258469Y31806D01*
X258451Y31827D01*
X258314Y31934D01*
X258178Y32044D01*
X258154Y32057D01*
X258133Y32073D01*
X257976Y32151D01*
X257822Y32233D01*
X257797Y32241D01*
X257773Y32253D01*
X257603Y32298D01*
X257437Y32348D01*
X257410Y32350D01*
X257384Y32357D01*
X257053Y32384D01*
X198973Y32384D01*
X196890Y34467D01*
X196889Y34468D01*
X183693Y47664D01*
X183672Y47681D01*
X183654Y47702D01*
X183516Y47809D01*
X183381Y47919D01*
X183357Y47932D01*
X183336Y47948D01*
X183179Y48026D01*
X183025Y48108D01*
X183000Y48116D01*
X182976Y48128D01*
X182806Y48173D01*
X182639Y48223D01*
X182613Y48225D01*
X182587Y48232D01*
X182256Y48259D01*
X174747Y48259D01*
X174720Y48257D01*
X174693Y48259D01*
X174519Y48237D01*
X174346Y48219D01*
X174321Y48212D01*
X174294Y48208D01*
X174128Y48153D01*
X173961Y48101D01*
X173938Y48088D01*
X173912Y48080D01*
X173761Y47993D01*
X173607Y47909D01*
X173587Y47892D01*
X173563Y47879D01*
X173310Y47664D01*
X172913Y47267D01*
X169987Y47267D01*
X167917Y49337D01*
X167917Y52263D01*
X169987Y54333D01*
X172913Y54333D01*
X173310Y53936D01*
X173331Y53919D01*
X173349Y53898D01*
X173486Y53791D01*
X173622Y53681D01*
X173646Y53668D01*
X173667Y53652D01*
X173824Y53574D01*
X173978Y53492D01*
X174003Y53484D01*
X174027Y53472D01*
X174197Y53427D01*
X174363Y53377D01*
X174390Y53375D01*
X174416Y53368D01*
X174747Y53341D01*
X185202Y53341D01*
X187285Y51258D01*
X187286Y51257D01*
X200482Y38061D01*
X200503Y38044D01*
X200521Y38023D01*
X200659Y37916D01*
X200794Y37806D01*
X200818Y37793D01*
X200839Y37777D01*
X200996Y37699D01*
X201150Y37617D01*
X201175Y37609D01*
X201199Y37597D01*
X201369Y37552D01*
X201536Y37502D01*
X201562Y37500D01*
X201588Y37493D01*
X201919Y37466D01*
X257053Y37466D01*
X257080Y37468D01*
X257107Y37466D01*
X257281Y37488D01*
X257454Y37506D01*
X257479Y37513D01*
X257506Y37517D01*
X257672Y37572D01*
X257839Y37624D01*
X257862Y37637D01*
X257888Y37645D01*
X258039Y37732D01*
X258193Y37816D01*
X258213Y37833D01*
X258237Y37846D01*
X258490Y38061D01*
X258887Y38458D01*
X261813Y38458D01*
X263883Y36388D01*
X263883Y33462D01*
X261813Y31392D01*
X258887Y31392D01*
G37*
%LPD*%
G36*
X372194Y100332D02*
X372194Y100332D01*
X372203Y100331D01*
X372396Y100352D01*
X372585Y100371D01*
X372594Y100373D01*
X372603Y100374D01*
X372787Y100433D01*
X372970Y100489D01*
X372978Y100493D01*
X372987Y100496D01*
X373155Y100589D01*
X373324Y100681D01*
X373331Y100686D01*
X373339Y100691D01*
X373486Y100815D01*
X373634Y100938D01*
X373639Y100945D01*
X373646Y100951D01*
X373766Y101103D01*
X373886Y101252D01*
X373890Y101260D01*
X373896Y101267D01*
X373983Y101440D01*
X374071Y101609D01*
X374074Y101618D01*
X374078Y101626D01*
X374130Y101812D01*
X374183Y101996D01*
X374184Y102005D01*
X374186Y102014D01*
X374200Y102207D01*
X374216Y102398D01*
X374215Y102406D01*
X374215Y102415D01*
X374191Y102608D01*
X374169Y102797D01*
X374166Y102806D01*
X374165Y102815D01*
X374104Y102997D01*
X374044Y103180D01*
X374040Y103188D01*
X374037Y103196D01*
X373941Y103363D01*
X373846Y103531D01*
X373840Y103538D01*
X373836Y103545D01*
X373621Y103798D01*
X358052Y119367D01*
X358045Y119373D01*
X358040Y119380D01*
X357890Y119500D01*
X357741Y119622D01*
X357733Y119626D01*
X357726Y119632D01*
X357555Y119721D01*
X357385Y119811D01*
X357377Y119813D01*
X357369Y119817D01*
X357183Y119871D01*
X356999Y119926D01*
X356990Y119926D01*
X356982Y119929D01*
X356790Y119944D01*
X356598Y119962D01*
X356589Y119961D01*
X356580Y119962D01*
X356391Y119940D01*
X356198Y119919D01*
X356189Y119916D01*
X356181Y119915D01*
X355999Y119855D01*
X355814Y119797D01*
X355806Y119793D01*
X355798Y119790D01*
X355629Y119695D01*
X355462Y119602D01*
X355455Y119596D01*
X355447Y119592D01*
X355301Y119466D01*
X355155Y119342D01*
X355149Y119335D01*
X355142Y119329D01*
X355024Y119176D01*
X354905Y119026D01*
X354901Y119018D01*
X354896Y119011D01*
X354810Y118839D01*
X354723Y118667D01*
X354720Y118658D01*
X354716Y118650D01*
X354666Y118464D01*
X354615Y118279D01*
X354614Y118270D01*
X354612Y118261D01*
X354585Y117931D01*
X354585Y115489D01*
X343408Y115489D01*
X343390Y115487D01*
X343373Y115489D01*
X343190Y115468D01*
X343008Y115449D01*
X342991Y115444D01*
X342973Y115442D01*
X342798Y115385D01*
X342623Y115331D01*
X342607Y115323D01*
X342590Y115317D01*
X342430Y115227D01*
X342269Y115139D01*
X342255Y115128D01*
X342239Y115119D01*
X342100Y114999D01*
X341959Y114882D01*
X341948Y114868D01*
X341935Y114856D01*
X341822Y114711D01*
X341707Y114568D01*
X341699Y114552D01*
X341688Y114538D01*
X341606Y114373D01*
X341522Y114211D01*
X341517Y114194D01*
X341509Y114178D01*
X341461Y113999D01*
X341410Y113824D01*
X341409Y113806D01*
X341404Y113789D01*
X341377Y113458D01*
X341377Y112442D01*
X341379Y112424D01*
X341377Y112406D01*
X341399Y112224D01*
X341417Y112041D01*
X341422Y112024D01*
X341424Y112007D01*
X341481Y111832D01*
X341535Y111656D01*
X341543Y111641D01*
X341549Y111624D01*
X341639Y111464D01*
X341727Y111302D01*
X341738Y111289D01*
X341747Y111273D01*
X341867Y111134D01*
X341985Y110993D01*
X341998Y110982D01*
X342010Y110968D01*
X342155Y110856D01*
X342298Y110741D01*
X342314Y110733D01*
X342328Y110722D01*
X342493Y110640D01*
X342656Y110555D01*
X342673Y110550D01*
X342689Y110542D01*
X342867Y110494D01*
X343042Y110444D01*
X343060Y110442D01*
X343077Y110438D01*
X343408Y110411D01*
X354585Y110411D01*
X354585Y108110D01*
X350273Y103798D01*
X350267Y103791D01*
X350260Y103786D01*
X350140Y103636D01*
X350018Y103487D01*
X350014Y103479D01*
X350008Y103472D01*
X349920Y103302D01*
X349829Y103131D01*
X349827Y103122D01*
X349823Y103115D01*
X349769Y102930D01*
X349714Y102745D01*
X349714Y102736D01*
X349711Y102728D01*
X349695Y102535D01*
X349678Y102344D01*
X349679Y102335D01*
X349678Y102326D01*
X349701Y102137D01*
X349721Y101944D01*
X349724Y101935D01*
X349725Y101927D01*
X349785Y101745D01*
X349843Y101560D01*
X349847Y101552D01*
X349850Y101544D01*
X349945Y101375D01*
X350038Y101208D01*
X350044Y101201D01*
X350048Y101193D01*
X350174Y101047D01*
X350298Y100901D01*
X350305Y100895D01*
X350311Y100888D01*
X350463Y100771D01*
X350614Y100651D01*
X350622Y100647D01*
X350629Y100642D01*
X350801Y100556D01*
X350973Y100469D01*
X350982Y100466D01*
X350990Y100462D01*
X351176Y100412D01*
X351361Y100361D01*
X351370Y100360D01*
X351379Y100358D01*
X351709Y100331D01*
X372185Y100331D01*
X372194Y100332D01*
G37*
G36*
X334100Y100332D02*
X334100Y100332D01*
X334109Y100331D01*
X334302Y100352D01*
X334491Y100371D01*
X334500Y100373D01*
X334509Y100374D01*
X334693Y100433D01*
X334876Y100489D01*
X334884Y100493D01*
X334893Y100496D01*
X335061Y100589D01*
X335230Y100681D01*
X335237Y100686D01*
X335245Y100691D01*
X335392Y100815D01*
X335540Y100938D01*
X335545Y100945D01*
X335552Y100951D01*
X335672Y101103D01*
X335792Y101252D01*
X335796Y101260D01*
X335802Y101267D01*
X335889Y101440D01*
X335977Y101609D01*
X335980Y101618D01*
X335984Y101626D01*
X336036Y101812D01*
X336089Y101996D01*
X336090Y102005D01*
X336092Y102014D01*
X336106Y102207D01*
X336122Y102398D01*
X336121Y102406D01*
X336121Y102415D01*
X336097Y102608D01*
X336075Y102797D01*
X336072Y102806D01*
X336071Y102815D01*
X336010Y102997D01*
X335950Y103180D01*
X335945Y103188D01*
X335943Y103196D01*
X335847Y103363D01*
X335752Y103531D01*
X335746Y103538D01*
X335742Y103545D01*
X335527Y103798D01*
X330738Y108587D01*
X330724Y108598D01*
X330713Y108612D01*
X330569Y108726D01*
X330427Y108842D01*
X330411Y108850D01*
X330397Y108862D01*
X330233Y108945D01*
X330071Y109031D01*
X330054Y109036D01*
X330038Y109044D01*
X329861Y109093D01*
X329685Y109146D01*
X329667Y109147D01*
X329650Y109152D01*
X329467Y109165D01*
X329284Y109182D01*
X329266Y109180D01*
X329249Y109181D01*
X329067Y109158D01*
X328884Y109139D01*
X328867Y109133D01*
X328849Y109131D01*
X328676Y109073D01*
X328500Y109017D01*
X328484Y109008D01*
X328468Y109003D01*
X328308Y108911D01*
X328148Y108822D01*
X328134Y108811D01*
X328119Y108802D01*
X327866Y108587D01*
X323077Y103798D01*
X323071Y103791D01*
X323064Y103786D01*
X322944Y103636D01*
X322822Y103487D01*
X322818Y103479D01*
X322812Y103472D01*
X322723Y103301D01*
X322633Y103131D01*
X322631Y103123D01*
X322627Y103115D01*
X322573Y102929D01*
X322518Y102745D01*
X322518Y102736D01*
X322515Y102728D01*
X322499Y102535D01*
X322482Y102344D01*
X322483Y102335D01*
X322482Y102326D01*
X322504Y102137D01*
X322525Y101944D01*
X322528Y101935D01*
X322529Y101927D01*
X322589Y101745D01*
X322647Y101560D01*
X322651Y101552D01*
X322654Y101544D01*
X322749Y101375D01*
X322842Y101208D01*
X322848Y101201D01*
X322852Y101193D01*
X322978Y101047D01*
X323102Y100901D01*
X323109Y100895D01*
X323115Y100888D01*
X323267Y100771D01*
X323418Y100651D01*
X323426Y100647D01*
X323433Y100642D01*
X323605Y100556D01*
X323777Y100469D01*
X323786Y100466D01*
X323794Y100462D01*
X323980Y100412D01*
X324165Y100361D01*
X324174Y100360D01*
X324183Y100358D01*
X324513Y100331D01*
X334091Y100331D01*
X334100Y100332D01*
G37*
G36*
X500069Y192627D02*
X500069Y192627D01*
X500102Y192626D01*
X500268Y192651D01*
X500435Y192670D01*
X500467Y192681D01*
X500500Y192686D01*
X500658Y192743D01*
X500818Y192795D01*
X500847Y192812D01*
X500879Y192823D01*
X501022Y192910D01*
X501169Y192993D01*
X501194Y193015D01*
X501223Y193032D01*
X501346Y193146D01*
X501474Y193256D01*
X501494Y193283D01*
X501518Y193305D01*
X501617Y193441D01*
X501720Y193574D01*
X501735Y193604D01*
X501755Y193631D01*
X501825Y193784D01*
X501900Y193935D01*
X501908Y193967D01*
X501922Y193997D01*
X501960Y194161D01*
X502004Y194324D01*
X502007Y194361D01*
X502014Y194389D01*
X502017Y194476D01*
X502031Y194654D01*
X502031Y200000D01*
X502029Y200018D01*
X502031Y200036D01*
X502010Y200218D01*
X501991Y200401D01*
X501986Y200418D01*
X501984Y200435D01*
X501927Y200610D01*
X501873Y200786D01*
X501865Y200801D01*
X501859Y200818D01*
X501769Y200978D01*
X501681Y201140D01*
X501670Y201153D01*
X501661Y201169D01*
X501541Y201308D01*
X501424Y201449D01*
X501410Y201460D01*
X501398Y201474D01*
X501253Y201586D01*
X501110Y201701D01*
X501094Y201709D01*
X501080Y201720D01*
X500915Y201802D01*
X500753Y201887D01*
X500736Y201892D01*
X500720Y201900D01*
X500541Y201947D01*
X500366Y201998D01*
X500348Y202000D01*
X500331Y202004D01*
X500000Y202031D01*
X494654Y202031D01*
X494487Y202015D01*
X494319Y202003D01*
X494287Y201995D01*
X494254Y201991D01*
X494093Y201942D01*
X493931Y201898D01*
X493901Y201883D01*
X493869Y201873D01*
X493721Y201793D01*
X493570Y201718D01*
X493544Y201697D01*
X493515Y201681D01*
X493386Y201574D01*
X493253Y201470D01*
X493231Y201445D01*
X493206Y201424D01*
X493100Y201293D01*
X492990Y201165D01*
X492974Y201136D01*
X492953Y201110D01*
X492876Y200961D01*
X492793Y200814D01*
X492783Y200782D01*
X492768Y200753D01*
X492721Y200591D01*
X492669Y200431D01*
X492666Y200398D01*
X492656Y200366D01*
X492643Y200198D01*
X492623Y200031D01*
X492626Y199998D01*
X492623Y199964D01*
X492643Y199797D01*
X492657Y199630D01*
X492666Y199598D01*
X492670Y199565D01*
X492723Y199405D01*
X492769Y199243D01*
X492785Y199214D01*
X492795Y199182D01*
X492878Y199035D01*
X492956Y198886D01*
X492977Y198860D01*
X492993Y198831D01*
X493103Y198704D01*
X493209Y198573D01*
X493237Y198549D01*
X493256Y198527D01*
X493325Y198474D01*
X493460Y198357D01*
X496296Y196296D01*
X498357Y193460D01*
X498469Y193334D01*
X498576Y193206D01*
X498602Y193185D01*
X498624Y193160D01*
X498759Y193058D01*
X498890Y192953D01*
X498920Y192938D01*
X498946Y192918D01*
X499099Y192845D01*
X499247Y192768D01*
X499279Y192759D01*
X499309Y192744D01*
X499473Y192703D01*
X499634Y192656D01*
X499668Y192654D01*
X499700Y192645D01*
X499868Y192637D01*
X500036Y192623D01*
X500069Y192627D01*
G37*
G36*
X500018Y-2029D02*
X500018Y-2029D01*
X500036Y-2031D01*
X500218Y-2010D01*
X500401Y-1991D01*
X500418Y-1986D01*
X500435Y-1984D01*
X500610Y-1927D01*
X500786Y-1873D01*
X500801Y-1865D01*
X500818Y-1859D01*
X500978Y-1769D01*
X501140Y-1681D01*
X501153Y-1670D01*
X501169Y-1661D01*
X501308Y-1541D01*
X501449Y-1424D01*
X501460Y-1410D01*
X501474Y-1398D01*
X501586Y-1253D01*
X501701Y-1110D01*
X501709Y-1094D01*
X501720Y-1080D01*
X501802Y-915D01*
X501887Y-753D01*
X501892Y-736D01*
X501900Y-720D01*
X501947Y-541D01*
X501998Y-366D01*
X502000Y-348D01*
X502004Y-331D01*
X502031Y0D01*
X502031Y5346D01*
X502015Y5513D01*
X502003Y5681D01*
X501995Y5713D01*
X501991Y5746D01*
X501942Y5907D01*
X501898Y6069D01*
X501883Y6099D01*
X501873Y6131D01*
X501793Y6279D01*
X501718Y6430D01*
X501697Y6456D01*
X501681Y6485D01*
X501574Y6614D01*
X501470Y6747D01*
X501445Y6769D01*
X501424Y6794D01*
X501293Y6900D01*
X501165Y7010D01*
X501136Y7026D01*
X501110Y7047D01*
X500961Y7124D01*
X500814Y7207D01*
X500782Y7217D01*
X500753Y7232D01*
X500591Y7279D01*
X500431Y7331D01*
X500398Y7334D01*
X500366Y7344D01*
X500198Y7357D01*
X500031Y7377D01*
X499998Y7374D01*
X499964Y7377D01*
X499797Y7357D01*
X499630Y7343D01*
X499598Y7334D01*
X499565Y7330D01*
X499405Y7277D01*
X499243Y7231D01*
X499214Y7215D01*
X499182Y7205D01*
X499035Y7122D01*
X498886Y7044D01*
X498860Y7023D01*
X498831Y7007D01*
X498704Y6897D01*
X498573Y6791D01*
X498549Y6763D01*
X498527Y6744D01*
X498474Y6675D01*
X498357Y6540D01*
X496296Y3704D01*
X493460Y1643D01*
X493335Y1531D01*
X493206Y1424D01*
X493185Y1398D01*
X493160Y1376D01*
X493059Y1241D01*
X492953Y1110D01*
X492938Y1080D01*
X492918Y1054D01*
X492845Y902D01*
X492768Y753D01*
X492759Y721D01*
X492744Y691D01*
X492703Y527D01*
X492656Y366D01*
X492654Y332D01*
X492645Y300D01*
X492637Y132D01*
X492623Y-36D01*
X492627Y-69D01*
X492626Y-102D01*
X492651Y-269D01*
X492670Y-435D01*
X492681Y-467D01*
X492686Y-500D01*
X492743Y-658D01*
X492795Y-818D01*
X492812Y-847D01*
X492823Y-879D01*
X492910Y-1022D01*
X492993Y-1169D01*
X493015Y-1194D01*
X493032Y-1223D01*
X493146Y-1346D01*
X493256Y-1474D01*
X493283Y-1494D01*
X493305Y-1518D01*
X493441Y-1617D01*
X493574Y-1720D01*
X493604Y-1735D01*
X493631Y-1755D01*
X493784Y-1825D01*
X493935Y-1900D01*
X493967Y-1908D01*
X493997Y-1922D01*
X494161Y-1960D01*
X494324Y-2004D01*
X494361Y-2007D01*
X494389Y-2014D01*
X494476Y-2017D01*
X494654Y-2031D01*
X500000Y-2031D01*
X500018Y-2029D01*
G37*
G36*
X2Y192626D02*
X2Y192626D01*
X36Y192623D01*
X203Y192643D01*
X370Y192657D01*
X402Y192666D01*
X435Y192670D01*
X595Y192722D01*
X757Y192769D01*
X786Y192785D01*
X818Y192795D01*
X965Y192878D01*
X1114Y192956D01*
X1140Y192977D01*
X1169Y192993D01*
X1296Y193103D01*
X1427Y193209D01*
X1451Y193237D01*
X1474Y193256D01*
X1526Y193325D01*
X1643Y193460D01*
X3704Y196296D01*
X6540Y198357D01*
X6665Y198469D01*
X6794Y198576D01*
X6815Y198602D01*
X6840Y198624D01*
X6942Y198759D01*
X7047Y198890D01*
X7062Y198920D01*
X7082Y198946D01*
X7155Y199099D01*
X7232Y199247D01*
X7241Y199279D01*
X7256Y199309D01*
X7297Y199473D01*
X7344Y199634D01*
X7346Y199668D01*
X7355Y199700D01*
X7363Y199868D01*
X7377Y200036D01*
X7373Y200069D01*
X7374Y200102D01*
X7349Y200268D01*
X7330Y200435D01*
X7319Y200467D01*
X7314Y200500D01*
X7257Y200658D01*
X7205Y200818D01*
X7188Y200847D01*
X7177Y200879D01*
X7090Y201022D01*
X7007Y201169D01*
X6985Y201194D01*
X6968Y201223D01*
X6854Y201346D01*
X6744Y201474D01*
X6717Y201494D01*
X6695Y201518D01*
X6559Y201617D01*
X6426Y201720D01*
X6396Y201735D01*
X6369Y201755D01*
X6216Y201825D01*
X6065Y201900D01*
X6033Y201908D01*
X6003Y201922D01*
X5839Y201960D01*
X5676Y202004D01*
X5639Y202007D01*
X5611Y202014D01*
X5524Y202017D01*
X5346Y202031D01*
X0Y202031D01*
X-18Y202029D01*
X-36Y202031D01*
X-218Y202010D01*
X-401Y201991D01*
X-418Y201986D01*
X-435Y201984D01*
X-610Y201927D01*
X-786Y201873D01*
X-801Y201865D01*
X-818Y201859D01*
X-978Y201769D01*
X-1140Y201681D01*
X-1153Y201670D01*
X-1169Y201661D01*
X-1308Y201541D01*
X-1449Y201424D01*
X-1460Y201410D01*
X-1474Y201398D01*
X-1586Y201253D01*
X-1701Y201110D01*
X-1709Y201094D01*
X-1720Y201080D01*
X-1802Y200915D01*
X-1887Y200753D01*
X-1892Y200736D01*
X-1900Y200720D01*
X-1947Y200541D01*
X-1998Y200366D01*
X-2000Y200348D01*
X-2004Y200331D01*
X-2031Y200000D01*
X-2031Y194654D01*
X-2015Y194487D01*
X-2003Y194319D01*
X-1995Y194287D01*
X-1991Y194254D01*
X-1942Y194093D01*
X-1898Y193931D01*
X-1883Y193901D01*
X-1873Y193869D01*
X-1793Y193721D01*
X-1718Y193570D01*
X-1697Y193544D01*
X-1681Y193515D01*
X-1574Y193386D01*
X-1470Y193253D01*
X-1445Y193231D01*
X-1424Y193206D01*
X-1293Y193100D01*
X-1165Y192990D01*
X-1136Y192974D01*
X-1110Y192953D01*
X-961Y192876D01*
X-814Y192793D01*
X-782Y192783D01*
X-753Y192768D01*
X-591Y192721D01*
X-431Y192669D01*
X-398Y192666D01*
X-366Y192656D01*
X-198Y192643D01*
X-31Y192623D01*
X2Y192626D01*
G37*
G36*
X5513Y-2015D02*
X5513Y-2015D01*
X5681Y-2003D01*
X5713Y-1995D01*
X5746Y-1991D01*
X5907Y-1942D01*
X6069Y-1898D01*
X6099Y-1883D01*
X6131Y-1873D01*
X6279Y-1793D01*
X6430Y-1718D01*
X6456Y-1697D01*
X6485Y-1681D01*
X6614Y-1574D01*
X6747Y-1470D01*
X6769Y-1445D01*
X6794Y-1424D01*
X6900Y-1293D01*
X7010Y-1165D01*
X7026Y-1136D01*
X7047Y-1110D01*
X7124Y-961D01*
X7207Y-814D01*
X7217Y-782D01*
X7232Y-753D01*
X7279Y-591D01*
X7331Y-431D01*
X7334Y-398D01*
X7344Y-366D01*
X7357Y-198D01*
X7377Y-31D01*
X7374Y2D01*
X7377Y36D01*
X7357Y203D01*
X7343Y370D01*
X7334Y402D01*
X7330Y435D01*
X7278Y595D01*
X7231Y757D01*
X7215Y786D01*
X7205Y818D01*
X7122Y965D01*
X7044Y1114D01*
X7023Y1140D01*
X7007Y1169D01*
X6897Y1296D01*
X6791Y1427D01*
X6763Y1451D01*
X6744Y1474D01*
X6675Y1526D01*
X6540Y1643D01*
X3704Y3704D01*
X1643Y6540D01*
X1531Y6665D01*
X1424Y6794D01*
X1398Y6815D01*
X1376Y6840D01*
X1241Y6941D01*
X1110Y7047D01*
X1080Y7062D01*
X1054Y7082D01*
X902Y7155D01*
X753Y7232D01*
X721Y7241D01*
X691Y7256D01*
X527Y7297D01*
X366Y7344D01*
X332Y7346D01*
X300Y7355D01*
X132Y7363D01*
X-36Y7377D01*
X-69Y7373D01*
X-102Y7374D01*
X-269Y7349D01*
X-435Y7330D01*
X-467Y7319D01*
X-500Y7314D01*
X-658Y7257D01*
X-818Y7205D01*
X-847Y7188D01*
X-879Y7177D01*
X-1022Y7090D01*
X-1169Y7007D01*
X-1194Y6985D01*
X-1223Y6968D01*
X-1346Y6854D01*
X-1474Y6744D01*
X-1494Y6717D01*
X-1518Y6695D01*
X-1617Y6559D01*
X-1720Y6426D01*
X-1735Y6396D01*
X-1755Y6369D01*
X-1825Y6216D01*
X-1900Y6065D01*
X-1908Y6033D01*
X-1922Y6003D01*
X-1960Y5839D01*
X-2004Y5676D01*
X-2007Y5639D01*
X-2014Y5611D01*
X-2017Y5524D01*
X-2031Y5346D01*
X-2031Y0D01*
X-2029Y-18D01*
X-2031Y-36D01*
X-2010Y-218D01*
X-1991Y-401D01*
X-1986Y-418D01*
X-1984Y-435D01*
X-1927Y-610D01*
X-1873Y-786D01*
X-1865Y-801D01*
X-1859Y-818D01*
X-1769Y-978D01*
X-1681Y-1140D01*
X-1670Y-1153D01*
X-1661Y-1169D01*
X-1541Y-1308D01*
X-1424Y-1449D01*
X-1410Y-1460D01*
X-1398Y-1474D01*
X-1253Y-1586D01*
X-1110Y-1701D01*
X-1094Y-1709D01*
X-1080Y-1720D01*
X-915Y-1802D01*
X-753Y-1887D01*
X-736Y-1892D01*
X-720Y-1900D01*
X-541Y-1947D01*
X-366Y-1998D01*
X-348Y-2000D01*
X-331Y-2004D01*
X0Y-2031D01*
X5346Y-2031D01*
X5513Y-2015D01*
G37*
%LPC*%
G36*
X42999Y152999D02*
X42999Y152999D01*
X42999Y153001D01*
X43001Y153001D01*
X43001Y152999D01*
X42999Y152999D01*
G37*
%LPD*%
%LPC*%
G36*
X330999Y47999D02*
X330999Y47999D01*
X330999Y48001D01*
X331001Y48001D01*
X331001Y47999D01*
X330999Y47999D01*
G37*
%LPD*%
D10*
X177800Y164560D02*
X177800Y175640D01*
X165100Y175640D02*
X165100Y164560D01*
X152400Y164560D02*
X152400Y175640D01*
D11*
X397256Y163750D02*
X415544Y163750D01*
X415544Y138350D02*
X397256Y138350D01*
X397256Y112950D02*
X415544Y112950D01*
X415544Y87550D02*
X397256Y87550D01*
X397256Y62150D02*
X415544Y62150D01*
X415544Y36750D02*
X397256Y36750D01*
X448056Y163750D02*
X466344Y163750D01*
X466344Y138350D02*
X448056Y138350D01*
X448056Y112950D02*
X466344Y112950D01*
X466344Y87550D02*
X448056Y87550D01*
X448056Y62150D02*
X466344Y62150D01*
X466344Y36750D02*
X448056Y36750D01*
D12*
X331000Y48000D03*
X43000Y153000D03*
D13*
X317500Y163750D03*
D14*
X317500Y138350D03*
X317500Y112950D03*
X342900Y163750D03*
X342900Y138350D03*
X342900Y112950D03*
D15*
X405210Y60960D02*
X406400Y62150D01*
X405210Y60960D02*
X394653Y60960D01*
D16*
X266700Y44450D03*
D15*
X364173Y91440D02*
X394653Y60960D01*
X313690Y91440D02*
X266700Y44450D01*
X313690Y91440D02*
X364173Y91440D01*
X342900Y163750D02*
X342900Y177800D01*
X332740Y187960D01*
X187960Y187960D01*
X177800Y177800D01*
X177800Y170100D01*
D17*
X44450Y63500D03*
D15*
X114300Y88900D02*
X114300Y184150D01*
X118110Y187960D01*
X165100Y187960D01*
X165100Y170100D01*
D17*
X247650Y44450D03*
D15*
X207010Y44450D01*
D17*
X195580Y55880D03*
D15*
X147320Y55880D01*
X114300Y88900D01*
X195580Y55880D02*
X207010Y44450D01*
X342900Y138113D02*
X342900Y138350D01*
D16*
X187325Y76200D03*
D15*
X396638Y87550D02*
X406400Y87550D01*
X396638Y87550D02*
X392113Y92075D01*
X393463Y87550D02*
X406400Y87550D01*
X393463Y87550D02*
X383223Y97790D01*
X288290Y76200D02*
X187325Y76200D01*
X288290Y76200D02*
X309880Y97790D01*
X383223Y97790D01*
X342900Y138113D01*
X405685Y113665D02*
X406400Y112950D01*
X405685Y113665D02*
X389573Y113665D01*
X352743Y150495D01*
X328295Y150495D01*
X317500Y139700D01*
X317500Y138350D01*
X200025Y34925D02*
X184150Y50800D01*
X171450Y50800D01*
X200025Y34925D02*
X260350Y34925D01*
D16*
X171450Y50800D03*
X260350Y34925D03*
D15*
X184468Y88900D02*
X179070Y83503D01*
X176530Y63500D02*
X154305Y63500D01*
X176530Y63500D02*
X179070Y66040D01*
X179070Y83503D01*
X123825Y93980D02*
X123825Y107950D01*
X123825Y93980D02*
X154305Y63500D01*
D16*
X269875Y82550D03*
X123825Y107950D03*
D15*
X263525Y88900D02*
X269875Y82550D01*
X263525Y88900D02*
X184468Y88900D01*
X317500Y112713D02*
X317500Y112950D01*
D16*
X190500Y111125D03*
D15*
X192088Y112713D01*
X317500Y112713D01*
X275273Y121285D02*
X317500Y163513D01*
X275273Y121285D02*
X183198Y121285D01*
X171450Y109538D01*
X317500Y163513D02*
X317500Y163750D01*
D16*
X171450Y69850D03*
D15*
X171450Y109538D01*
X179388Y130175D02*
X150813Y158750D01*
X150813Y169863D01*
X152400Y169863D01*
X152400Y170100D01*
D16*
X263525Y130175D03*
D15*
X179388Y130175D01*
M02*
